<ttFont>
    <TTGlyph name=".notdef" xMin="87" yMin="-220" xMax="646" yMax="1030">
      <contour>
        <pt x="87" y="1030" on="1"/>
        <pt x="646" y="1030" on="1"/>
        <pt x="646" y="-220" on="1"/>
        <pt x="87" y="-220" on="1"/>
      </contour>
      <contour>
        <pt x="555" y="-134" on="1"/>
        <pt x="555" y="945" on="1"/>
        <pt x="178" y="945" on="1"/>
        <pt x="178" y="-134" on="1"/>
      </contour>
    </TTGlyph>
    <TTGlyph name="A" xMin="5" yMin="0" xMax="651" yMax="740">
      <contour>
        <pt x="5" y="7" on="1"/>
        <pt x="247" y="740" on="1"/>
        <pt x="409" y="740" on="1"/>
        <pt x="651" y="7" on="1"/>
        <pt x="651" y="0" on="1"/>
        <pt x="546" y="0" on="1"/>
        <pt x="476" y="209" on="1"/>
        <pt x="179" y="209" on="1"/>
        <pt x="110" y="0" on="1"/>
        <pt x="5" y="0" on="1"/>
      </contour>
      <contour>
        <pt x="450" y="298" on="1"/>
        <pt x="372" y="532" on="1"/>
        <pt x="332" y="658" on="1"/>
        <pt x="323" y="658" on="1"/>
        <pt x="283" y="532" on="1"/>
        <pt x="206" y="298" on="1"/>
      </contour>
    </TTGlyph>
    <TTGlyph name="A.sc" xMin="9" yMin="0" xMax="587" yMax="577">
      <contour>
        <pt x="9" y="6" on="1"/>
        <pt x="221" y="577" on="1"/>
        <pt x="376" y="577" on="1"/>
        <pt x="587" y="6" on="1"/>
        <pt x="587" y="0" on="1"/>
        <pt x="486" y="0" on="1"/>
        <pt x="428" y="151" on="1"/>
        <pt x="168" y="151" on="1"/>
        <pt x="110" y="0" on="1"/>
        <pt x="9" y="0" on="1"/>
      </contour>
      <contour>
        <pt x="406" y="225" on="1"/>
        <pt x="337" y="408" on="1"/>
        <pt x="302" y="502" on="1"/>
        <pt x="293" y="502" on="1"/>
        <pt x="259" y="407" on="1"/>
        <pt x="189" y="225" on="1"/>
      </contour>
    </TTGlyph>
    <TTGlyph name="AE" xMin="3" yMin="0" xMax="827" yMax="740">
      <contour>
        <pt x="3" y="7" on="1"/>
        <pt x="280" y="740" on="1"/>
        <pt x="816" y="740" on="1"/>
        <pt x="816" y="650" on="1"/>
        <pt x="506" y="650" on="1"/>
        <pt x="518" y="418" on="1"/>
        <pt x="793" y="418" on="1"/>
        <pt x="793" y="329" on="1"/>
        <pt x="523" y="329" on="1"/>
        <pt x="536" y="90" on="1"/>
        <pt x="827" y="90" on="1"/>
        <pt x="827" y="0" on="1"/>
        <pt x="428" y="0" on="1"/>
        <pt x="419" y="208" on="1"/>
        <pt x="189" y="208" on="1"/>
        <pt x="110" y="0" on="1"/>
        <pt x="3" y="0" on="1"/>
      </contour>
      <contour>
        <pt x="224" y="300" on="1"/>
        <pt x="416" y="300" on="1"/>
        <pt x="401" y="656" on="1"/>
        <pt x="359" y="656" on="1"/>
      </contour>
    </TTGlyph>
    <TTGlyph name="AE.sc" xMin="10" yMin="0" xMax="747" yMax="577">
      <contour>
        <pt x="10" y="6" on="1"/>
        <pt x="255" y="577" on="1"/>
        <pt x="737" y="577" on="1"/>
        <pt x="737" y="495" on="1"/>
        <pt x="465" y="495" on="1"/>
        <pt x="474" y="329" on="1"/>
        <pt x="717" y="329" on="1"/>
        <pt x="717" y="253" on="1"/>
        <pt x="481" y="253" on="1"/>
        <pt x="492" y="82" on="1"/>
        <pt x="747" y="82" on="1"/>
        <pt x="747" y="0" on="1"/>
        <pt x="389" y="0" on="1"/>
        <pt x="382" y="151" on="1"/>
        <pt x="178" y="151" on="1"/>
        <pt x="113" y="0" on="1"/>
        <pt x="10" y="0" on="1"/>
      </contour>
      <contour>
        <pt x="211" y="226" on="1"/>
        <pt x="378" y="226" on="1"/>
        <pt x="366" y="500" on="1"/>
        <pt x="330" y="500" on="1"/>
      </contour>
    </TTGlyph>
    <TTGlyph name="AEacute" xMin="3" yMin="0" xMax="827" yMax="952">
      <contour>
        <pt x="460" y="803" on="1"/>
        <pt x="532" y="952" on="1"/>
        <pt x="643" y="952" on="1"/>
        <pt x="541" y="796" on="1"/>
      </contour>
      <contour>
        <pt x="3" y="7" on="1"/>
        <pt x="280" y="740" on="1"/>
        <pt x="816" y="740" on="1"/>
        <pt x="816" y="650" on="1"/>
        <pt x="506" y="650" on="1"/>
        <pt x="518" y="418" on="1"/>
        <pt x="793" y="418" on="1"/>
        <pt x="793" y="329" on="1"/>
        <pt x="523" y="329" on="1"/>
        <pt x="536" y="90" on="1"/>
        <pt x="827" y="90" on="1"/>
        <pt x="827" y="0" on="1"/>
        <pt x="428" y="0" on="1"/>
        <pt x="419" y="208" on="1"/>
        <pt x="189" y="208" on="1"/>
        <pt x="110" y="0" on="1"/>
        <pt x="3" y="0" on="1"/>
      </contour>
      <contour>
        <pt x="224" y="300" on="1"/>
        <pt x="416" y="300" on="1"/>
        <pt x="401" y="656" on="1"/>
        <pt x="359" y="656" on="1"/>
      </contour>
    </TTGlyph>
    <TTGlyph name="AEacute.sc" xMin="10" yMin="0" xMax="747" yMax="752">
      <contour>
        <pt x="10" y="6" on="1"/>
        <pt x="255" y="577" on="1"/>
        <pt x="737" y="577" on="1"/>
        <pt x="737" y="495" on="1"/>
        <pt x="465" y="495" on="1"/>
        <pt x="474" y="329" on="1"/>
        <pt x="717" y="329" on="1"/>
        <pt x="717" y="253" on="1"/>
        <pt x="481" y="253" on="1"/>
        <pt x="492" y="82" on="1"/>
        <pt x="747" y="82" on="1"/>
        <pt x="747" y="0" on="1"/>
        <pt x="389" y="0" on="1"/>
        <pt x="382" y="151" on="1"/>
        <pt x="178" y="151" on="1"/>
        <pt x="113" y="0" on="1"/>
        <pt x="10" y="0" on="1"/>
      </contour>
      <contour>
        <pt x="378" y="226" on="1"/>
        <pt x="366" y="500" on="1"/>
        <pt x="330" y="500" on="1"/>
        <pt x="211" y="226" on="1"/>
      </contour>
      <contour>
        <pt x="411" y="628" on="1"/>
        <pt x="474" y="752" on="1"/>
        <pt x="580" y="752" on="1"/>
        <pt x="488" y="622" on="1"/>
      </contour>
    </TTGlyph>
    <TTGlyph name="Aacute" xMin="5" yMin="0" xMax="651" yMax="952">
      <contour>
        <pt x="5" y="7" on="1"/>
        <pt x="247" y="740" on="1"/>
        <pt x="409" y="740" on="1"/>
        <pt x="651" y="7" on="1"/>
        <pt x="651" y="0" on="1"/>
        <pt x="546" y="0" on="1"/>
        <pt x="476" y="209" on="1"/>
        <pt x="179" y="209" on="1"/>
        <pt x="110" y="0" on="1"/>
        <pt x="5" y="0" on="1"/>
      </contour>
      <contour>
        <pt x="450" y="298" on="1"/>
        <pt x="372" y="532" on="1"/>
        <pt x="332" y="658" on="1"/>
        <pt x="323" y="658" on="1"/>
        <pt x="283" y="532" on="1"/>
        <pt x="206" y="298" on="1"/>
      </contour>
      <contour>
        <pt x="283" y="803" on="1"/>
        <pt x="355" y="952" on="1"/>
        <pt x="466" y="952" on="1"/>
        <pt x="364" y="796" on="1"/>
      </contour>
    </TTGlyph>
    <TTGlyph name="Aacute.sc" xMin="9" yMin="0" xMax="587" yMax="752">
      <contour>
        <pt x="9" y="6" on="1"/>
        <pt x="221" y="577" on="1"/>
        <pt x="376" y="577" on="1"/>
        <pt x="587" y="6" on="1"/>
        <pt x="587" y="0" on="1"/>
        <pt x="486" y="0" on="1"/>
        <pt x="428" y="151" on="1"/>
        <pt x="168" y="151" on="1"/>
        <pt x="110" y="0" on="1"/>
        <pt x="9" y="0" on="1"/>
      </contour>
      <contour>
        <pt x="406" y="227" on="1"/>
        <pt x="337" y="408" on="1"/>
        <pt x="302" y="502" on="1"/>
        <pt x="293" y="502" on="1"/>
        <pt x="259" y="407" on="1"/>
        <pt x="190" y="227" on="1"/>
      </contour>
      <contour>
        <pt x="256" y="628" on="1"/>
        <pt x="318" y="752" on="1"/>
        <pt x="424" y="752" on="1"/>
        <pt x="332" y="622" on="1"/>
      </contour>
    </TTGlyph>
    <TTGlyph name="Abreve" xMin="5" yMin="0" xMax="651" yMax="965">
      <contour>
        <pt x="5" y="7" on="1"/>
        <pt x="247" y="740" on="1"/>
        <pt x="409" y="740" on="1"/>
        <pt x="651" y="7" on="1"/>
        <pt x="651" y="0" on="1"/>
        <pt x="546" y="0" on="1"/>
        <pt x="476" y="209" on="1"/>
        <pt x="179" y="209" on="1"/>
        <pt x="110" y="0" on="1"/>
        <pt x="5" y="0" on="1"/>
      </contour>
      <contour>
        <pt x="450" y="298" on="1"/>
        <pt x="372" y="532" on="1"/>
        <pt x="332" y="658" on="1"/>
        <pt x="323" y="658" on="1"/>
        <pt x="283" y="532" on="1"/>
        <pt x="206" y="298" on="1"/>
      </contour>
      <contour>
        <pt x="328" y="810" on="1"/>
        <pt x="237" y="810" on="0"/>
        <pt x="148" y="895" on="0"/>
        <pt x="148" y="965" on="1"/>
        <pt x="225" y="965" on="1"/>
        <pt x="225" y="918" on="0"/>
        <pt x="275" y="869" on="0"/>
        <pt x="328" y="869" on="1"/>
        <pt x="381" y="869" on="0"/>
        <pt x="431" y="918" on="0"/>
        <pt x="431" y="965" on="1"/>
        <pt x="508" y="965" on="1"/>
        <pt x="508" y="894" on="0"/>
        <pt x="419" y="810" on="0"/>
      </contour>
    </TTGlyph>
    <TTGlyph name="Abreve.sc" xMin="9" yMin="0" xMax="587" yMax="759">
      <contour>
        <pt x="299" y="630" on="1"/>
        <pt x="215" y="630" on="0"/>
        <pt x="136" y="701" on="0"/>
        <pt x="136" y="759" on="1"/>
        <pt x="209" y="759" on="1"/>
        <pt x="209" y="721" on="0"/>
        <pt x="251" y="684" on="0"/>
        <pt x="299" y="684" on="1"/>
        <pt x="346" y="684" on="0"/>
        <pt x="389" y="721" on="0"/>
        <pt x="389" y="759" on="1"/>
        <pt x="461" y="759" on="1"/>
        <pt x="461" y="701" on="0"/>
        <pt x="383" y="630" on="0"/>
      </contour>
      <contour>
        <pt x="9" y="6" on="1"/>
        <pt x="221" y="577" on="1"/>
        <pt x="376" y="577" on="1"/>
        <pt x="587" y="6" on="1"/>
        <pt x="587" y="0" on="1"/>
        <pt x="486" y="0" on="1"/>
        <pt x="428" y="151" on="1"/>
        <pt x="168" y="151" on="1"/>
        <pt x="110" y="0" on="1"/>
        <pt x="9" y="0" on="1"/>
      </contour>
      <contour>
        <pt x="406" y="227" on="1"/>
        <pt x="337" y="408" on="1"/>
        <pt x="302" y="502" on="1"/>
        <pt x="293" y="502" on="1"/>
        <pt x="259" y="407" on="1"/>
        <pt x="190" y="227" on="1"/>
      </contour>
    </TTGlyph>
    <TTGlyph name="Acircumflex" xMin="5" yMin="0" xMax="651" yMax="962">
      <contour>
        <pt x="5" y="7" on="1"/>
        <pt x="247" y="740" on="1"/>
        <pt x="409" y="740" on="1"/>
        <pt x="651" y="7" on="1"/>
        <pt x="651" y="0" on="1"/>
        <pt x="546" y="0" on="1"/>
        <pt x="476" y="209" on="1"/>
        <pt x="179" y="209" on="1"/>
        <pt x="110" y="0" on="1"/>
        <pt x="5" y="0" on="1"/>
      </contour>
      <contour>
        <pt x="450" y="298" on="1"/>
        <pt x="372" y="532" on="1"/>
        <pt x="332" y="658" on="1"/>
        <pt x="323" y="658" on="1"/>
        <pt x="283" y="532" on="1"/>
        <pt x="206" y="298" on="1"/>
      </contour>
      <contour>
        <pt x="165" y="888" on="1"/>
        <pt x="329" y="962" on="1"/>
        <pt x="493" y="888" on="1"/>
        <pt x="493" y="807" on="1"/>
        <pt x="329" y="881" on="1"/>
        <pt x="165" y="807" on="1"/>
      </contour>
    </TTGlyph>
    <TTGlyph name="Acircumflex.sc" xMin="9" yMin="0" xMax="587" yMax="758">
      <contour>
        <pt x="9" y="6" on="1"/>
        <pt x="221" y="577" on="1"/>
        <pt x="376" y="577" on="1"/>
        <pt x="587" y="6" on="1"/>
        <pt x="587" y="0" on="1"/>
        <pt x="486" y="0" on="1"/>
        <pt x="428" y="151" on="1"/>
        <pt x="168" y="151" on="1"/>
        <pt x="110" y="0" on="1"/>
        <pt x="9" y="0" on="1"/>
      </contour>
      <contour>
        <pt x="406" y="227" on="1"/>
        <pt x="337" y="408" on="1"/>
        <pt x="302" y="502" on="1"/>
        <pt x="293" y="502" on="1"/>
        <pt x="259" y="407" on="1"/>
        <pt x="190" y="227" on="1"/>
      </contour>
      <contour>
        <pt x="152" y="700" on="1"/>
        <pt x="299" y="758" on="1"/>
        <pt x="447" y="700" on="1"/>
        <pt x="447" y="627" on="1"/>
        <pt x="299" y="685" on="1"/>
        <pt x="152" y="627" on="1"/>
      </contour>
    </TTGlyph>
    <TTGlyph name="Adblgrave" xMin="5" yMin="0" xMax="651" yMax="949">
      <contour>
        <pt x="5" y="7" on="1"/>
        <pt x="247" y="740" on="1"/>
        <pt x="409" y="740" on="1"/>
        <pt x="651" y="7" on="1"/>
        <pt x="651" y="0" on="1"/>
        <pt x="546" y="0" on="1"/>
        <pt x="476" y="209" on="1"/>
        <pt x="179" y="209" on="1"/>
        <pt x="110" y="0" on="1"/>
        <pt x="5" y="0" on="1"/>
      </contour>
      <contour>
        <pt x="450" y="298" on="1"/>
        <pt x="372" y="532" on="1"/>
        <pt x="332" y="658" on="1"/>
        <pt x="323" y="658" on="1"/>
        <pt x="283" y="532" on="1"/>
        <pt x="206" y="298" on="1"/>
      </contour>
      <contour>
        <pt x="208" y="793" on="1"/>
        <pt x="105" y="949" on="1"/>
        <pt x="207" y="949" on="1"/>
        <pt x="280" y="806" on="1"/>
      </contour>
      <contour>
        <pt x="376" y="793" on="1"/>
        <pt x="272" y="949" on="1"/>
        <pt x="375" y="949" on="1"/>
        <pt x="447" y="806" on="1"/>
      </contour>
    </TTGlyph>
    <TTGlyph name="Adblgrave.sc" xMin="9" yMin="0" xMax="587" yMax="750">
      <contour>
        <pt x="9" y="6" on="1"/>
        <pt x="221" y="577" on="1"/>
        <pt x="376" y="577" on="1"/>
        <pt x="587" y="6" on="1"/>
        <pt x="587" y="0" on="1"/>
        <pt x="486" y="0" on="1"/>
        <pt x="428" y="151" on="1"/>
        <pt x="168" y="151" on="1"/>
        <pt x="110" y="0" on="1"/>
        <pt x="9" y="0" on="1"/>
      </contour>
      <contour>
        <pt x="406" y="227" on="1"/>
        <pt x="337" y="408" on="1"/>
        <pt x="302" y="502" on="1"/>
        <pt x="293" y="502" on="1"/>
        <pt x="259" y="407" on="1"/>
        <pt x="190" y="227" on="1"/>
      </contour>
      <contour>
        <pt x="95" y="750" on="1"/>
        <pt x="194" y="750" on="1"/>
        <pt x="256" y="630" on="1"/>
        <pt x="187" y="620" on="1"/>
      </contour>
      <contour>
        <pt x="247" y="750" on="1"/>
        <pt x="345" y="750" on="1"/>
        <pt x="407" y="630" on="1"/>
        <pt x="339" y="620" on="1"/>
      </contour>
    </TTGlyph>
    <TTGlyph name="Adieresis" xMin="5" yMin="0" xMax="651" yMax="939">
      <contour>
        <pt x="5" y="7" on="1"/>
        <pt x="247" y="740" on="1"/>
        <pt x="409" y="740" on="1"/>
        <pt x="651" y="7" on="1"/>
        <pt x="651" y="0" on="1"/>
        <pt x="546" y="0" on="1"/>
        <pt x="476" y="209" on="1"/>
        <pt x="179" y="209" on="1"/>
        <pt x="110" y="0" on="1"/>
        <pt x="5" y="0" on="1"/>
      </contour>
      <contour>
        <pt x="450" y="298" on="1"/>
        <pt x="372" y="532" on="1"/>
        <pt x="332" y="658" on="1"/>
        <pt x="323" y="658" on="1"/>
        <pt x="283" y="532" on="1"/>
        <pt x="206" y="298" on="1"/>
      </contour>
      <contour>
        <pt x="204" y="812" on="1"/>
        <pt x="140" y="812" on="0"/>
        <pt x="140" y="876" on="1"/>
        <pt x="140" y="909" on="0"/>
        <pt x="172" y="939" on="0"/>
        <pt x="204" y="939" on="1"/>
        <pt x="236" y="939" on="0"/>
        <pt x="269" y="909" on="0"/>
        <pt x="269" y="876" on="1"/>
        <pt x="269" y="812" on="0"/>
      </contour>
      <contour>
        <pt x="452" y="812" on="1"/>
        <pt x="387" y="812" on="0"/>
        <pt x="387" y="876" on="1"/>
        <pt x="387" y="909" on="0"/>
        <pt x="419" y="939" on="0"/>
        <pt x="452" y="939" on="1"/>
        <pt x="484" y="939" on="0"/>
        <pt x="517" y="909" on="0"/>
        <pt x="517" y="876" on="1"/>
        <pt x="517" y="812" on="0"/>
      </contour>
    </TTGlyph>
    <TTGlyph name="Adieresis.sc" xMin="9" yMin="0" xMax="587" yMax="747">
      <contour>
        <pt x="187" y="631" on="1"/>
        <pt x="127" y="631" on="0"/>
        <pt x="127" y="689" on="1"/>
        <pt x="127" y="747" on="0"/>
        <pt x="187" y="747" on="1"/>
        <pt x="248" y="747" on="0"/>
        <pt x="248" y="689" on="1"/>
        <pt x="248" y="631" on="0"/>
      </contour>
      <contour>
        <pt x="410" y="631" on="1"/>
        <pt x="350" y="631" on="0"/>
        <pt x="350" y="689" on="1"/>
        <pt x="350" y="747" on="0"/>
        <pt x="410" y="747" on="1"/>
        <pt x="471" y="747" on="0"/>
        <pt x="471" y="689" on="1"/>
        <pt x="471" y="631" on="0"/>
      </contour>
      <contour>
        <pt x="9" y="6" on="1"/>
        <pt x="221" y="577" on="1"/>
        <pt x="376" y="577" on="1"/>
        <pt x="587" y="6" on="1"/>
        <pt x="587" y="0" on="1"/>
        <pt x="486" y="0" on="1"/>
        <pt x="428" y="151" on="1"/>
        <pt x="168" y="151" on="1"/>
        <pt x="110" y="0" on="1"/>
        <pt x="9" y="0" on="1"/>
      </contour>
      <contour>
        <pt x="406" y="227" on="1"/>
        <pt x="337" y="408" on="1"/>
        <pt x="302" y="502" on="1"/>
        <pt x="293" y="502" on="1"/>
        <pt x="259" y="407" on="1"/>
        <pt x="190" y="227" on="1"/>
      </contour>
    </TTGlyph>
    <TTGlyph name="Agrave" xMin="5" yMin="0" xMax="651" yMax="952">
      <contour>
        <pt x="5" y="7" on="1"/>
        <pt x="247" y="740" on="1"/>
        <pt x="409" y="740" on="1"/>
        <pt x="651" y="7" on="1"/>
        <pt x="651" y="0" on="1"/>
        <pt x="546" y="0" on="1"/>
        <pt x="476" y="209" on="1"/>
        <pt x="179" y="209" on="1"/>
        <pt x="110" y="0" on="1"/>
        <pt x="5" y="0" on="1"/>
      </contour>
      <contour>
        <pt x="450" y="298" on="1"/>
        <pt x="372" y="532" on="1"/>
        <pt x="332" y="658" on="1"/>
        <pt x="323" y="658" on="1"/>
        <pt x="283" y="532" on="1"/>
        <pt x="206" y="298" on="1"/>
      </contour>
      <contour>
        <pt x="282" y="796" on="1"/>
        <pt x="180" y="952" on="1"/>
        <pt x="291" y="952" on="1"/>
        <pt x="363" y="809" on="1"/>
      </contour>
    </TTGlyph>
    <TTGlyph name="Agrave.sc" xMin="9" yMin="0" xMax="587" yMax="752">
      <contour>
        <pt x="9" y="6" on="1"/>
        <pt x="221" y="577" on="1"/>
        <pt x="376" y="577" on="1"/>
        <pt x="587" y="6" on="1"/>
        <pt x="587" y="0" on="1"/>
        <pt x="486" y="0" on="1"/>
        <pt x="428" y="151" on="1"/>
        <pt x="168" y="151" on="1"/>
        <pt x="110" y="0" on="1"/>
        <pt x="9" y="0" on="1"/>
      </contour>
      <contour>
        <pt x="406" y="227" on="1"/>
        <pt x="337" y="408" on="1"/>
        <pt x="302" y="502" on="1"/>
        <pt x="293" y="502" on="1"/>
        <pt x="259" y="407" on="1"/>
        <pt x="190" y="227" on="1"/>
      </contour>
      <contour>
        <pt x="255" y="622" on="1"/>
        <pt x="163" y="752" on="1"/>
        <pt x="270" y="752" on="1"/>
        <pt x="331" y="632" on="1"/>
      </contour>
    </TTGlyph>
    <TTGlyph name="Ainvertedbreve" xMin="5" yMin="0" xMax="651" yMax="973">
      <contour>
        <pt x="5" y="7" on="1"/>
        <pt x="247" y="740" on="1"/>
        <pt x="409" y="740" on="1"/>
        <pt x="651" y="7" on="1"/>
        <pt x="651" y="0" on="1"/>
        <pt x="546" y="0" on="1"/>
        <pt x="476" y="209" on="1"/>
        <pt x="179" y="209" on="1"/>
        <pt x="110" y="0" on="1"/>
        <pt x="5" y="0" on="1"/>
      </contour>
      <contour>
        <pt x="450" y="298" on="1"/>
        <pt x="372" y="532" on="1"/>
        <pt x="332" y="658" on="1"/>
        <pt x="323" y="658" on="1"/>
        <pt x="283" y="532" on="1"/>
        <pt x="206" y="298" on="1"/>
      </contour>
      <contour>
        <pt x="431" y="817" on="1"/>
        <pt x="431" y="913" on="0"/>
        <pt x="328" y="913" on="1"/>
        <pt x="225" y="913" on="0"/>
        <pt x="225" y="817" on="1"/>
        <pt x="148" y="817" on="1"/>
        <pt x="148" y="888" on="0"/>
        <pt x="237" y="973" on="0"/>
        <pt x="328" y="973" on="1"/>
        <pt x="419" y="973" on="0"/>
        <pt x="509" y="888" on="0"/>
        <pt x="509" y="817" on="1"/>
      </contour>
    </TTGlyph>
    <TTGlyph name="Ainvertedbreve.sc" xMin="9" yMin="0" xMax="587" yMax="764">
      <contour>
        <pt x="137" y="636" on="1"/>
        <pt x="137" y="693" on="0"/>
        <pt x="215" y="764" on="0"/>
        <pt x="299" y="764" on="1"/>
        <pt x="383" y="764" on="0"/>
        <pt x="461" y="694" on="0"/>
        <pt x="461" y="636" on="1"/>
        <pt x="389" y="636" on="1"/>
        <pt x="389" y="673" on="0"/>
        <pt x="346" y="711" on="0"/>
        <pt x="299" y="711" on="1"/>
        <pt x="252" y="711" on="0"/>
        <pt x="209" y="673" on="0"/>
        <pt x="209" y="636" on="1"/>
      </contour>
      <contour>
        <pt x="9" y="6" on="1"/>
        <pt x="221" y="577" on="1"/>
        <pt x="376" y="577" on="1"/>
        <pt x="587" y="6" on="1"/>
        <pt x="587" y="0" on="1"/>
        <pt x="486" y="0" on="1"/>
        <pt x="428" y="151" on="1"/>
        <pt x="168" y="151" on="1"/>
        <pt x="110" y="0" on="1"/>
        <pt x="9" y="0" on="1"/>
      </contour>
      <contour>
        <pt x="406" y="227" on="1"/>
        <pt x="337" y="408" on="1"/>
        <pt x="302" y="502" on="1"/>
        <pt x="293" y="502" on="1"/>
        <pt x="259" y="407" on="1"/>
        <pt x="190" y="227" on="1"/>
      </contour>
    </TTGlyph>
    <TTGlyph name="Amacron" xMin="5" yMin="0" xMax="651" yMax="917">
      <contour>
        <pt x="5" y="7" on="1"/>
        <pt x="247" y="740" on="1"/>
        <pt x="409" y="740" on="1"/>
        <pt x="651" y="7" on="1"/>
        <pt x="651" y="0" on="1"/>
        <pt x="546" y="0" on="1"/>
        <pt x="476" y="209" on="1"/>
        <pt x="179" y="209" on="1"/>
        <pt x="110" y="0" on="1"/>
        <pt x="5" y="0" on="1"/>
      </contour>
      <contour>
        <pt x="450" y="298" on="1"/>
        <pt x="372" y="532" on="1"/>
        <pt x="332" y="658" on="1"/>
        <pt x="323" y="658" on="1"/>
        <pt x="283" y="532" on="1"/>
        <pt x="206" y="298" on="1"/>
      </contour>
      <contour>
        <pt x="167" y="917" on="1"/>
        <pt x="483" y="917" on="1"/>
        <pt x="483" y="841" on="1"/>
        <pt x="167" y="841" on="1"/>
      </contour>
    </TTGlyph>
    <TTGlyph name="Amacron.sc" xMin="9" yMin="0" xMax="587" yMax="726">
      <contour>
        <pt x="9" y="6" on="1"/>
        <pt x="221" y="577" on="1"/>
        <pt x="376" y="577" on="1"/>
        <pt x="587" y="6" on="1"/>
        <pt x="587" y="0" on="1"/>
        <pt x="486" y="0" on="1"/>
        <pt x="428" y="151" on="1"/>
        <pt x="168" y="151" on="1"/>
        <pt x="110" y="0" on="1"/>
        <pt x="9" y="0" on="1"/>
      </contour>
      <contour>
        <pt x="406" y="227" on="1"/>
        <pt x="337" y="408" on="1"/>
        <pt x="302" y="502" on="1"/>
        <pt x="293" y="502" on="1"/>
        <pt x="259" y="407" on="1"/>
        <pt x="190" y="227" on="1"/>
      </contour>
      <contour>
        <pt x="153" y="726" on="1"/>
        <pt x="440" y="726" on="1"/>
        <pt x="440" y="656" on="1"/>
        <pt x="153" y="656" on="1"/>
      </contour>
    </TTGlyph>
    <TTGlyph name="Aogonek" xMin="5" yMin="-220" xMax="651" yMax="740">
      <contour>
        <pt x="578" y="-220" on="1"/>
        <pt x="466" y="-220" on="0"/>
        <pt x="466" y="-132" on="1"/>
        <pt x="466" y="-95" on="0"/>
        <pt x="512" y="-32" on="0"/>
        <pt x="563" y="0" on="1"/>
        <pt x="546" y="0" on="1"/>
        <pt x="476" y="209" on="1"/>
        <pt x="179" y="209" on="1"/>
        <pt x="110" y="0" on="1"/>
        <pt x="5" y="0" on="1"/>
        <pt x="5" y="7" on="1"/>
        <pt x="247" y="740" on="1"/>
        <pt x="409" y="740" on="1"/>
        <pt x="651" y="7" on="1"/>
        <pt x="651" y="-15" on="1"/>
        <pt x="593" y="-40" on="0"/>
        <pt x="540" y="-96" on="0"/>
        <pt x="540" y="-122" on="1"/>
        <pt x="540" y="-155" on="0"/>
        <pt x="583" y="-155" on="1"/>
        <pt x="597" y="-155" on="0"/>
        <pt x="634" y="-148" on="0"/>
        <pt x="651" y="-143" on="1"/>
        <pt x="651" y="-208" on="1"/>
        <pt x="618" y="-220" on="0"/>
      </contour>
      <contour>
        <pt x="450" y="298" on="1"/>
        <pt x="372" y="532" on="1"/>
        <pt x="332" y="658" on="1"/>
        <pt x="323" y="658" on="1"/>
        <pt x="283" y="532" on="1"/>
        <pt x="206" y="298" on="1"/>
      </contour>
    </TTGlyph>
    <TTGlyph name="Aogonek.sc" xMin="8" yMin="-169" xMax="587" yMax="577">
      <contour>
        <pt x="520" y="-169" on="1"/>
        <pt x="419" y="-169" on="0"/>
        <pt x="419" y="-99" on="1"/>
        <pt x="419" y="-72" on="0"/>
        <pt x="455" y="-23" on="0"/>
        <pt x="496" y="0" on="1"/>
        <pt x="486" y="0" on="1"/>
        <pt x="427" y="151" on="1"/>
        <pt x="168" y="151" on="1"/>
        <pt x="109" y="0" on="1"/>
        <pt x="8" y="0" on="1"/>
        <pt x="8" y="6" on="1"/>
        <pt x="220" y="577" on="1"/>
        <pt x="376" y="577" on="1"/>
        <pt x="587" y="6" on="1"/>
        <pt x="587" y="-9" on="1"/>
        <pt x="532" y="-29" on="0"/>
        <pt x="489" y="-67" on="0"/>
        <pt x="489" y="-86" on="1"/>
        <pt x="489" y="-100" on="0"/>
        <pt x="507" y="-110" on="0"/>
        <pt x="524" y="-110" on="1"/>
        <pt x="538" y="-110" on="0"/>
        <pt x="574" y="-105" on="0"/>
        <pt x="587" y="-101" on="1"/>
        <pt x="587" y="-160" on="1"/>
        <pt x="555" y="-169" on="0"/>
      </contour>
      <contour>
        <pt x="404" y="227" on="1"/>
        <pt x="337" y="411" on="1"/>
        <pt x="302" y="502" on="1"/>
        <pt x="292" y="502" on="1"/>
        <pt x="259" y="411" on="1"/>
        <pt x="189" y="227" on="1"/>
      </contour>
    </TTGlyph>
    <TTGlyph name="Aring" xMin="5" yMin="0" xMax="651" yMax="981">
      <contour>
        <pt x="5" y="7" on="1"/>
        <pt x="247" y="740" on="1"/>
        <pt x="409" y="740" on="1"/>
        <pt x="651" y="7" on="1"/>
        <pt x="651" y="0" on="1"/>
        <pt x="546" y="0" on="1"/>
        <pt x="476" y="209" on="1"/>
        <pt x="179" y="209" on="1"/>
        <pt x="110" y="0" on="1"/>
        <pt x="5" y="0" on="1"/>
      </contour>
      <contour>
        <pt x="450" y="298" on="1"/>
        <pt x="372" y="532" on="1"/>
        <pt x="332" y="658" on="1"/>
        <pt x="323" y="658" on="1"/>
        <pt x="283" y="532" on="1"/>
        <pt x="206" y="298" on="1"/>
      </contour>
      <contour>
        <pt x="328" y="763" on="1"/>
        <pt x="276" y="763" on="0"/>
        <pt x="211" y="825" on="0"/>
        <pt x="211" y="872" on="1"/>
        <pt x="211" y="919" on="0"/>
        <pt x="276" y="981" on="0"/>
        <pt x="328" y="981" on="1"/>
        <pt x="380" y="981" on="0"/>
        <pt x="445" y="919" on="0"/>
        <pt x="445" y="872" on="1"/>
        <pt x="445" y="825" on="0"/>
        <pt x="380" y="763" on="0"/>
      </contour>
      <contour>
        <pt x="328" y="811" on="1"/>
        <pt x="393" y="811" on="0"/>
        <pt x="393" y="872" on="1"/>
        <pt x="393" y="901" on="0"/>
        <pt x="361" y="934" on="0"/>
        <pt x="328" y="934" on="1"/>
        <pt x="294" y="934" on="0"/>
        <pt x="263" y="901" on="0"/>
        <pt x="263" y="872" on="1"/>
        <pt x="263" y="811" on="0"/>
      </contour>
    </TTGlyph>
    <TTGlyph name="Aring.sc" xMin="9" yMin="0" xMax="587" yMax="789">
      <contour>
        <pt x="9" y="6" on="1"/>
        <pt x="221" y="577" on="1"/>
        <pt x="376" y="577" on="1"/>
        <pt x="587" y="6" on="1"/>
        <pt x="587" y="0" on="1"/>
        <pt x="486" y="0" on="1"/>
        <pt x="428" y="151" on="1"/>
        <pt x="168" y="151" on="1"/>
        <pt x="110" y="0" on="1"/>
        <pt x="9" y="0" on="1"/>
      </contour>
      <contour>
        <pt x="406" y="227" on="1"/>
        <pt x="337" y="408" on="1"/>
        <pt x="302" y="502" on="1"/>
        <pt x="293" y="502" on="1"/>
        <pt x="259" y="407" on="1"/>
        <pt x="190" y="227" on="1"/>
      </contour>
      <contour>
        <pt x="299" y="616" on="1"/>
        <pt x="252" y="616" on="0"/>
        <pt x="194" y="664" on="0"/>
        <pt x="194" y="702" on="1"/>
        <pt x="194" y="740" on="0"/>
        <pt x="252" y="789" on="0"/>
        <pt x="299" y="789" on="1"/>
        <pt x="345" y="789" on="0"/>
        <pt x="403" y="740" on="0"/>
        <pt x="403" y="702" on="1"/>
        <pt x="403" y="664" on="0"/>
        <pt x="345" y="616" on="0"/>
      </contour>
      <contour>
        <pt x="299" y="656" on="1"/>
        <pt x="355" y="656" on="0"/>
        <pt x="355" y="702" on="1"/>
        <pt x="355" y="748" on="0"/>
        <pt x="299" y="748" on="1"/>
        <pt x="241" y="748" on="0"/>
        <pt x="241" y="702" on="1"/>
        <pt x="241" y="656" on="0"/>
      </contour>
    </TTGlyph>
    <TTGlyph name="Aringacute" xMin="5" yMin="0" xMax="651" yMax="974">
      <contour>
        <pt x="5" y="7" on="1"/>
        <pt x="223" y="661" on="1"/>
        <pt x="185" y="693" on="0"/>
        <pt x="185" y="746" on="1"/>
        <pt x="185" y="794" on="0"/>
        <pt x="244" y="860" on="0"/>
        <pt x="295" y="868" on="1"/>
        <pt x="351" y="974" on="1"/>
        <pt x="462" y="974" on="1"/>
        <pt x="387" y="860" on="1"/>
        <pt x="425" y="847" on="0"/>
        <pt x="470" y="786" on="0"/>
        <pt x="470" y="746" on="1"/>
        <pt x="470" y="720" on="0"/>
        <pt x="450" y="677" on="0"/>
        <pt x="433" y="662" on="1"/>
        <pt x="651" y="7" on="1"/>
        <pt x="651" y="0" on="1"/>
        <pt x="546" y="0" on="1"/>
        <pt x="477" y="208" on="1"/>
        <pt x="179" y="208" on="1"/>
        <pt x="110" y="0" on="1"/>
        <pt x="5" y="0" on="1"/>
      </contour>
      <contour>
        <pt x="327" y="681" on="1"/>
        <pt x="361" y="681" on="0"/>
        <pt x="401" y="717" on="0"/>
        <pt x="401" y="746" on="1"/>
        <pt x="401" y="776" on="0"/>
        <pt x="361" y="812" on="0"/>
        <pt x="327" y="812" on="1"/>
        <pt x="293" y="812" on="0"/>
        <pt x="255" y="776" on="0"/>
        <pt x="255" y="746" on="1"/>
        <pt x="255" y="717" on="0"/>
        <pt x="293" y="681" on="0"/>
      </contour>
      <contour>
        <pt x="449" y="300" on="1"/>
        <pt x="373" y="532" on="1"/>
        <pt x="347" y="617" on="1"/>
        <pt x="309" y="617" on="1"/>
        <pt x="282" y="532" on="1"/>
        <pt x="206" y="300" on="1"/>
      </contour>
    </TTGlyph>
    <TTGlyph name="Aringacute.sc" xMin="9" yMin="0" xMax="588" yMax="771">
      <contour>
        <pt x="9" y="6" on="1"/>
        <pt x="201" y="519" on="1"/>
        <pt x="168" y="546" on="0"/>
        <pt x="168" y="585" on="1"/>
        <pt x="168" y="624" on="0"/>
        <pt x="221" y="678" on="0"/>
        <pt x="267" y="685" on="1"/>
        <pt x="316" y="771" on="1"/>
        <pt x="421" y="771" on="1"/>
        <pt x="354" y="677" on="1"/>
        <pt x="389" y="666" on="0"/>
        <pt x="428" y="617" on="0"/>
        <pt x="428" y="585" on="1"/>
        <pt x="428" y="545" on="0"/>
        <pt x="396" y="519" on="1"/>
        <pt x="588" y="6" on="1"/>
        <pt x="588" y="0" on="1"/>
        <pt x="487" y="0" on="1"/>
        <pt x="428" y="151" on="1"/>
        <pt x="168" y="151" on="1"/>
        <pt x="110" y="0" on="1"/>
        <pt x="9" y="0" on="1"/>
      </contour>
      <contour>
        <pt x="298" y="535" on="1"/>
        <pt x="328" y="535" on="0"/>
        <pt x="363" y="563" on="0"/>
        <pt x="363" y="585" on="1"/>
        <pt x="363" y="608" on="0"/>
        <pt x="328" y="635" on="0"/>
        <pt x="298" y="635" on="1"/>
        <pt x="267" y="635" on="0"/>
        <pt x="233" y="608" on="0"/>
        <pt x="233" y="585" on="1"/>
        <pt x="233" y="562" on="0"/>
        <pt x="268" y="535" on="0"/>
      </contour>
      <contour>
        <pt x="406" y="227" on="1"/>
        <pt x="337" y="408" on="1"/>
        <pt x="314" y="477" on="1"/>
        <pt x="282" y="477" on="1"/>
        <pt x="259" y="407" on="1"/>
        <pt x="191" y="227" on="1"/>
      </contour>
    </TTGlyph>
    <TTGlyph name="Atilde" xMin="5" yMin="0" xMax="651" yMax="940">
      <contour>
        <pt x="5" y="7" on="1"/>
        <pt x="247" y="740" on="1"/>
        <pt x="409" y="740" on="1"/>
        <pt x="651" y="7" on="1"/>
        <pt x="651" y="0" on="1"/>
        <pt x="546" y="0" on="1"/>
        <pt x="476" y="209" on="1"/>
        <pt x="179" y="209" on="1"/>
        <pt x="110" y="0" on="1"/>
        <pt x="5" y="0" on="1"/>
      </contour>
      <contour>
        <pt x="450" y="298" on="1"/>
        <pt x="372" y="532" on="1"/>
        <pt x="332" y="658" on="1"/>
        <pt x="323" y="658" on="1"/>
        <pt x="283" y="532" on="1"/>
        <pt x="206" y="298" on="1"/>
      </contour>
      <contour>
        <pt x="138" y="854" on="1"/>
        <pt x="164" y="896" on="0"/>
        <pt x="232" y="940" on="0"/>
        <pt x="265" y="940" on="1"/>
        <pt x="287" y="940" on="0"/>
        <pt x="328" y="927" on="0"/>
        <pt x="367" y="912" on="0"/>
        <pt x="406" y="899" on="0"/>
        <pt x="427" y="899" on="1"/>
        <pt x="469" y="899" on="0"/>
        <pt x="509" y="938" on="1"/>
        <pt x="533" y="912" on="1"/>
        <pt x="508" y="870" on="0"/>
        <pt x="439" y="825" on="0"/>
        <pt x="405" y="825" on="1"/>
        <pt x="384" y="825" on="0"/>
        <pt x="343" y="837" on="0"/>
        <pt x="304" y="852" on="0"/>
        <pt x="265" y="865" on="0"/>
        <pt x="244" y="865" on="1"/>
        <pt x="223" y="865" on="0"/>
        <pt x="182" y="848" on="0"/>
        <pt x="161" y="828" on="1"/>
      </contour>
    </TTGlyph>
    <TTGlyph name="Atilde.sc" xMin="9" yMin="0" xMax="587" yMax="743">
      <contour>
        <pt x="9" y="6" on="1"/>
        <pt x="221" y="577" on="1"/>
        <pt x="376" y="577" on="1"/>
        <pt x="587" y="6" on="1"/>
        <pt x="587" y="0" on="1"/>
        <pt x="486" y="0" on="1"/>
        <pt x="428" y="151" on="1"/>
        <pt x="168" y="151" on="1"/>
        <pt x="110" y="0" on="1"/>
        <pt x="9" y="0" on="1"/>
      </contour>
      <contour>
        <pt x="406" y="227" on="1"/>
        <pt x="337" y="408" on="1"/>
        <pt x="302" y="502" on="1"/>
        <pt x="293" y="502" on="1"/>
        <pt x="259" y="407" on="1"/>
        <pt x="190" y="227" on="1"/>
      </contour>
      <contour>
        <pt x="127" y="666" on="1"/>
        <pt x="151" y="704" on="0"/>
        <pt x="213" y="743" on="0"/>
        <pt x="243" y="743" on="1"/>
        <pt x="263" y="743" on="0"/>
        <pt x="299" y="733" on="0"/>
        <pt x="334" y="722" on="0"/>
        <pt x="369" y="712" on="0"/>
        <pt x="388" y="712" on="1"/>
        <pt x="408" y="712" on="0"/>
        <pt x="443" y="726" on="0"/>
        <pt x="463" y="742" on="1"/>
        <pt x="484" y="721" on="1"/>
        <pt x="461" y="683" on="0"/>
        <pt x="397" y="643" on="0"/>
        <pt x="367" y="643" on="1"/>
        <pt x="348" y="643" on="0"/>
        <pt x="311" y="653" on="0"/>
        <pt x="275" y="664" on="0"/>
        <pt x="240" y="674" on="0"/>
        <pt x="222" y="674" on="1"/>
        <pt x="202" y="674" on="0"/>
        <pt x="167" y="661" on="0"/>
        <pt x="147" y="644" on="1"/>
      </contour>
    </TTGlyph>
    <TTGlyph name="B" xMin="79" yMin="-10" xMax="601" yMax="750">
      <contour>
        <pt x="312" y="-10" on="1"/>
        <pt x="257" y="-10" on="0"/>
        <pt x="136" y="-3" on="0"/>
        <pt x="79" y="5" on="1"/>
        <pt x="79" y="735" on="1"/>
        <pt x="149" y="742" on="0"/>
        <pt x="252" y="750" on="0"/>
        <pt x="300" y="750" on="1"/>
        <pt x="446" y="750" on="0"/>
        <pt x="578" y="653" on="0"/>
        <pt x="578" y="547" on="1"/>
        <pt x="578" y="481" on="0"/>
        <pt x="514" y="394" on="0"/>
        <pt x="456" y="380" on="1"/>
        <pt x="456" y="376" on="1"/>
        <pt x="526" y="363" on="0"/>
        <pt x="601" y="271" on="0"/>
        <pt x="601" y="197" on="1"/>
        <pt x="601" y="-10" on="0"/>
      </contour>
      <contour>
        <pt x="316" y="72" on="1"/>
        <pt x="491" y="73" on="0"/>
        <pt x="491" y="204" on="1"/>
        <pt x="491" y="273" on="0"/>
        <pt x="409" y="335" on="0"/>
        <pt x="317" y="335" on="1"/>
        <pt x="182" y="335" on="1"/>
        <pt x="182" y="80" on="1"/>
        <pt x="222" y="72" on="0"/>
      </contour>
      <contour>
        <pt x="312" y="413" on="1"/>
        <pt x="397" y="413" on="0"/>
        <pt x="468" y="471" on="0"/>
        <pt x="468" y="541" on="1"/>
        <pt x="468" y="608" on="0"/>
        <pt x="393" y="667" on="0"/>
        <pt x="307" y="667" on="1"/>
        <pt x="270" y="667" on="0"/>
        <pt x="211" y="664" on="0"/>
        <pt x="182" y="659" on="1"/>
        <pt x="182" y="413" on="1"/>
      </contour>
    </TTGlyph>
    <TTGlyph name="B.sc" xMin="74" yMin="-8" xMax="542" yMax="585">
      <contour>
        <pt x="286" y="-8" on="1"/>
        <pt x="235" y="-8" on="0"/>
        <pt x="128" y="-2" on="0"/>
        <pt x="74" y="4" on="1"/>
        <pt x="74" y="573" on="1"/>
        <pt x="137" y="579" on="0"/>
        <pt x="230" y="585" on="0"/>
        <pt x="274" y="585" on="1"/>
        <pt x="404" y="585" on="0"/>
        <pt x="522" y="508" on="0"/>
        <pt x="522" y="425" on="1"/>
        <pt x="522" y="374" on="0"/>
        <pt x="466" y="308" on="0"/>
        <pt x="413" y="297" on="1"/>
        <pt x="413" y="294" on="1"/>
        <pt x="476" y="283" on="0"/>
        <pt x="542" y="212" on="0"/>
        <pt x="542" y="155" on="1"/>
        <pt x="542" y="-8" on="0"/>
      </contour>
      <contour>
        <pt x="289" y="67" on="1"/>
        <pt x="366" y="67" on="0"/>
        <pt x="439" y="114" on="0"/>
        <pt x="439" y="163" on="1"/>
        <pt x="439" y="213" on="0"/>
        <pt x="370" y="257" on="0"/>
        <pt x="292" y="257" on="1"/>
        <pt x="173" y="257" on="1"/>
        <pt x="173" y="73" on="1"/>
        <pt x="206" y="67" on="0"/>
      </contour>
      <contour>
        <pt x="286" y="326" on="1"/>
        <pt x="359" y="326" on="0"/>
        <pt x="419" y="368" on="0"/>
        <pt x="419" y="419" on="1"/>
        <pt x="419" y="467" on="0"/>
        <pt x="355" y="509" on="0"/>
        <pt x="281" y="509" on="1"/>
        <pt x="249" y="509" on="0"/>
        <pt x="197" y="507" on="0"/>
        <pt x="173" y="503" on="1"/>
        <pt x="173" y="326" on="1"/>
      </contour>
    </TTGlyph>
    <TTGlyph name="C" xMin="45" yMin="-10" xMax="525" yMax="750">
      <contour>
        <pt x="377" y="-10" on="1"/>
        <pt x="208" y="-9" on="0"/>
        <pt x="45" y="175" on="0"/>
        <pt x="45" y="369" on="1"/>
        <pt x="45" y="565" on="0"/>
        <pt x="206" y="750" on="0"/>
        <pt x="373" y="750" on="1"/>
        <pt x="405" y="750" on="0"/>
        <pt x="483" y="742" on="0"/>
        <pt x="525" y="735" on="1"/>
        <pt x="525" y="644" on="1"/>
        <pt x="483" y="652" on="0"/>
        <pt x="416" y="658" on="0"/>
        <pt x="387" y="658" on="1"/>
        <pt x="325" y="658" on="0"/>
        <pt x="238" y="627" on="0"/>
        <pt x="183" y="558" on="0"/>
        <pt x="157" y="448" on="0"/>
        <pt x="157" y="369" on="1"/>
        <pt x="157" y="292" on="0"/>
        <pt x="183" y="183" on="0"/>
        <pt x="238" y="114" on="0"/>
        <pt x="323" y="82" on="0"/>
        <pt x="382" y="82" on="1"/>
        <pt x="396" y="82" on="0"/>
        <pt x="434" y="84" on="0"/>
        <pt x="473" y="89" on="0"/>
        <pt x="511" y="94" on="0"/>
        <pt x="525" y="97" on="1"/>
        <pt x="525" y="8" on="1"/>
        <pt x="494" y="0" on="0"/>
        <pt x="414" y="-10" on="0"/>
      </contour>
    </TTGlyph>
    <TTGlyph name="C.sc" xMin="44" yMin="-8" xMax="471" yMax="585">
      <contour>
        <pt x="339" y="-8" on="1"/>
        <pt x="189" y="-8" on="0"/>
        <pt x="44" y="137" on="0"/>
        <pt x="44" y="288" on="1"/>
        <pt x="44" y="440" on="0"/>
        <pt x="188" y="585" on="0"/>
        <pt x="335" y="585" on="1"/>
        <pt x="365" y="585" on="0"/>
        <pt x="435" y="579" on="0"/>
        <pt x="471" y="573" on="1"/>
        <pt x="471" y="489" on="1"/>
        <pt x="436" y="494" on="0"/>
        <pt x="376" y="499" on="0"/>
        <pt x="348" y="499" on="1"/>
        <pt x="295" y="499" on="0"/>
        <pt x="220" y="477" on="0"/>
        <pt x="173" y="427" on="0"/>
        <pt x="152" y="346" on="0"/>
        <pt x="152" y="288" on="1"/>
        <pt x="152" y="231" on="0"/>
        <pt x="173" y="151" on="0"/>
        <pt x="219" y="101" on="0"/>
        <pt x="292" y="79" on="0"/>
        <pt x="344" y="79" on="1"/>
        <pt x="357" y="79" on="0"/>
        <pt x="390" y="81" on="0"/>
        <pt x="425" y="84" on="0"/>
        <pt x="459" y="88" on="0"/>
        <pt x="471" y="91" on="1"/>
        <pt x="471" y="7" on="1"/>
        <pt x="445" y="0" on="0"/>
        <pt x="373" y="-8" on="0"/>
      </contour>
    </TTGlyph>
    <TTGlyph name="Cacute" xMin="45" yMin="-10" xMax="525" yMax="952">
      <contour>
        <pt x="377" y="-10" on="1"/>
        <pt x="208" y="-9" on="0"/>
        <pt x="45" y="175" on="0"/>
        <pt x="45" y="369" on="1"/>
        <pt x="45" y="565" on="0"/>
        <pt x="206" y="750" on="0"/>
        <pt x="373" y="750" on="1"/>
        <pt x="405" y="750" on="0"/>
        <pt x="483" y="742" on="0"/>
        <pt x="525" y="735" on="1"/>
        <pt x="525" y="644" on="1"/>
        <pt x="483" y="652" on="0"/>
        <pt x="416" y="658" on="0"/>
        <pt x="387" y="658" on="1"/>
        <pt x="325" y="658" on="0"/>
        <pt x="238" y="627" on="0"/>
        <pt x="183" y="558" on="0"/>
        <pt x="157" y="448" on="0"/>
        <pt x="157" y="369" on="1"/>
        <pt x="157" y="292" on="0"/>
        <pt x="183" y="183" on="0"/>
        <pt x="238" y="114" on="0"/>
        <pt x="323" y="82" on="0"/>
        <pt x="382" y="82" on="1"/>
        <pt x="396" y="82" on="0"/>
        <pt x="434" y="84" on="0"/>
        <pt x="473" y="89" on="0"/>
        <pt x="511" y="94" on="0"/>
        <pt x="525" y="97" on="1"/>
        <pt x="525" y="8" on="1"/>
        <pt x="494" y="0" on="0"/>
        <pt x="414" y="-10" on="0"/>
      </contour>
      <contour>
        <pt x="283" y="803" on="1"/>
        <pt x="355" y="952" on="1"/>
        <pt x="466" y="952" on="1"/>
        <pt x="364" y="796" on="1"/>
      </contour>
    </TTGlyph>
    <TTGlyph name="Cacute.sc" xMin="44" yMin="-8" xMax="471" yMax="752">
      <contour>
        <pt x="339" y="-8" on="1"/>
        <pt x="189" y="-8" on="0"/>
        <pt x="44" y="137" on="0"/>
        <pt x="44" y="288" on="1"/>
        <pt x="44" y="440" on="0"/>
        <pt x="188" y="585" on="0"/>
        <pt x="335" y="585" on="1"/>
        <pt x="363" y="585" on="0"/>
        <pt x="433" y="579" on="0"/>
        <pt x="471" y="573" on="1"/>
        <pt x="471" y="489" on="1"/>
        <pt x="432" y="494" on="0"/>
        <pt x="373" y="499" on="0"/>
        <pt x="347" y="499" on="1"/>
        <pt x="294" y="499" on="0"/>
        <pt x="220" y="477" on="0"/>
        <pt x="174" y="428" on="0"/>
        <pt x="152" y="347" on="0"/>
        <pt x="152" y="288" on="1"/>
        <pt x="152" y="230" on="0"/>
        <pt x="173" y="150" on="0"/>
        <pt x="220" y="101" on="0"/>
        <pt x="293" y="79" on="0"/>
        <pt x="344" y="79" on="1"/>
        <pt x="357" y="79" on="0"/>
        <pt x="390" y="81" on="0"/>
        <pt x="425" y="84" on="0"/>
        <pt x="459" y="88" on="0"/>
        <pt x="471" y="91" on="1"/>
        <pt x="471" y="7" on="1"/>
        <pt x="444" y="0" on="0"/>
        <pt x="372" y="-8" on="0"/>
      </contour>
      <contour>
        <pt x="251" y="628" on="1"/>
        <pt x="314" y="752" on="1"/>
        <pt x="420" y="752" on="1"/>
        <pt x="328" y="622" on="1"/>
      </contour>
    </TTGlyph>
    <TTGlyph name="Ccaron" xMin="45" yMin="-10" xMax="525" yMax="956">
      <contour>
        <pt x="377" y="-10" on="1"/>
        <pt x="208" y="-9" on="0"/>
        <pt x="45" y="175" on="0"/>
        <pt x="45" y="369" on="1"/>
        <pt x="45" y="565" on="0"/>
        <pt x="206" y="750" on="0"/>
        <pt x="373" y="750" on="1"/>
        <pt x="405" y="750" on="0"/>
        <pt x="483" y="742" on="0"/>
        <pt x="525" y="735" on="1"/>
        <pt x="525" y="644" on="1"/>
        <pt x="483" y="652" on="0"/>
        <pt x="416" y="658" on="0"/>
        <pt x="387" y="658" on="1"/>
        <pt x="325" y="658" on="0"/>
        <pt x="238" y="627" on="0"/>
        <pt x="183" y="558" on="0"/>
        <pt x="157" y="448" on="0"/>
        <pt x="157" y="369" on="1"/>
        <pt x="157" y="292" on="0"/>
        <pt x="183" y="183" on="0"/>
        <pt x="238" y="114" on="0"/>
        <pt x="323" y="82" on="0"/>
        <pt x="382" y="82" on="1"/>
        <pt x="396" y="82" on="0"/>
        <pt x="434" y="84" on="0"/>
        <pt x="473" y="89" on="0"/>
        <pt x="511" y="94" on="0"/>
        <pt x="525" y="97" on="1"/>
        <pt x="525" y="8" on="1"/>
        <pt x="494" y="0" on="0"/>
        <pt x="414" y="-10" on="0"/>
      </contour>
      <contour>
        <pt x="168" y="956" on="1"/>
        <pt x="332" y="882" on="1"/>
        <pt x="496" y="956" on="1"/>
        <pt x="496" y="875" on="1"/>
        <pt x="331" y="802" on="1"/>
        <pt x="168" y="875" on="1"/>
      </contour>
    </TTGlyph>
    <TTGlyph name="Ccaron.sc" xMin="44" yMin="-8" xMax="471" yMax="755">
      <contour>
        <pt x="339" y="-8" on="1"/>
        <pt x="189" y="-8" on="0"/>
        <pt x="44" y="137" on="0"/>
        <pt x="44" y="288" on="1"/>
        <pt x="44" y="440" on="0"/>
        <pt x="188" y="585" on="0"/>
        <pt x="335" y="585" on="1"/>
        <pt x="363" y="585" on="0"/>
        <pt x="433" y="579" on="0"/>
        <pt x="471" y="573" on="1"/>
        <pt x="471" y="489" on="1"/>
        <pt x="432" y="494" on="0"/>
        <pt x="373" y="499" on="0"/>
        <pt x="347" y="499" on="1"/>
        <pt x="294" y="499" on="0"/>
        <pt x="220" y="477" on="0"/>
        <pt x="174" y="428" on="0"/>
        <pt x="152" y="347" on="0"/>
        <pt x="152" y="288" on="1"/>
        <pt x="152" y="230" on="0"/>
        <pt x="173" y="150" on="0"/>
        <pt x="220" y="101" on="0"/>
        <pt x="293" y="79" on="0"/>
        <pt x="344" y="79" on="1"/>
        <pt x="357" y="79" on="0"/>
        <pt x="390" y="81" on="0"/>
        <pt x="425" y="84" on="0"/>
        <pt x="459" y="88" on="0"/>
        <pt x="471" y="91" on="1"/>
        <pt x="471" y="7" on="1"/>
        <pt x="444" y="0" on="0"/>
        <pt x="372" y="-8" on="0"/>
      </contour>
      <contour>
        <pt x="150" y="755" on="1"/>
        <pt x="298" y="697" on="1"/>
        <pt x="446" y="755" on="1"/>
        <pt x="446" y="683" on="1"/>
        <pt x="297" y="624" on="1"/>
        <pt x="150" y="683" on="1"/>
      </contour>
    </TTGlyph>
    <TTGlyph name="Ccedilla" xMin="45" yMin="-220" xMax="525" yMax="750">
      <contour>
        <pt x="301" y="-220" on="1"/>
        <pt x="282" y="-220" on="0"/>
        <pt x="237" y="-213" on="0"/>
        <pt x="215" y="-208" on="1"/>
        <pt x="215" y="-139" on="1"/>
        <pt x="230" y="-144" on="0"/>
        <pt x="266" y="-150" on="0"/>
        <pt x="282" y="-150" on="1"/>
        <pt x="314" y="-150" on="0"/>
        <pt x="343" y="-124" on="0"/>
        <pt x="343" y="-98" on="1"/>
        <pt x="343" y="-78" on="0"/>
        <pt x="327" y="-33" on="0"/>
        <pt x="309" y="-5" on="1"/>
        <pt x="175" y="12" on="0"/>
        <pt x="45" y="196" on="0"/>
        <pt x="45" y="369" on="1"/>
        <pt x="45" y="565" on="0"/>
        <pt x="206" y="750" on="0"/>
        <pt x="373" y="750" on="1"/>
        <pt x="405" y="750" on="0"/>
        <pt x="483" y="742" on="0"/>
        <pt x="525" y="735" on="1"/>
        <pt x="525" y="644" on="1"/>
        <pt x="483" y="652" on="0"/>
        <pt x="416" y="658" on="0"/>
        <pt x="387" y="658" on="1"/>
        <pt x="325" y="658" on="0"/>
        <pt x="238" y="627" on="0"/>
        <pt x="183" y="558" on="0"/>
        <pt x="157" y="448" on="0"/>
        <pt x="157" y="369" on="1"/>
        <pt x="157" y="292" on="0"/>
        <pt x="183" y="183" on="0"/>
        <pt x="238" y="114" on="0"/>
        <pt x="323" y="82" on="0"/>
        <pt x="382" y="82" on="1"/>
        <pt x="396" y="82" on="0"/>
        <pt x="434" y="84" on="0"/>
        <pt x="473" y="89" on="0"/>
        <pt x="511" y="94" on="0"/>
        <pt x="525" y="97" on="1"/>
        <pt x="525" y="8" on="1"/>
        <pt x="496" y="1" on="0"/>
        <pt x="421" y="-9" on="0"/>
        <pt x="386" y="-10" on="1"/>
        <pt x="405" y="-40" on="0"/>
        <pt x="419" y="-86" on="0"/>
        <pt x="419" y="-110" on="1"/>
        <pt x="419" y="-162" on="0"/>
        <pt x="358" y="-220" on="0"/>
      </contour>
    </TTGlyph>
    <TTGlyph name="Ccedilla.sc" xMin="44" yMin="-172" xMax="471" yMax="585">
      <contour>
        <pt x="274" y="-172" on="1"/>
        <pt x="257" y="-172" on="0"/>
        <pt x="217" y="-167" on="0"/>
        <pt x="196" y="-162" on="1"/>
        <pt x="196" y="-100" on="1"/>
        <pt x="230" y="-108" on="0"/>
        <pt x="258" y="-108" on="1"/>
        <pt x="286" y="-108" on="0"/>
        <pt x="308" y="-89" on="0"/>
        <pt x="308" y="-70" on="1"/>
        <pt x="308" y="-45" on="0"/>
        <pt x="282" y="-5" on="1"/>
        <pt x="44" y="19" on="0"/>
        <pt x="44" y="288" on="1"/>
        <pt x="44" y="440" on="0"/>
        <pt x="188" y="585" on="0"/>
        <pt x="335" y="585" on="1"/>
        <pt x="363" y="585" on="0"/>
        <pt x="433" y="579" on="0"/>
        <pt x="471" y="573" on="1"/>
        <pt x="471" y="489" on="1"/>
        <pt x="432" y="494" on="0"/>
        <pt x="373" y="499" on="0"/>
        <pt x="348" y="499" on="1"/>
        <pt x="295" y="499" on="0"/>
        <pt x="221" y="477" on="0"/>
        <pt x="174" y="428" on="0"/>
        <pt x="152" y="347" on="0"/>
        <pt x="152" y="288" on="1"/>
        <pt x="152" y="230" on="0"/>
        <pt x="173" y="150" on="0"/>
        <pt x="220" y="101" on="0"/>
        <pt x="293" y="79" on="0"/>
        <pt x="344" y="79" on="1"/>
        <pt x="357" y="79" on="0"/>
        <pt x="390" y="81" on="0"/>
        <pt x="425" y="84" on="0"/>
        <pt x="459" y="88" on="0"/>
        <pt x="471" y="91" on="1"/>
        <pt x="471" y="7" on="1"/>
        <pt x="446" y="1" on="0"/>
        <pt x="382" y="-7" on="0"/>
        <pt x="353" y="-8" on="1"/>
        <pt x="367" y="-31" on="0"/>
        <pt x="379" y="-67" on="0"/>
        <pt x="379" y="-84" on="1"/>
        <pt x="379" y="-126" on="0"/>
        <pt x="325" y="-172" on="0"/>
      </contour>
    </TTGlyph>
    <TTGlyph name="Ccircumflex" xMin="45" yMin="-10" xMax="525" yMax="962">
      <contour>
        <pt x="377" y="-10" on="1"/>
        <pt x="208" y="-9" on="0"/>
        <pt x="45" y="175" on="0"/>
        <pt x="45" y="369" on="1"/>
        <pt x="45" y="565" on="0"/>
        <pt x="206" y="750" on="0"/>
        <pt x="373" y="750" on="1"/>
        <pt x="405" y="750" on="0"/>
        <pt x="483" y="742" on="0"/>
        <pt x="525" y="735" on="1"/>
        <pt x="525" y="644" on="1"/>
        <pt x="483" y="652" on="0"/>
        <pt x="416" y="658" on="0"/>
        <pt x="387" y="658" on="1"/>
        <pt x="325" y="658" on="0"/>
        <pt x="238" y="627" on="0"/>
        <pt x="183" y="558" on="0"/>
        <pt x="157" y="448" on="0"/>
        <pt x="157" y="369" on="1"/>
        <pt x="157" y="292" on="0"/>
        <pt x="183" y="183" on="0"/>
        <pt x="238" y="114" on="0"/>
        <pt x="323" y="82" on="0"/>
        <pt x="382" y="82" on="1"/>
        <pt x="396" y="82" on="0"/>
        <pt x="434" y="84" on="0"/>
        <pt x="473" y="89" on="0"/>
        <pt x="511" y="94" on="0"/>
        <pt x="525" y="97" on="1"/>
        <pt x="525" y="8" on="1"/>
        <pt x="494" y="0" on="0"/>
        <pt x="414" y="-10" on="0"/>
      </contour>
      <contour>
        <pt x="165" y="888" on="1"/>
        <pt x="329" y="962" on="1"/>
        <pt x="493" y="888" on="1"/>
        <pt x="493" y="807" on="1"/>
        <pt x="329" y="881" on="1"/>
        <pt x="165" y="807" on="1"/>
      </contour>
    </TTGlyph>
    <TTGlyph name="Ccircumflex.sc" xMin="44" yMin="-8" xMax="471" yMax="758">
      <contour>
        <pt x="339" y="-8" on="1"/>
        <pt x="189" y="-8" on="0"/>
        <pt x="44" y="137" on="0"/>
        <pt x="44" y="288" on="1"/>
        <pt x="44" y="440" on="0"/>
        <pt x="188" y="585" on="0"/>
        <pt x="335" y="585" on="1"/>
        <pt x="363" y="585" on="0"/>
        <pt x="433" y="579" on="0"/>
        <pt x="471" y="573" on="1"/>
        <pt x="471" y="489" on="1"/>
        <pt x="432" y="494" on="0"/>
        <pt x="373" y="499" on="0"/>
        <pt x="347" y="499" on="1"/>
        <pt x="294" y="499" on="0"/>
        <pt x="220" y="477" on="0"/>
        <pt x="174" y="428" on="0"/>
        <pt x="152" y="347" on="0"/>
        <pt x="152" y="288" on="1"/>
        <pt x="152" y="230" on="0"/>
        <pt x="173" y="150" on="0"/>
        <pt x="220" y="101" on="0"/>
        <pt x="293" y="79" on="0"/>
        <pt x="344" y="79" on="1"/>
        <pt x="357" y="79" on="0"/>
        <pt x="390" y="81" on="0"/>
        <pt x="425" y="84" on="0"/>
        <pt x="459" y="88" on="0"/>
        <pt x="471" y="91" on="1"/>
        <pt x="471" y="7" on="1"/>
        <pt x="444" y="0" on="0"/>
        <pt x="372" y="-8" on="0"/>
      </contour>
      <contour>
        <pt x="147" y="700" on="1"/>
        <pt x="294" y="758" on="1"/>
        <pt x="443" y="700" on="1"/>
        <pt x="443" y="627" on="1"/>
        <pt x="295" y="685" on="1"/>
        <pt x="147" y="627" on="1"/>
      </contour>
    </TTGlyph>
    <TTGlyph name="Cdotaccent" xMin="45" yMin="-10" xMax="525" yMax="933">
      <contour>
        <pt x="335" y="806" on="1"/>
        <pt x="302" y="806" on="0"/>
        <pt x="270" y="836" on="0"/>
        <pt x="270" y="869" on="1"/>
        <pt x="270" y="903" on="0"/>
        <pt x="302" y="933" on="0"/>
        <pt x="335" y="933" on="1"/>
        <pt x="400" y="933" on="0"/>
        <pt x="400" y="869" on="1"/>
        <pt x="400" y="806" on="0"/>
      </contour>
      <contour>
        <pt x="377" y="-10" on="1"/>
        <pt x="208" y="-9" on="0"/>
        <pt x="45" y="175" on="0"/>
        <pt x="45" y="369" on="1"/>
        <pt x="45" y="565" on="0"/>
        <pt x="206" y="750" on="0"/>
        <pt x="373" y="750" on="1"/>
        <pt x="405" y="750" on="0"/>
        <pt x="483" y="742" on="0"/>
        <pt x="525" y="735" on="1"/>
        <pt x="525" y="644" on="1"/>
        <pt x="483" y="652" on="0"/>
        <pt x="416" y="658" on="0"/>
        <pt x="387" y="658" on="1"/>
        <pt x="325" y="658" on="0"/>
        <pt x="238" y="627" on="0"/>
        <pt x="183" y="558" on="0"/>
        <pt x="157" y="448" on="0"/>
        <pt x="157" y="369" on="1"/>
        <pt x="157" y="292" on="0"/>
        <pt x="183" y="183" on="0"/>
        <pt x="238" y="114" on="0"/>
        <pt x="323" y="82" on="0"/>
        <pt x="382" y="82" on="1"/>
        <pt x="396" y="82" on="0"/>
        <pt x="434" y="84" on="0"/>
        <pt x="473" y="89" on="0"/>
        <pt x="511" y="94" on="0"/>
        <pt x="525" y="97" on="1"/>
        <pt x="525" y="8" on="1"/>
        <pt x="494" y="0" on="0"/>
        <pt x="414" y="-10" on="0"/>
      </contour>
    </TTGlyph>
    <TTGlyph name="Cdotaccent.sc" xMin="44" yMin="-8" xMax="471" yMax="743">
      <contour>
        <pt x="339" y="-8" on="1"/>
        <pt x="189" y="-8" on="0"/>
        <pt x="44" y="137" on="0"/>
        <pt x="44" y="288" on="1"/>
        <pt x="44" y="440" on="0"/>
        <pt x="188" y="585" on="0"/>
        <pt x="335" y="585" on="1"/>
        <pt x="363" y="585" on="0"/>
        <pt x="433" y="579" on="0"/>
        <pt x="471" y="573" on="1"/>
        <pt x="471" y="489" on="1"/>
        <pt x="432" y="494" on="0"/>
        <pt x="373" y="499" on="0"/>
        <pt x="347" y="499" on="1"/>
        <pt x="294" y="499" on="0"/>
        <pt x="220" y="477" on="0"/>
        <pt x="174" y="428" on="0"/>
        <pt x="152" y="347" on="0"/>
        <pt x="152" y="288" on="1"/>
        <pt x="152" y="230" on="0"/>
        <pt x="173" y="150" on="0"/>
        <pt x="220" y="101" on="0"/>
        <pt x="293" y="79" on="0"/>
        <pt x="344" y="79" on="1"/>
        <pt x="357" y="79" on="0"/>
        <pt x="390" y="81" on="0"/>
        <pt x="425" y="84" on="0"/>
        <pt x="459" y="88" on="0"/>
        <pt x="471" y="91" on="1"/>
        <pt x="471" y="7" on="1"/>
        <pt x="444" y="0" on="0"/>
        <pt x="372" y="-8" on="0"/>
      </contour>
      <contour>
        <pt x="301" y="628" on="1"/>
        <pt x="270" y="628" on="0"/>
        <pt x="241" y="654" on="0"/>
        <pt x="241" y="686" on="1"/>
        <pt x="241" y="716" on="0"/>
        <pt x="270" y="743" on="0"/>
        <pt x="301" y="743" on="1"/>
        <pt x="362" y="743" on="0"/>
        <pt x="362" y="686" on="1"/>
        <pt x="362" y="628" on="0"/>
      </contour>
    </TTGlyph>
    <TTGlyph name="D" xMin="79" yMin="-12" xMax="650" yMax="750">
      <contour>
        <pt x="256" y="-12" on="1"/>
        <pt x="206" y="-12" on="0"/>
        <pt x="114" y="-6" on="0"/>
        <pt x="79" y="0" on="1"/>
        <pt x="79" y="737" on="1"/>
        <pt x="136" y="743" on="0"/>
        <pt x="243" y="750" on="0"/>
        <pt x="281" y="750" on="1"/>
        <pt x="473" y="750" on="0"/>
        <pt x="650" y="567" on="0"/>
        <pt x="650" y="369" on="1"/>
        <pt x="650" y="268" on="0"/>
        <pt x="605" y="124" on="0"/>
        <pt x="509" y="32" on="0"/>
        <pt x="360" y="-12" on="0"/>
      </contour>
      <contour>
        <pt x="291" y="78" on="1"/>
        <pt x="356" y="78" on="0"/>
        <pt x="449" y="111" on="0"/>
        <pt x="509" y="181" on="0"/>
        <pt x="538" y="292" on="0"/>
        <pt x="538" y="370" on="1"/>
        <pt x="538" y="448" on="0"/>
        <pt x="511" y="557" on="0"/>
        <pt x="452" y="627" on="0"/>
        <pt x="359" y="659" on="0"/>
        <pt x="294" y="659" on="1"/>
        <pt x="270" y="659" on="0"/>
        <pt x="213" y="656" on="0"/>
        <pt x="187" y="652" on="1"/>
        <pt x="187" y="85" on="1"/>
        <pt x="217" y="81" on="0"/>
        <pt x="265" y="78" on="0"/>
      </contour>
    </TTGlyph>
    <TTGlyph name="D.sc" xMin="74" yMin="-9" xMax="586" yMax="585">
      <contour>
        <pt x="247" y="-9" on="1"/>
        <pt x="200" y="-9" on="0"/>
        <pt x="108" y="-4" on="0"/>
        <pt x="74" y="1" on="1"/>
        <pt x="74" y="575" on="1"/>
        <pt x="126" y="580" on="0"/>
        <pt x="222" y="585" on="0"/>
        <pt x="257" y="585" on="1"/>
        <pt x="429" y="585" on="0"/>
        <pt x="586" y="442" on="0"/>
        <pt x="586" y="288" on="1"/>
        <pt x="586" y="210" on="0"/>
        <pt x="547" y="98" on="0"/>
        <pt x="464" y="25" on="0"/>
        <pt x="336" y="-9" on="0"/>
      </contour>
      <contour>
        <pt x="271" y="76" on="1"/>
        <pt x="326" y="76" on="0"/>
        <pt x="406" y="99" on="0"/>
        <pt x="456" y="150" on="0"/>
        <pt x="480" y="230" on="0"/>
        <pt x="480" y="288" on="1"/>
        <pt x="480" y="346" on="0"/>
        <pt x="457" y="426" on="0"/>
        <pt x="407" y="477" on="0"/>
        <pt x="327" y="500" on="0"/>
        <pt x="271" y="500" on="1"/>
        <pt x="250" y="500" on="0"/>
        <pt x="200" y="497" on="0"/>
        <pt x="177" y="495" on="1"/>
        <pt x="177" y="81" on="1"/>
        <pt x="204" y="78" on="0"/>
        <pt x="247" y="76" on="0"/>
      </contour>
    </TTGlyph>
    <TTGlyph name="Dcaron" xMin="79" yMin="-12" xMax="650" yMax="956">
      <contour>
        <pt x="163" y="956" on="1"/>
        <pt x="327" y="882" on="1"/>
        <pt x="491" y="956" on="1"/>
        <pt x="491" y="875" on="1"/>
        <pt x="326" y="802" on="1"/>
        <pt x="163" y="875" on="1"/>
      </contour>
      <contour>
        <pt x="256" y="-12" on="1"/>
        <pt x="206" y="-12" on="0"/>
        <pt x="114" y="-6" on="0"/>
        <pt x="79" y="0" on="1"/>
        <pt x="79" y="737" on="1"/>
        <pt x="136" y="743" on="0"/>
        <pt x="243" y="750" on="0"/>
        <pt x="281" y="750" on="1"/>
        <pt x="473" y="750" on="0"/>
        <pt x="650" y="567" on="0"/>
        <pt x="650" y="369" on="1"/>
        <pt x="650" y="268" on="0"/>
        <pt x="605" y="124" on="0"/>
        <pt x="509" y="32" on="0"/>
        <pt x="360" y="-12" on="0"/>
      </contour>
      <contour>
        <pt x="291" y="78" on="1"/>
        <pt x="356" y="78" on="0"/>
        <pt x="449" y="111" on="0"/>
        <pt x="509" y="181" on="0"/>
        <pt x="538" y="292" on="0"/>
        <pt x="538" y="370" on="1"/>
        <pt x="538" y="448" on="0"/>
        <pt x="511" y="557" on="0"/>
        <pt x="452" y="627" on="0"/>
        <pt x="359" y="659" on="0"/>
        <pt x="294" y="659" on="1"/>
        <pt x="270" y="659" on="0"/>
        <pt x="213" y="656" on="0"/>
        <pt x="187" y="652" on="1"/>
        <pt x="187" y="85" on="1"/>
        <pt x="217" y="81" on="0"/>
        <pt x="265" y="78" on="0"/>
      </contour>
    </TTGlyph>
    <TTGlyph name="Dcaron.sc" xMin="74" yMin="-9" xMax="586" yMax="755">
      <contour>
        <pt x="247" y="-9" on="1"/>
        <pt x="200" y="-9" on="0"/>
        <pt x="108" y="-4" on="0"/>
        <pt x="74" y="1" on="1"/>
        <pt x="74" y="575" on="1"/>
        <pt x="126" y="580" on="0"/>
        <pt x="222" y="585" on="0"/>
        <pt x="257" y="585" on="1"/>
        <pt x="429" y="585" on="0"/>
        <pt x="586" y="442" on="0"/>
        <pt x="586" y="288" on="1"/>
        <pt x="586" y="210" on="0"/>
        <pt x="547" y="98" on="0"/>
        <pt x="464" y="25" on="0"/>
        <pt x="336" y="-9" on="0"/>
      </contour>
      <contour>
        <pt x="271" y="76" on="1"/>
        <pt x="326" y="76" on="0"/>
        <pt x="406" y="99" on="0"/>
        <pt x="456" y="150" on="0"/>
        <pt x="480" y="230" on="0"/>
        <pt x="480" y="288" on="1"/>
        <pt x="480" y="346" on="0"/>
        <pt x="457" y="426" on="0"/>
        <pt x="407" y="477" on="0"/>
        <pt x="327" y="500" on="0"/>
        <pt x="271" y="500" on="1"/>
        <pt x="250" y="500" on="0"/>
        <pt x="200" y="497" on="0"/>
        <pt x="177" y="495" on="1"/>
        <pt x="177" y="81" on="1"/>
        <pt x="204" y="78" on="0"/>
        <pt x="247" y="76" on="0"/>
      </contour>
      <contour>
        <pt x="151" y="683" on="1"/>
        <pt x="151" y="755" on="1"/>
        <pt x="300" y="697" on="1"/>
        <pt x="448" y="755" on="1"/>
        <pt x="448" y="683" on="1"/>
        <pt x="299" y="624" on="1"/>
      </contour>
    </TTGlyph>
    <TTGlyph name="Dcroat" xMin="2" yMin="-12" xMax="665" yMax="750">
      <contour>
        <pt x="2" y="413" on="1"/>
        <pt x="94" y="413" on="1"/>
        <pt x="94" y="737" on="1"/>
        <pt x="151" y="743" on="0"/>
        <pt x="258" y="750" on="0"/>
        <pt x="296" y="750" on="1"/>
        <pt x="488" y="750" on="0"/>
        <pt x="665" y="567" on="0"/>
        <pt x="665" y="369" on="1"/>
        <pt x="665" y="268" on="0"/>
        <pt x="620" y="124" on="0"/>
        <pt x="524" y="32" on="0"/>
        <pt x="375" y="-12" on="0"/>
        <pt x="271" y="-12" on="1"/>
        <pt x="221" y="-12" on="0"/>
        <pt x="129" y="-6" on="0"/>
        <pt x="94" y="0" on="1"/>
        <pt x="94" y="328" on="1"/>
        <pt x="2" y="328" on="1"/>
      </contour>
      <contour>
        <pt x="306" y="78" on="1"/>
        <pt x="371" y="78" on="0"/>
        <pt x="464" y="111" on="0"/>
        <pt x="524" y="181" on="0"/>
        <pt x="553" y="292" on="0"/>
        <pt x="553" y="370" on="1"/>
        <pt x="553" y="448" on="0"/>
        <pt x="526" y="557" on="0"/>
        <pt x="467" y="627" on="0"/>
        <pt x="374" y="659" on="0"/>
        <pt x="309" y="659" on="1"/>
        <pt x="285" y="659" on="0"/>
        <pt x="228" y="656" on="0"/>
        <pt x="202" y="652" on="1"/>
        <pt x="202" y="413" on="1"/>
        <pt x="354" y="413" on="1"/>
        <pt x="354" y="328" on="1"/>
        <pt x="202" y="328" on="1"/>
        <pt x="202" y="85" on="1"/>
        <pt x="232" y="81" on="0"/>
        <pt x="280" y="78" on="0"/>
      </contour>
    </TTGlyph>
    <TTGlyph name="Dcroat.sc" xMin="10" yMin="-9" xMax="602" yMax="585">
      <contour>
        <pt x="10" y="330" on="1"/>
        <pt x="89" y="330" on="1"/>
        <pt x="89" y="575" on="1"/>
        <pt x="143" y="580" on="0"/>
        <pt x="238" y="585" on="0"/>
        <pt x="273" y="585" on="1"/>
        <pt x="359" y="585" on="0"/>
        <pt x="483" y="550" on="0"/>
        <pt x="564" y="478" on="0"/>
        <pt x="602" y="366" on="0"/>
        <pt x="602" y="288" on="1"/>
        <pt x="602" y="209" on="0"/>
        <pt x="562" y="97" on="0"/>
        <pt x="477" y="25" on="0"/>
        <pt x="343" y="-9" on="0"/>
        <pt x="250" y="-9" on="1"/>
        <pt x="205" y="-9" on="0"/>
        <pt x="121" y="-4" on="0"/>
        <pt x="89" y="1" on="1"/>
        <pt x="89" y="249" on="1"/>
        <pt x="10" y="249" on="1"/>
      </contour>
      <contour>
        <pt x="286" y="76" on="1"/>
        <pt x="341" y="76" on="0"/>
        <pt x="421" y="99" on="0"/>
        <pt x="471" y="150" on="0"/>
        <pt x="495" y="230" on="0"/>
        <pt x="495" y="288" on="1"/>
        <pt x="495" y="346" on="0"/>
        <pt x="472" y="426" on="0"/>
        <pt x="422" y="477" on="0"/>
        <pt x="342" y="500" on="0"/>
        <pt x="286" y="500" on="1"/>
        <pt x="266" y="500" on="0"/>
        <pt x="217" y="497" on="0"/>
        <pt x="193" y="495" on="1"/>
        <pt x="193" y="330" on="1"/>
        <pt x="322" y="330" on="1"/>
        <pt x="322" y="249" on="1"/>
        <pt x="193" y="249" on="1"/>
        <pt x="193" y="81" on="1"/>
        <pt x="219" y="78" on="0"/>
        <pt x="263" y="76" on="0"/>
      </contour>
    </TTGlyph>
    <TTGlyph name="Ddotbelow" xMin="79" yMin="-188" xMax="650" yMax="750">
      <contour>
        <pt x="330" y="-188" on="1"/>
        <pt x="301" y="-188" on="0"/>
        <pt x="274" y="-162" on="0"/>
        <pt x="274" y="-133" on="1"/>
        <pt x="274" y="-103" on="0"/>
        <pt x="301" y="-77" on="0"/>
        <pt x="330" y="-77" on="1"/>
        <pt x="386" y="-77" on="0"/>
        <pt x="386" y="-133" on="1"/>
        <pt x="386" y="-188" on="0"/>
      </contour>
      <contour>
        <pt x="256" y="-12" on="1"/>
        <pt x="206" y="-12" on="0"/>
        <pt x="114" y="-6" on="0"/>
        <pt x="79" y="0" on="1"/>
        <pt x="79" y="737" on="1"/>
        <pt x="136" y="743" on="0"/>
        <pt x="243" y="750" on="0"/>
        <pt x="281" y="750" on="1"/>
        <pt x="473" y="750" on="0"/>
        <pt x="650" y="567" on="0"/>
        <pt x="650" y="369" on="1"/>
        <pt x="650" y="268" on="0"/>
        <pt x="605" y="124" on="0"/>
        <pt x="509" y="32" on="0"/>
        <pt x="360" y="-12" on="0"/>
      </contour>
      <contour>
        <pt x="291" y="78" on="1"/>
        <pt x="356" y="78" on="0"/>
        <pt x="449" y="111" on="0"/>
        <pt x="509" y="181" on="0"/>
        <pt x="538" y="292" on="0"/>
        <pt x="538" y="370" on="1"/>
        <pt x="538" y="448" on="0"/>
        <pt x="511" y="557" on="0"/>
        <pt x="452" y="627" on="0"/>
        <pt x="359" y="659" on="0"/>
        <pt x="294" y="659" on="1"/>
        <pt x="270" y="659" on="0"/>
        <pt x="213" y="656" on="0"/>
        <pt x="187" y="652" on="1"/>
        <pt x="187" y="85" on="1"/>
        <pt x="217" y="81" on="0"/>
        <pt x="265" y="78" on="0"/>
      </contour>
    </TTGlyph>
    <TTGlyph name="Ddotbelow.sc" xMin="74" yMin="-152" xMax="586" yMax="585">
      <contour>
        <pt x="247" y="-9" on="1"/>
        <pt x="200" y="-9" on="0"/>
        <pt x="108" y="-4" on="0"/>
        <pt x="74" y="1" on="1"/>
        <pt x="74" y="575" on="1"/>
        <pt x="126" y="580" on="0"/>
        <pt x="222" y="585" on="0"/>
        <pt x="257" y="585" on="1"/>
        <pt x="429" y="585" on="0"/>
        <pt x="586" y="442" on="0"/>
        <pt x="586" y="288" on="1"/>
        <pt x="586" y="210" on="0"/>
        <pt x="547" y="98" on="0"/>
        <pt x="464" y="25" on="0"/>
        <pt x="336" y="-9" on="0"/>
      </contour>
      <contour>
        <pt x="271" y="76" on="1"/>
        <pt x="326" y="76" on="0"/>
        <pt x="406" y="99" on="0"/>
        <pt x="456" y="150" on="0"/>
        <pt x="480" y="230" on="0"/>
        <pt x="480" y="288" on="1"/>
        <pt x="480" y="346" on="0"/>
        <pt x="457" y="426" on="0"/>
        <pt x="407" y="477" on="0"/>
        <pt x="327" y="500" on="0"/>
        <pt x="271" y="500" on="1"/>
        <pt x="250" y="500" on="0"/>
        <pt x="200" y="497" on="0"/>
        <pt x="177" y="495" on="1"/>
        <pt x="177" y="81" on="1"/>
        <pt x="204" y="78" on="0"/>
        <pt x="247" y="76" on="0"/>
      </contour>
      <contour>
        <pt x="302" y="-152" on="1"/>
        <pt x="250" y="-152" on="0"/>
        <pt x="250" y="-105" on="1"/>
        <pt x="250" y="-79" on="0"/>
        <pt x="275" y="-56" on="0"/>
        <pt x="302" y="-56" on="1"/>
        <pt x="354" y="-56" on="0"/>
        <pt x="354" y="-105" on="1"/>
        <pt x="354" y="-152" on="0"/>
      </contour>
    </TTGlyph>
    <TTGlyph name="Delta" xMin="22" yMin="0" xMax="700" yMax="740">
      <contour>
        <pt x="294" y="740" on="1"/>
        <pt x="428" y="740" on="1"/>
        <pt x="700" y="0" on="1"/>
        <pt x="22" y="0" on="1"/>
      </contour>
      <contour>
        <pt x="565" y="89" on="1"/>
        <pt x="361" y="645" on="1"/>
        <pt x="156" y="89" on="1"/>
      </contour>
    </TTGlyph>
    <TTGlyph name="E" xMin="79" yMin="0" xMax="549" yMax="740">
      <contour>
        <pt x="79" y="740" on="1"/>
        <pt x="540" y="740" on="1"/>
        <pt x="540" y="650" on="1"/>
        <pt x="188" y="650" on="1"/>
        <pt x="188" y="419" on="1"/>
        <pt x="510" y="419" on="1"/>
        <pt x="510" y="329" on="1"/>
        <pt x="188" y="329" on="1"/>
        <pt x="188" y="90" on="1"/>
        <pt x="549" y="90" on="1"/>
        <pt x="549" y="0" on="1"/>
        <pt x="79" y="0" on="1"/>
      </contour>
    </TTGlyph>
    <TTGlyph name="E.sc" xMin="75" yMin="0" xMax="496" yMax="577">
      <contour>
        <pt x="75" y="577" on="1"/>
        <pt x="489" y="577" on="1"/>
        <pt x="489" y="495" on="1"/>
        <pt x="179" y="495" on="1"/>
        <pt x="179" y="330" on="1"/>
        <pt x="463" y="330" on="1"/>
        <pt x="463" y="254" on="1"/>
        <pt x="179" y="254" on="1"/>
        <pt x="179" y="82" on="1"/>
        <pt x="496" y="82" on="1"/>
        <pt x="496" y="0" on="1"/>
        <pt x="75" y="0" on="1"/>
      </contour>
    </TTGlyph>
    <TTGlyph name="Eacute" xMin="79" yMin="0" xMax="549" yMax="952">
      <contour>
        <pt x="264" y="803" on="1"/>
        <pt x="336" y="952" on="1"/>
        <pt x="447" y="952" on="1"/>
        <pt x="345" y="796" on="1"/>
      </contour>
      <contour>
        <pt x="79" y="740" on="1"/>
        <pt x="540" y="740" on="1"/>
        <pt x="540" y="650" on="1"/>
        <pt x="188" y="650" on="1"/>
        <pt x="188" y="419" on="1"/>
        <pt x="510" y="419" on="1"/>
        <pt x="510" y="329" on="1"/>
        <pt x="188" y="329" on="1"/>
        <pt x="188" y="90" on="1"/>
        <pt x="549" y="90" on="1"/>
        <pt x="549" y="0" on="1"/>
        <pt x="79" y="0" on="1"/>
      </contour>
    </TTGlyph>
    <TTGlyph name="Eacute.sc" xMin="75" yMin="0" xMax="496" yMax="752">
      <contour>
        <pt x="75" y="577" on="1"/>
        <pt x="489" y="577" on="1"/>
        <pt x="489" y="495" on="1"/>
        <pt x="179" y="495" on="1"/>
        <pt x="179" y="330" on="1"/>
        <pt x="463" y="330" on="1"/>
        <pt x="463" y="254" on="1"/>
        <pt x="179" y="254" on="1"/>
        <pt x="179" y="82" on="1"/>
        <pt x="496" y="82" on="1"/>
        <pt x="496" y="0" on="1"/>
        <pt x="75" y="0" on="1"/>
      </contour>
      <contour>
        <pt x="238" y="628" on="1"/>
        <pt x="300" y="752" on="1"/>
        <pt x="406" y="752" on="1"/>
        <pt x="315" y="622" on="1"/>
      </contour>
    </TTGlyph>
    <TTGlyph name="Ebreve" xMin="79" yMin="0" xMax="549" yMax="965">
      <contour>
        <pt x="308" y="810" on="1"/>
        <pt x="217" y="810" on="0"/>
        <pt x="128" y="895" on="0"/>
        <pt x="128" y="965" on="1"/>
        <pt x="205" y="965" on="1"/>
        <pt x="205" y="918" on="0"/>
        <pt x="255" y="869" on="0"/>
        <pt x="308" y="869" on="1"/>
        <pt x="361" y="869" on="0"/>
        <pt x="411" y="918" on="0"/>
        <pt x="411" y="965" on="1"/>
        <pt x="488" y="965" on="1"/>
        <pt x="488" y="894" on="0"/>
        <pt x="399" y="810" on="0"/>
      </contour>
      <contour>
        <pt x="79" y="740" on="1"/>
        <pt x="540" y="740" on="1"/>
        <pt x="540" y="650" on="1"/>
        <pt x="188" y="650" on="1"/>
        <pt x="188" y="419" on="1"/>
        <pt x="510" y="419" on="1"/>
        <pt x="510" y="329" on="1"/>
        <pt x="188" y="329" on="1"/>
        <pt x="188" y="90" on="1"/>
        <pt x="549" y="90" on="1"/>
        <pt x="549" y="0" on="1"/>
        <pt x="79" y="0" on="1"/>
      </contour>
    </TTGlyph>
    <TTGlyph name="Ebreve.sc" xMin="75" yMin="0" xMax="496" yMax="759">
      <contour>
        <pt x="281" y="630" on="1"/>
        <pt x="197" y="630" on="0"/>
        <pt x="119" y="701" on="0"/>
        <pt x="119" y="759" on="1"/>
        <pt x="191" y="759" on="1"/>
        <pt x="191" y="721" on="0"/>
        <pt x="234" y="684" on="0"/>
        <pt x="281" y="684" on="1"/>
        <pt x="328" y="684" on="0"/>
        <pt x="371" y="721" on="0"/>
        <pt x="371" y="759" on="1"/>
        <pt x="443" y="759" on="1"/>
        <pt x="443" y="701" on="0"/>
        <pt x="364" y="630" on="0"/>
      </contour>
      <contour>
        <pt x="75" y="577" on="1"/>
        <pt x="489" y="577" on="1"/>
        <pt x="489" y="495" on="1"/>
        <pt x="179" y="495" on="1"/>
        <pt x="179" y="330" on="1"/>
        <pt x="463" y="330" on="1"/>
        <pt x="463" y="254" on="1"/>
        <pt x="179" y="254" on="1"/>
        <pt x="179" y="82" on="1"/>
        <pt x="496" y="82" on="1"/>
        <pt x="496" y="0" on="1"/>
        <pt x="75" y="0" on="1"/>
      </contour>
    </TTGlyph>
    <TTGlyph name="Ecaron" xMin="79" yMin="0" xMax="549" yMax="956">
      <contour>
        <pt x="150" y="956" on="1"/>
        <pt x="314" y="882" on="1"/>
        <pt x="478" y="956" on="1"/>
        <pt x="478" y="875" on="1"/>
        <pt x="313" y="802" on="1"/>
        <pt x="150" y="875" on="1"/>
      </contour>
      <contour>
        <pt x="79" y="740" on="1"/>
        <pt x="540" y="740" on="1"/>
        <pt x="540" y="650" on="1"/>
        <pt x="188" y="650" on="1"/>
        <pt x="188" y="419" on="1"/>
        <pt x="510" y="419" on="1"/>
        <pt x="510" y="329" on="1"/>
        <pt x="188" y="329" on="1"/>
        <pt x="188" y="90" on="1"/>
        <pt x="549" y="90" on="1"/>
        <pt x="549" y="0" on="1"/>
        <pt x="79" y="0" on="1"/>
      </contour>
    </TTGlyph>
    <TTGlyph name="Ecaron.sc" xMin="75" yMin="0" xMax="496" yMax="755">
      <contour>
        <pt x="75" y="577" on="1"/>
        <pt x="489" y="577" on="1"/>
        <pt x="489" y="495" on="1"/>
        <pt x="179" y="495" on="1"/>
        <pt x="179" y="330" on="1"/>
        <pt x="463" y="330" on="1"/>
        <pt x="463" y="254" on="1"/>
        <pt x="179" y="254" on="1"/>
        <pt x="179" y="82" on="1"/>
        <pt x="496" y="82" on="1"/>
        <pt x="496" y="0" on="1"/>
        <pt x="75" y="0" on="1"/>
      </contour>
      <contour>
        <pt x="138" y="683" on="1"/>
        <pt x="138" y="755" on="1"/>
        <pt x="285" y="697" on="1"/>
        <pt x="433" y="755" on="1"/>
        <pt x="433" y="683" on="1"/>
        <pt x="285" y="624" on="1"/>
      </contour>
    </TTGlyph>
    <TTGlyph name="Ecircumflex" xMin="79" yMin="0" xMax="549" yMax="962">
      <contour>
        <pt x="79" y="740" on="1"/>
        <pt x="540" y="740" on="1"/>
        <pt x="540" y="650" on="1"/>
        <pt x="188" y="650" on="1"/>
        <pt x="188" y="419" on="1"/>
        <pt x="510" y="419" on="1"/>
        <pt x="510" y="329" on="1"/>
        <pt x="188" y="329" on="1"/>
        <pt x="188" y="90" on="1"/>
        <pt x="549" y="90" on="1"/>
        <pt x="549" y="0" on="1"/>
        <pt x="79" y="0" on="1"/>
      </contour>
      <contour>
        <pt x="151" y="888" on="1"/>
        <pt x="315" y="962" on="1"/>
        <pt x="479" y="888" on="1"/>
        <pt x="479" y="807" on="1"/>
        <pt x="315" y="881" on="1"/>
        <pt x="151" y="807" on="1"/>
      </contour>
    </TTGlyph>
    <TTGlyph name="Ecircumflex.sc" xMin="75" yMin="0" xMax="496" yMax="758">
      <contour>
        <pt x="75" y="577" on="1"/>
        <pt x="489" y="577" on="1"/>
        <pt x="489" y="495" on="1"/>
        <pt x="179" y="495" on="1"/>
        <pt x="179" y="330" on="1"/>
        <pt x="463" y="330" on="1"/>
        <pt x="463" y="254" on="1"/>
        <pt x="179" y="254" on="1"/>
        <pt x="179" y="82" on="1"/>
        <pt x="496" y="82" on="1"/>
        <pt x="496" y="0" on="1"/>
        <pt x="75" y="0" on="1"/>
      </contour>
      <contour>
        <pt x="140" y="700" on="1"/>
        <pt x="287" y="758" on="1"/>
        <pt x="436" y="700" on="1"/>
        <pt x="436" y="627" on="1"/>
        <pt x="288" y="685" on="1"/>
        <pt x="140" y="627" on="1"/>
      </contour>
    </TTGlyph>
    <TTGlyph name="Edblgrave" xMin="79" yMin="0" xMax="549" yMax="949">
      <contour>
        <pt x="79" y="740" on="1"/>
        <pt x="540" y="740" on="1"/>
        <pt x="540" y="650" on="1"/>
        <pt x="188" y="650" on="1"/>
        <pt x="188" y="419" on="1"/>
        <pt x="510" y="419" on="1"/>
        <pt x="510" y="329" on="1"/>
        <pt x="188" y="329" on="1"/>
        <pt x="188" y="90" on="1"/>
        <pt x="549" y="90" on="1"/>
        <pt x="549" y="0" on="1"/>
        <pt x="79" y="0" on="1"/>
      </contour>
      <contour>
        <pt x="192" y="793" on="1"/>
        <pt x="89" y="949" on="1"/>
        <pt x="191" y="949" on="1"/>
        <pt x="264" y="806" on="1"/>
      </contour>
      <contour>
        <pt x="360" y="793" on="1"/>
        <pt x="256" y="949" on="1"/>
        <pt x="359" y="949" on="1"/>
        <pt x="431" y="806" on="1"/>
      </contour>
    </TTGlyph>
    <TTGlyph name="Edblgrave.sc" xMin="75" yMin="0" xMax="496" yMax="750">
      <contour>
        <pt x="75" y="577" on="1"/>
        <pt x="489" y="577" on="1"/>
        <pt x="489" y="495" on="1"/>
        <pt x="179" y="495" on="1"/>
        <pt x="179" y="330" on="1"/>
        <pt x="463" y="330" on="1"/>
        <pt x="463" y="254" on="1"/>
        <pt x="179" y="254" on="1"/>
        <pt x="179" y="82" on="1"/>
        <pt x="496" y="82" on="1"/>
        <pt x="496" y="0" on="1"/>
        <pt x="75" y="0" on="1"/>
      </contour>
      <contour>
        <pt x="82" y="750" on="1"/>
        <pt x="180" y="750" on="1"/>
        <pt x="242" y="630" on="1"/>
        <pt x="173" y="620" on="1"/>
      </contour>
      <contour>
        <pt x="234" y="750" on="1"/>
        <pt x="332" y="750" on="1"/>
        <pt x="394" y="630" on="1"/>
        <pt x="325" y="620" on="1"/>
      </contour>
    </TTGlyph>
    <TTGlyph name="Edieresis" xMin="79" yMin="0" xMax="549" yMax="939">
      <contour>
        <pt x="189" y="812" on="1"/>
        <pt x="125" y="812" on="0"/>
        <pt x="125" y="876" on="1"/>
        <pt x="125" y="909" on="0"/>
        <pt x="157" y="939" on="0"/>
        <pt x="189" y="939" on="1"/>
        <pt x="221" y="939" on="0"/>
        <pt x="254" y="909" on="0"/>
        <pt x="254" y="876" on="1"/>
        <pt x="254" y="812" on="0"/>
      </contour>
      <contour>
        <pt x="437" y="812" on="1"/>
        <pt x="372" y="812" on="0"/>
        <pt x="372" y="876" on="1"/>
        <pt x="372" y="909" on="0"/>
        <pt x="404" y="939" on="0"/>
        <pt x="437" y="939" on="1"/>
        <pt x="469" y="939" on="0"/>
        <pt x="502" y="909" on="0"/>
        <pt x="502" y="876" on="1"/>
        <pt x="502" y="812" on="0"/>
      </contour>
      <contour>
        <pt x="79" y="740" on="1"/>
        <pt x="540" y="740" on="1"/>
        <pt x="540" y="650" on="1"/>
        <pt x="188" y="650" on="1"/>
        <pt x="188" y="419" on="1"/>
        <pt x="510" y="419" on="1"/>
        <pt x="510" y="329" on="1"/>
        <pt x="188" y="329" on="1"/>
        <pt x="188" y="90" on="1"/>
        <pt x="549" y="90" on="1"/>
        <pt x="549" y="0" on="1"/>
        <pt x="79" y="0" on="1"/>
      </contour>
    </TTGlyph>
    <TTGlyph name="Edieresis.sc" xMin="75" yMin="0" xMax="496" yMax="747">
      <contour>
        <pt x="174" y="631" on="1"/>
        <pt x="114" y="631" on="0"/>
        <pt x="114" y="689" on="1"/>
        <pt x="114" y="747" on="0"/>
        <pt x="174" y="747" on="1"/>
        <pt x="235" y="747" on="0"/>
        <pt x="235" y="689" on="1"/>
        <pt x="235" y="631" on="0"/>
      </contour>
      <contour>
        <pt x="397" y="631" on="1"/>
        <pt x="337" y="631" on="0"/>
        <pt x="337" y="689" on="1"/>
        <pt x="337" y="747" on="0"/>
        <pt x="397" y="747" on="1"/>
        <pt x="458" y="747" on="0"/>
        <pt x="458" y="689" on="1"/>
        <pt x="458" y="631" on="0"/>
      </contour>
      <contour>
        <pt x="75" y="577" on="1"/>
        <pt x="489" y="577" on="1"/>
        <pt x="489" y="495" on="1"/>
        <pt x="179" y="495" on="1"/>
        <pt x="179" y="330" on="1"/>
        <pt x="463" y="330" on="1"/>
        <pt x="463" y="254" on="1"/>
        <pt x="179" y="254" on="1"/>
        <pt x="179" y="82" on="1"/>
        <pt x="496" y="82" on="1"/>
        <pt x="496" y="0" on="1"/>
        <pt x="75" y="0" on="1"/>
      </contour>
    </TTGlyph>
    <TTGlyph name="Edotaccent" xMin="79" yMin="0" xMax="549" yMax="933">
      <contour>
        <pt x="309" y="806" on="1"/>
        <pt x="276" y="806" on="0"/>
        <pt x="244" y="836" on="0"/>
        <pt x="244" y="869" on="1"/>
        <pt x="244" y="903" on="0"/>
        <pt x="276" y="933" on="0"/>
        <pt x="309" y="933" on="1"/>
        <pt x="374" y="933" on="0"/>
        <pt x="374" y="869" on="1"/>
        <pt x="374" y="806" on="0"/>
      </contour>
      <contour>
        <pt x="79" y="740" on="1"/>
        <pt x="540" y="740" on="1"/>
        <pt x="540" y="650" on="1"/>
        <pt x="188" y="650" on="1"/>
        <pt x="188" y="419" on="1"/>
        <pt x="510" y="419" on="1"/>
        <pt x="510" y="329" on="1"/>
        <pt x="188" y="329" on="1"/>
        <pt x="188" y="90" on="1"/>
        <pt x="549" y="90" on="1"/>
        <pt x="549" y="0" on="1"/>
        <pt x="79" y="0" on="1"/>
      </contour>
    </TTGlyph>
    <TTGlyph name="Edotaccent.sc" xMin="75" yMin="0" xMax="496" yMax="743">
      <contour>
        <pt x="281" y="628" on="1"/>
        <pt x="249" y="628" on="0"/>
        <pt x="221" y="654" on="0"/>
        <pt x="221" y="686" on="1"/>
        <pt x="221" y="716" on="0"/>
        <pt x="249" y="743" on="0"/>
        <pt x="281" y="743" on="1"/>
        <pt x="342" y="743" on="0"/>
        <pt x="342" y="686" on="1"/>
        <pt x="342" y="628" on="0"/>
      </contour>
      <contour>
        <pt x="75" y="577" on="1"/>
        <pt x="489" y="577" on="1"/>
        <pt x="489" y="495" on="1"/>
        <pt x="179" y="495" on="1"/>
        <pt x="179" y="330" on="1"/>
        <pt x="463" y="330" on="1"/>
        <pt x="463" y="254" on="1"/>
        <pt x="179" y="254" on="1"/>
        <pt x="179" y="82" on="1"/>
        <pt x="496" y="82" on="1"/>
        <pt x="496" y="0" on="1"/>
        <pt x="75" y="0" on="1"/>
      </contour>
    </TTGlyph>
    <TTGlyph name="Edotbelow" xMin="79" yMin="-188" xMax="549" yMax="740">
      <contour>
        <pt x="79" y="740" on="1"/>
        <pt x="540" y="740" on="1"/>
        <pt x="540" y="650" on="1"/>
        <pt x="188" y="650" on="1"/>
        <pt x="188" y="419" on="1"/>
        <pt x="510" y="419" on="1"/>
        <pt x="510" y="329" on="1"/>
        <pt x="188" y="329" on="1"/>
        <pt x="188" y="90" on="1"/>
        <pt x="549" y="90" on="1"/>
        <pt x="549" y="0" on="1"/>
        <pt x="79" y="0" on="1"/>
      </contour>
      <contour>
        <pt x="326" y="-188" on="1"/>
        <pt x="297" y="-188" on="0"/>
        <pt x="270" y="-162" on="0"/>
        <pt x="270" y="-133" on="1"/>
        <pt x="270" y="-103" on="0"/>
        <pt x="297" y="-77" on="0"/>
        <pt x="326" y="-77" on="1"/>
        <pt x="382" y="-77" on="0"/>
        <pt x="382" y="-133" on="1"/>
        <pt x="382" y="-188" on="0"/>
      </contour>
    </TTGlyph>
    <TTGlyph name="Edotbelow.sc" xMin="75" yMin="-152" xMax="496" yMax="577">
      <contour>
        <pt x="297" y="-152" on="1"/>
        <pt x="245" y="-152" on="0"/>
        <pt x="245" y="-105" on="1"/>
        <pt x="245" y="-79" on="0"/>
        <pt x="270" y="-56" on="0"/>
        <pt x="297" y="-56" on="1"/>
        <pt x="349" y="-56" on="0"/>
        <pt x="349" y="-105" on="1"/>
        <pt x="349" y="-152" on="0"/>
      </contour>
      <contour>
        <pt x="75" y="577" on="1"/>
        <pt x="489" y="577" on="1"/>
        <pt x="489" y="495" on="1"/>
        <pt x="179" y="495" on="1"/>
        <pt x="179" y="330" on="1"/>
        <pt x="463" y="330" on="1"/>
        <pt x="463" y="254" on="1"/>
        <pt x="179" y="254" on="1"/>
        <pt x="179" y="82" on="1"/>
        <pt x="496" y="82" on="1"/>
        <pt x="496" y="0" on="1"/>
        <pt x="75" y="0" on="1"/>
      </contour>
    </TTGlyph>
    <TTGlyph name="Egrave" xMin="79" yMin="0" xMax="549" yMax="952">
      <contour>
        <pt x="276" y="796" on="1"/>
        <pt x="174" y="952" on="1"/>
        <pt x="285" y="952" on="1"/>
        <pt x="357" y="809" on="1"/>
      </contour>
      <contour>
        <pt x="79" y="740" on="1"/>
        <pt x="540" y="740" on="1"/>
        <pt x="540" y="650" on="1"/>
        <pt x="188" y="650" on="1"/>
        <pt x="188" y="419" on="1"/>
        <pt x="510" y="419" on="1"/>
        <pt x="510" y="329" on="1"/>
        <pt x="188" y="329" on="1"/>
        <pt x="188" y="90" on="1"/>
        <pt x="549" y="90" on="1"/>
        <pt x="549" y="0" on="1"/>
        <pt x="79" y="0" on="1"/>
      </contour>
    </TTGlyph>
    <TTGlyph name="Egrave.sc" xMin="75" yMin="0" xMax="496" yMax="752">
      <contour>
        <pt x="75" y="577" on="1"/>
        <pt x="489" y="577" on="1"/>
        <pt x="489" y="495" on="1"/>
        <pt x="179" y="495" on="1"/>
        <pt x="179" y="330" on="1"/>
        <pt x="463" y="330" on="1"/>
        <pt x="463" y="254" on="1"/>
        <pt x="179" y="254" on="1"/>
        <pt x="179" y="82" on="1"/>
        <pt x="496" y="82" on="1"/>
        <pt x="496" y="0" on="1"/>
        <pt x="75" y="0" on="1"/>
      </contour>
      <contour>
        <pt x="160" y="752" on="1"/>
        <pt x="265" y="752" on="1"/>
        <pt x="328" y="632" on="1"/>
        <pt x="251" y="622" on="1"/>
      </contour>
    </TTGlyph>
    <TTGlyph name="Einvertedbreve" xMin="79" yMin="0" xMax="549" yMax="973">
      <contour>
        <pt x="79" y="740" on="1"/>
        <pt x="540" y="740" on="1"/>
        <pt x="540" y="650" on="1"/>
        <pt x="188" y="650" on="1"/>
        <pt x="188" y="419" on="1"/>
        <pt x="510" y="419" on="1"/>
        <pt x="510" y="329" on="1"/>
        <pt x="188" y="329" on="1"/>
        <pt x="188" y="90" on="1"/>
        <pt x="549" y="90" on="1"/>
        <pt x="549" y="0" on="1"/>
        <pt x="79" y="0" on="1"/>
      </contour>
      <contour>
        <pt x="413" y="817" on="1"/>
        <pt x="413" y="913" on="0"/>
        <pt x="310" y="913" on="1"/>
        <pt x="207" y="913" on="0"/>
        <pt x="207" y="817" on="1"/>
        <pt x="130" y="817" on="1"/>
        <pt x="130" y="888" on="0"/>
        <pt x="219" y="973" on="0"/>
        <pt x="310" y="973" on="1"/>
        <pt x="401" y="973" on="0"/>
        <pt x="491" y="888" on="0"/>
        <pt x="491" y="817" on="1"/>
      </contour>
    </TTGlyph>
    <TTGlyph name="Einvertedbreve.sc" xMin="75" yMin="0" xMax="496" yMax="764">
      <contour>
        <pt x="121" y="636" on="1"/>
        <pt x="121" y="693" on="0"/>
        <pt x="199" y="764" on="0"/>
        <pt x="283" y="764" on="1"/>
        <pt x="366" y="764" on="0"/>
        <pt x="446" y="694" on="0"/>
        <pt x="446" y="636" on="1"/>
        <pt x="373" y="636" on="1"/>
        <pt x="373" y="673" on="0"/>
        <pt x="331" y="711" on="0"/>
        <pt x="283" y="711" on="1"/>
        <pt x="236" y="711" on="0"/>
        <pt x="193" y="673" on="0"/>
        <pt x="193" y="636" on="1"/>
      </contour>
      <contour>
        <pt x="75" y="577" on="1"/>
        <pt x="489" y="577" on="1"/>
        <pt x="489" y="495" on="1"/>
        <pt x="179" y="495" on="1"/>
        <pt x="179" y="330" on="1"/>
        <pt x="463" y="330" on="1"/>
        <pt x="463" y="254" on="1"/>
        <pt x="179" y="254" on="1"/>
        <pt x="179" y="82" on="1"/>
        <pt x="496" y="82" on="1"/>
        <pt x="496" y="0" on="1"/>
        <pt x="75" y="0" on="1"/>
      </contour>
    </TTGlyph>
    <TTGlyph name="Emacron" xMin="79" yMin="0" xMax="549" yMax="917">
      <contour>
        <pt x="151" y="917" on="1"/>
        <pt x="467" y="917" on="1"/>
        <pt x="467" y="841" on="1"/>
        <pt x="151" y="841" on="1"/>
      </contour>
      <contour>
        <pt x="79" y="740" on="1"/>
        <pt x="540" y="740" on="1"/>
        <pt x="540" y="650" on="1"/>
        <pt x="188" y="650" on="1"/>
        <pt x="188" y="419" on="1"/>
        <pt x="510" y="419" on="1"/>
        <pt x="510" y="329" on="1"/>
        <pt x="188" y="329" on="1"/>
        <pt x="188" y="90" on="1"/>
        <pt x="549" y="90" on="1"/>
        <pt x="549" y="0" on="1"/>
        <pt x="79" y="0" on="1"/>
      </contour>
    </TTGlyph>
    <TTGlyph name="Emacron.sc" xMin="75" yMin="0" xMax="496" yMax="726">
      <contour>
        <pt x="75" y="577" on="1"/>
        <pt x="489" y="577" on="1"/>
        <pt x="489" y="495" on="1"/>
        <pt x="179" y="495" on="1"/>
        <pt x="179" y="330" on="1"/>
        <pt x="463" y="330" on="1"/>
        <pt x="463" y="254" on="1"/>
        <pt x="179" y="254" on="1"/>
        <pt x="179" y="82" on="1"/>
        <pt x="496" y="82" on="1"/>
        <pt x="496" y="0" on="1"/>
        <pt x="75" y="0" on="1"/>
      </contour>
      <contour>
        <pt x="139" y="726" on="1"/>
        <pt x="426" y="726" on="1"/>
        <pt x="426" y="656" on="1"/>
        <pt x="139" y="656" on="1"/>
      </contour>
    </TTGlyph>
    <TTGlyph name="Eng" xMin="79" yMin="-194" xMax="668" yMax="740">
      <contour>
        <pt x="488" y="-171" on="1"/>
        <pt x="514" y="-117" on="0"/>
        <pt x="548" y="-16" on="0"/>
        <pt x="555" y="29" on="1"/>
        <pt x="239" y="481" on="1"/>
        <pt x="184" y="569" on="1"/>
        <pt x="177" y="568" on="1"/>
        <pt x="177" y="0" on="1"/>
        <pt x="79" y="0" on="1"/>
        <pt x="79" y="740" on="1"/>
        <pt x="169" y="740" on="1"/>
        <pt x="509" y="257" on="1"/>
        <pt x="562" y="171" on="1"/>
        <pt x="569" y="171" on="1"/>
        <pt x="569" y="740" on="1"/>
        <pt x="668" y="740" on="1"/>
        <pt x="668" y="91" on="1"/>
        <pt x="668" y="63" on="0"/>
        <pt x="652" y="-9" on="0"/>
        <pt x="623" y="-85" on="0"/>
        <pt x="585" y="-162" on="0"/>
        <pt x="563" y="-194" on="1"/>
      </contour>
    </TTGlyph>
    <TTGlyph name="Eng.sc" xMin="75" yMin="-156" xMax="595" yMax="577">
      <contour>
        <pt x="433" y="-133" on="1"/>
        <pt x="479" y="-44" on="0"/>
        <pt x="491" y="24" on="1"/>
        <pt x="224" y="350" on="1"/>
        <pt x="175" y="418" on="1"/>
        <pt x="168" y="418" on="1"/>
        <pt x="168" y="0" on="1"/>
        <pt x="75" y="0" on="1"/>
        <pt x="75" y="577" on="1"/>
        <pt x="160" y="577" on="1"/>
        <pt x="447" y="226" on="1"/>
        <pt x="495" y="159" on="1"/>
        <pt x="501" y="159" on="1"/>
        <pt x="501" y="577" on="1"/>
        <pt x="595" y="577" on="1"/>
        <pt x="595" y="79" on="1"/>
        <pt x="595" y="56" on="0"/>
        <pt x="581" y="-2" on="0"/>
        <pt x="557" y="-65" on="0"/>
        <pt x="523" y="-128" on="0"/>
        <pt x="503" y="-156" on="1"/>
      </contour>
    </TTGlyph>
    <TTGlyph name="Eogonek" xMin="79" yMin="-220" xMax="549" yMax="740">
      <contour>
        <pt x="79" y="740" on="1"/>
        <pt x="540" y="740" on="1"/>
        <pt x="540" y="650" on="1"/>
        <pt x="188" y="650" on="1"/>
        <pt x="188" y="419" on="1"/>
        <pt x="510" y="419" on="1"/>
        <pt x="510" y="329" on="1"/>
        <pt x="188" y="329" on="1"/>
        <pt x="188" y="90" on="1"/>
        <pt x="549" y="90" on="1"/>
        <pt x="549" y="-15" on="1"/>
        <pt x="491" y="-40" on="0"/>
        <pt x="438" y="-96" on="0"/>
        <pt x="438" y="-122" on="1"/>
        <pt x="438" y="-155" on="0"/>
        <pt x="481" y="-155" on="1"/>
        <pt x="495" y="-155" on="0"/>
        <pt x="532" y="-148" on="0"/>
        <pt x="549" y="-143" on="1"/>
        <pt x="549" y="-208" on="1"/>
        <pt x="516" y="-220" on="0"/>
        <pt x="476" y="-220" on="1"/>
        <pt x="364" y="-220" on="0"/>
        <pt x="364" y="-132" on="1"/>
        <pt x="364" y="-95" on="0"/>
        <pt x="410" y="-32" on="0"/>
        <pt x="461" y="0" on="1"/>
        <pt x="79" y="0" on="1"/>
      </contour>
    </TTGlyph>
    <TTGlyph name="Eogonek.sc" xMin="75" yMin="-172" xMax="496" yMax="577">
      <contour>
        <pt x="430" y="-172" on="1"/>
        <pt x="328" y="-172" on="0"/>
        <pt x="328" y="-101" on="1"/>
        <pt x="328" y="-72" on="0"/>
        <pt x="366" y="-25" on="0"/>
        <pt x="410" y="0" on="1"/>
        <pt x="75" y="0" on="1"/>
        <pt x="75" y="577" on="1"/>
        <pt x="489" y="577" on="1"/>
        <pt x="489" y="495" on="1"/>
        <pt x="179" y="495" on="1"/>
        <pt x="179" y="330" on="1"/>
        <pt x="463" y="330" on="1"/>
        <pt x="463" y="254" on="1"/>
        <pt x="179" y="254" on="1"/>
        <pt x="179" y="82" on="1"/>
        <pt x="496" y="82" on="1"/>
        <pt x="496" y="-10" on="1"/>
        <pt x="442" y="-30" on="0"/>
        <pt x="399" y="-69" on="0"/>
        <pt x="399" y="-89" on="1"/>
        <pt x="399" y="-113" on="0"/>
        <pt x="434" y="-113" on="1"/>
        <pt x="448" y="-113" on="0"/>
        <pt x="483" y="-107" on="0"/>
        <pt x="496" y="-104" on="1"/>
        <pt x="496" y="-162" on="1"/>
        <pt x="466" y="-172" on="0"/>
      </contour>
    </TTGlyph>
    <TTGlyph name="Eth" xMin="2" yMin="-12" xMax="665" yMax="750">
      <contour>
        <pt x="2" y="413" on="1"/>
        <pt x="94" y="413" on="1"/>
        <pt x="94" y="737" on="1"/>
        <pt x="151" y="743" on="0"/>
        <pt x="258" y="750" on="0"/>
        <pt x="296" y="750" on="1"/>
        <pt x="488" y="750" on="0"/>
        <pt x="665" y="567" on="0"/>
        <pt x="665" y="369" on="1"/>
        <pt x="665" y="268" on="0"/>
        <pt x="620" y="124" on="0"/>
        <pt x="524" y="32" on="0"/>
        <pt x="375" y="-12" on="0"/>
        <pt x="271" y="-12" on="1"/>
        <pt x="221" y="-12" on="0"/>
        <pt x="129" y="-6" on="0"/>
        <pt x="94" y="0" on="1"/>
        <pt x="94" y="328" on="1"/>
        <pt x="2" y="328" on="1"/>
      </contour>
      <contour>
        <pt x="306" y="78" on="1"/>
        <pt x="371" y="78" on="0"/>
        <pt x="464" y="111" on="0"/>
        <pt x="524" y="181" on="0"/>
        <pt x="553" y="292" on="0"/>
        <pt x="553" y="370" on="1"/>
        <pt x="553" y="448" on="0"/>
        <pt x="526" y="557" on="0"/>
        <pt x="467" y="627" on="0"/>
        <pt x="374" y="659" on="0"/>
        <pt x="309" y="659" on="1"/>
        <pt x="285" y="659" on="0"/>
        <pt x="228" y="656" on="0"/>
        <pt x="202" y="652" on="1"/>
        <pt x="202" y="413" on="1"/>
        <pt x="354" y="413" on="1"/>
        <pt x="354" y="328" on="1"/>
        <pt x="202" y="328" on="1"/>
        <pt x="202" y="85" on="1"/>
        <pt x="232" y="81" on="0"/>
        <pt x="280" y="78" on="0"/>
      </contour>
    </TTGlyph>
    <TTGlyph name="Eth.sc" xMin="10" yMin="-9" xMax="601" yMax="585">
      <contour>
        <pt x="10" y="328" on="1"/>
        <pt x="89" y="328" on="1"/>
        <pt x="89" y="575" on="1"/>
        <pt x="142" y="580" on="0"/>
        <pt x="238" y="585" on="0"/>
        <pt x="272" y="585" on="1"/>
        <pt x="358" y="585" on="0"/>
        <pt x="482" y="550" on="0"/>
        <pt x="563" y="478" on="0"/>
        <pt x="601" y="366" on="0"/>
        <pt x="601" y="288" on="1"/>
        <pt x="601" y="209" on="0"/>
        <pt x="561" y="97" on="0"/>
        <pt x="476" y="25" on="0"/>
        <pt x="342" y="-9" on="0"/>
        <pt x="249" y="-9" on="1"/>
        <pt x="204" y="-9" on="0"/>
        <pt x="120" y="-4" on="0"/>
        <pt x="89" y="1" on="1"/>
        <pt x="89" y="250" on="1"/>
        <pt x="10" y="250" on="1"/>
      </contour>
      <contour>
        <pt x="285" y="76" on="1"/>
        <pt x="340" y="76" on="0"/>
        <pt x="420" y="99" on="0"/>
        <pt x="470" y="150" on="0"/>
        <pt x="494" y="230" on="0"/>
        <pt x="494" y="288" on="1"/>
        <pt x="494" y="346" on="0"/>
        <pt x="471" y="426" on="0"/>
        <pt x="421" y="477" on="0"/>
        <pt x="341" y="500" on="0"/>
        <pt x="285" y="500" on="1"/>
        <pt x="265" y="500" on="0"/>
        <pt x="216" y="497" on="0"/>
        <pt x="192" y="495" on="1"/>
        <pt x="192" y="328" on="1"/>
        <pt x="321" y="328" on="1"/>
        <pt x="321" y="250" on="1"/>
        <pt x="192" y="250" on="1"/>
        <pt x="192" y="81" on="1"/>
        <pt x="218" y="78" on="0"/>
        <pt x="262" y="76" on="0"/>
      </contour>
    </TTGlyph>
    <TTGlyph name="Etilde" xMin="79" yMin="0" xMax="549" yMax="940">
      <contour>
        <pt x="120" y="854" on="1"/>
        <pt x="146" y="896" on="0"/>
        <pt x="214" y="940" on="0"/>
        <pt x="247" y="940" on="1"/>
        <pt x="269" y="940" on="0"/>
        <pt x="310" y="927" on="0"/>
        <pt x="349" y="912" on="0"/>
        <pt x="388" y="899" on="0"/>
        <pt x="409" y="899" on="1"/>
        <pt x="451" y="899" on="0"/>
        <pt x="491" y="938" on="1"/>
        <pt x="515" y="912" on="1"/>
        <pt x="490" y="870" on="0"/>
        <pt x="421" y="825" on="0"/>
        <pt x="387" y="825" on="1"/>
        <pt x="366" y="825" on="0"/>
        <pt x="325" y="837" on="0"/>
        <pt x="286" y="852" on="0"/>
        <pt x="247" y="865" on="0"/>
        <pt x="226" y="865" on="1"/>
        <pt x="205" y="865" on="0"/>
        <pt x="164" y="848" on="0"/>
        <pt x="143" y="828" on="1"/>
      </contour>
      <contour>
        <pt x="79" y="740" on="1"/>
        <pt x="540" y="740" on="1"/>
        <pt x="540" y="650" on="1"/>
        <pt x="188" y="650" on="1"/>
        <pt x="188" y="419" on="1"/>
        <pt x="510" y="419" on="1"/>
        <pt x="510" y="329" on="1"/>
        <pt x="188" y="329" on="1"/>
        <pt x="188" y="90" on="1"/>
        <pt x="549" y="90" on="1"/>
        <pt x="549" y="0" on="1"/>
        <pt x="79" y="0" on="1"/>
      </contour>
    </TTGlyph>
    <TTGlyph name="Etilde.sc" xMin="75" yMin="0" xMax="496" yMax="743">
      <contour>
        <pt x="111" y="666" on="1"/>
        <pt x="136" y="704" on="0"/>
        <pt x="197" y="743" on="0"/>
        <pt x="227" y="743" on="1"/>
        <pt x="247" y="743" on="0"/>
        <pt x="283" y="733" on="0"/>
        <pt x="318" y="722" on="0"/>
        <pt x="354" y="712" on="0"/>
        <pt x="373" y="712" on="1"/>
        <pt x="410" y="712" on="0"/>
        <pt x="447" y="742" on="1"/>
        <pt x="468" y="721" on="1"/>
        <pt x="445" y="683" on="0"/>
        <pt x="381" y="643" on="0"/>
        <pt x="351" y="643" on="1"/>
        <pt x="332" y="643" on="0"/>
        <pt x="296" y="653" on="0"/>
        <pt x="260" y="664" on="0"/>
        <pt x="224" y="674" on="0"/>
        <pt x="206" y="674" on="1"/>
        <pt x="187" y="674" on="0"/>
        <pt x="151" y="661" on="0"/>
        <pt x="132" y="644" on="1"/>
      </contour>
      <contour>
        <pt x="75" y="577" on="1"/>
        <pt x="489" y="577" on="1"/>
        <pt x="489" y="495" on="1"/>
        <pt x="179" y="495" on="1"/>
        <pt x="179" y="330" on="1"/>
        <pt x="463" y="330" on="1"/>
        <pt x="463" y="254" on="1"/>
        <pt x="179" y="254" on="1"/>
        <pt x="179" y="82" on="1"/>
        <pt x="496" y="82" on="1"/>
        <pt x="496" y="0" on="1"/>
        <pt x="75" y="0" on="1"/>
      </contour>
    </TTGlyph>
    <TTGlyph name="Euro" xMin="39" yMin="-10" xMax="572" yMax="749">
      <contour>
        <pt x="39" y="487" on="1"/>
        <pt x="124" y="487" on="1"/>
        <pt x="146" y="622" on="0"/>
        <pt x="312" y="749" on="0"/>
        <pt x="464" y="749" on="1"/>
        <pt x="500" y="749" on="0"/>
        <pt x="552" y="743" on="0"/>
        <pt x="572" y="739" on="1"/>
        <pt x="544" y="650" on="1"/>
        <pt x="532" y="652" on="0"/>
        <pt x="499" y="655" on="0"/>
        <pt x="482" y="655" on="1"/>
        <pt x="424" y="655" on="0"/>
        <pt x="338" y="637" on="0"/>
        <pt x="279" y="598" on="0"/>
        <pt x="243" y="533" on="0"/>
        <pt x="235" y="487" on="1"/>
        <pt x="496" y="487" on="1"/>
        <pt x="477" y="420" on="1"/>
        <pt x="227" y="420" on="1"/>
        <pt x="226" y="408" on="0"/>
        <pt x="226" y="383" on="0"/>
        <pt x="226" y="369" on="1"/>
        <pt x="226" y="355" on="0"/>
        <pt x="226" y="330" on="0"/>
        <pt x="227" y="319" on="1"/>
        <pt x="461" y="319" on="1"/>
        <pt x="442" y="252" on="1"/>
        <pt x="235" y="252" on="1"/>
        <pt x="244" y="206" on="0"/>
        <pt x="280" y="142" on="0"/>
        <pt x="338" y="101" on="0"/>
        <pt x="422" y="83" on="0"/>
        <pt x="479" y="83" on="1"/>
        <pt x="518" y="83" on="0"/>
        <pt x="562" y="92" on="1"/>
        <pt x="562" y="-1" on="1"/>
        <pt x="529" y="-10" on="0"/>
        <pt x="468" y="-10" on="1"/>
        <pt x="314" y="-8" on="0"/>
        <pt x="148" y="118" on="0"/>
        <pt x="125" y="252" on="1"/>
        <pt x="39" y="252" on="1"/>
        <pt x="39" y="319" on="1"/>
        <pt x="117" y="319" on="1"/>
        <pt x="116" y="331" on="0"/>
        <pt x="116" y="355" on="0"/>
        <pt x="116" y="369" on="1"/>
        <pt x="116" y="382" on="0"/>
        <pt x="116" y="407" on="0"/>
        <pt x="117" y="420" on="1"/>
        <pt x="39" y="420" on="1"/>
      </contour>
    </TTGlyph>
    <TTGlyph name="Euro.tab" xMin="21" yMin="-10" xMax="542" yMax="749">
      <contour>
        <pt x="21" y="487" on="1"/>
        <pt x="105" y="487" on="1"/>
        <pt x="127" y="623" on="0"/>
        <pt x="286" y="749" on="0"/>
        <pt x="434" y="749" on="1"/>
        <pt x="470" y="749" on="0"/>
        <pt x="521" y="743" on="0"/>
        <pt x="542" y="739" on="1"/>
        <pt x="514" y="650" on="1"/>
        <pt x="489" y="655" on="0"/>
        <pt x="452" y="655" on="1"/>
        <pt x="345" y="655" on="0"/>
        <pt x="232" y="578" on="0"/>
        <pt x="216" y="487" on="1"/>
        <pt x="467" y="487" on="1"/>
        <pt x="449" y="420" on="1"/>
        <pt x="206" y="420" on="1"/>
        <pt x="204" y="411" on="0"/>
        <pt x="204" y="380" on="0"/>
        <pt x="204" y="369" on="1"/>
        <pt x="204" y="358" on="0"/>
        <pt x="204" y="329" on="0"/>
        <pt x="206" y="319" on="1"/>
        <pt x="433" y="319" on="1"/>
        <pt x="415" y="252" on="1"/>
        <pt x="216" y="252" on="1"/>
        <pt x="234" y="163" on="0"/>
        <pt x="346" y="83" on="0"/>
        <pt x="451" y="83" on="1"/>
        <pt x="488" y="83" on="0"/>
        <pt x="532" y="92" on="1"/>
        <pt x="532" y="-1" on="1"/>
        <pt x="499" y="-10" on="0"/>
        <pt x="439" y="-10" on="1"/>
        <pt x="290" y="-8" on="0"/>
        <pt x="128" y="118" on="0"/>
        <pt x="105" y="252" on="1"/>
        <pt x="21" y="252" on="1"/>
        <pt x="21" y="319" on="1"/>
        <pt x="96" y="319" on="1"/>
        <pt x="96" y="330" on="0"/>
        <pt x="95" y="357" on="0"/>
        <pt x="95" y="369" on="1"/>
        <pt x="95" y="381" on="0"/>
        <pt x="96" y="409" on="0"/>
        <pt x="96" y="420" on="1"/>
        <pt x="21" y="420" on="1"/>
      </contour>
    </TTGlyph>
    <TTGlyph name="F" xMin="79" yMin="0" xMax="532" yMax="740">
      <contour>
        <pt x="79" y="740" on="1"/>
        <pt x="532" y="740" on="1"/>
        <pt x="532" y="650" on="1"/>
        <pt x="188" y="650" on="1"/>
        <pt x="188" y="409" on="1"/>
        <pt x="501" y="409" on="1"/>
        <pt x="501" y="319" on="1"/>
        <pt x="188" y="319" on="1"/>
        <pt x="188" y="0" on="1"/>
        <pt x="79" y="0" on="1"/>
      </contour>
    </TTGlyph>
    <TTGlyph name="F.sc" xMin="75" yMin="0" xMax="483" yMax="577">
      <contour>
        <pt x="75" y="577" on="1"/>
        <pt x="483" y="577" on="1"/>
        <pt x="483" y="493" on="1"/>
        <pt x="179" y="493" on="1"/>
        <pt x="179" y="320" on="1"/>
        <pt x="455" y="320" on="1"/>
        <pt x="455" y="241" on="1"/>
        <pt x="179" y="241" on="1"/>
        <pt x="179" y="0" on="1"/>
        <pt x="75" y="0" on="1"/>
      </contour>
    </TTGlyph>
    <TTGlyph name="F_B.sc" xMin="75" yMin="-8" xMax="1043" yMax="585">
      <contour>
        <pt x="75" y="577" on="1"/>
        <pt x="483" y="577" on="1"/>
        <pt x="483" y="493" on="1"/>
        <pt x="179" y="493" on="1"/>
        <pt x="179" y="320" on="1"/>
        <pt x="455" y="320" on="1"/>
        <pt x="455" y="241" on="1"/>
        <pt x="179" y="241" on="1"/>
        <pt x="179" y="0" on="1"/>
        <pt x="75" y="0" on="1"/>
      </contour>
      <contour>
        <pt x="787" y="-8" on="1"/>
        <pt x="736" y="-8" on="0"/>
        <pt x="629" y="-2" on="0"/>
        <pt x="575" y="4" on="1"/>
        <pt x="575" y="573" on="1"/>
        <pt x="638" y="579" on="0"/>
        <pt x="731" y="585" on="0"/>
        <pt x="775" y="585" on="1"/>
        <pt x="905" y="585" on="0"/>
        <pt x="1023" y="508" on="0"/>
        <pt x="1023" y="425" on="1"/>
        <pt x="1023" y="374" on="0"/>
        <pt x="967" y="308" on="0"/>
        <pt x="914" y="297" on="1"/>
        <pt x="914" y="294" on="1"/>
        <pt x="977" y="283" on="0"/>
        <pt x="1043" y="212" on="0"/>
        <pt x="1043" y="155" on="1"/>
        <pt x="1043" y="-8" on="0"/>
      </contour>
      <contour>
        <pt x="790" y="67" on="1"/>
        <pt x="867" y="67" on="0"/>
        <pt x="940" y="114" on="0"/>
        <pt x="940" y="163" on="1"/>
        <pt x="940" y="213" on="0"/>
        <pt x="871" y="257" on="0"/>
        <pt x="793" y="257" on="1"/>
        <pt x="674" y="257" on="1"/>
        <pt x="674" y="73" on="1"/>
        <pt x="707" y="67" on="0"/>
      </contour>
      <contour>
        <pt x="787" y="326" on="1"/>
        <pt x="860" y="326" on="0"/>
        <pt x="920" y="368" on="0"/>
        <pt x="920" y="419" on="1"/>
        <pt x="920" y="467" on="0"/>
        <pt x="856" y="509" on="0"/>
        <pt x="782" y="509" on="1"/>
        <pt x="750" y="509" on="0"/>
        <pt x="698" y="507" on="0"/>
        <pt x="674" y="503" on="1"/>
        <pt x="674" y="326" on="1"/>
      </contour>
    </TTGlyph>
    <TTGlyph name="F_F.sc" xMin="75" yMin="0" xMax="983" yMax="577">
      <contour>
        <pt x="75" y="577" on="1"/>
        <pt x="483" y="577" on="1"/>
        <pt x="483" y="493" on="1"/>
        <pt x="179" y="493" on="1"/>
        <pt x="179" y="320" on="1"/>
        <pt x="455" y="320" on="1"/>
        <pt x="455" y="241" on="1"/>
        <pt x="179" y="241" on="1"/>
        <pt x="179" y="0" on="1"/>
        <pt x="75" y="0" on="1"/>
      </contour>
      <contour>
        <pt x="575" y="577" on="1"/>
        <pt x="983" y="577" on="1"/>
        <pt x="983" y="493" on="1"/>
        <pt x="679" y="493" on="1"/>
        <pt x="679" y="320" on="1"/>
        <pt x="955" y="320" on="1"/>
        <pt x="955" y="241" on="1"/>
        <pt x="679" y="241" on="1"/>
        <pt x="679" y="0" on="1"/>
        <pt x="575" y="0" on="1"/>
      </contour>
    </TTGlyph>
    <TTGlyph name="F_F_B.sc" xMin="75" yMin="-8" xMax="1543" yMax="585">
      <contour>
        <pt x="75" y="577" on="1"/>
        <pt x="483" y="577" on="1"/>
        <pt x="483" y="493" on="1"/>
        <pt x="179" y="493" on="1"/>
        <pt x="179" y="320" on="1"/>
        <pt x="455" y="320" on="1"/>
        <pt x="455" y="241" on="1"/>
        <pt x="179" y="241" on="1"/>
        <pt x="179" y="0" on="1"/>
        <pt x="75" y="0" on="1"/>
      </contour>
      <contour>
        <pt x="575" y="577" on="1"/>
        <pt x="983" y="577" on="1"/>
        <pt x="983" y="493" on="1"/>
        <pt x="679" y="493" on="1"/>
        <pt x="679" y="320" on="1"/>
        <pt x="955" y="320" on="1"/>
        <pt x="955" y="241" on="1"/>
        <pt x="679" y="241" on="1"/>
        <pt x="679" y="0" on="1"/>
        <pt x="575" y="0" on="1"/>
      </contour>
      <contour>
        <pt x="1287" y="-8" on="1"/>
        <pt x="1236" y="-8" on="0"/>
        <pt x="1129" y="-2" on="0"/>
        <pt x="1075" y="4" on="1"/>
        <pt x="1075" y="573" on="1"/>
        <pt x="1138" y="579" on="0"/>
        <pt x="1231" y="585" on="0"/>
        <pt x="1275" y="585" on="1"/>
        <pt x="1405" y="585" on="0"/>
        <pt x="1523" y="508" on="0"/>
        <pt x="1523" y="425" on="1"/>
        <pt x="1523" y="374" on="0"/>
        <pt x="1467" y="308" on="0"/>
        <pt x="1414" y="297" on="1"/>
        <pt x="1414" y="294" on="1"/>
        <pt x="1477" y="283" on="0"/>
        <pt x="1543" y="212" on="0"/>
        <pt x="1543" y="155" on="1"/>
        <pt x="1543" y="-8" on="0"/>
      </contour>
      <contour>
        <pt x="1290" y="67" on="1"/>
        <pt x="1367" y="67" on="0"/>
        <pt x="1440" y="114" on="0"/>
        <pt x="1440" y="163" on="1"/>
        <pt x="1440" y="213" on="0"/>
        <pt x="1371" y="257" on="0"/>
        <pt x="1293" y="257" on="1"/>
        <pt x="1174" y="257" on="1"/>
        <pt x="1174" y="73" on="1"/>
        <pt x="1207" y="67" on="0"/>
      </contour>
      <contour>
        <pt x="1287" y="326" on="1"/>
        <pt x="1360" y="326" on="0"/>
        <pt x="1420" y="368" on="0"/>
        <pt x="1420" y="419" on="1"/>
        <pt x="1420" y="467" on="0"/>
        <pt x="1356" y="509" on="0"/>
        <pt x="1282" y="509" on="1"/>
        <pt x="1250" y="509" on="0"/>
        <pt x="1198" y="507" on="0"/>
        <pt x="1174" y="503" on="1"/>
        <pt x="1174" y="326" on="1"/>
      </contour>
    </TTGlyph>
    <TTGlyph name="F_F_H.sc" xMin="75" yMin="0" xMax="1592" yMax="577">
      <contour>
        <pt x="75" y="577" on="1"/>
        <pt x="483" y="577" on="1"/>
        <pt x="483" y="493" on="1"/>
        <pt x="179" y="493" on="1"/>
        <pt x="179" y="320" on="1"/>
        <pt x="455" y="320" on="1"/>
        <pt x="455" y="241" on="1"/>
        <pt x="179" y="241" on="1"/>
        <pt x="179" y="0" on="1"/>
        <pt x="75" y="0" on="1"/>
      </contour>
      <contour>
        <pt x="575" y="577" on="1"/>
        <pt x="983" y="577" on="1"/>
        <pt x="983" y="493" on="1"/>
        <pt x="679" y="493" on="1"/>
        <pt x="679" y="320" on="1"/>
        <pt x="955" y="320" on="1"/>
        <pt x="955" y="241" on="1"/>
        <pt x="679" y="241" on="1"/>
        <pt x="679" y="0" on="1"/>
        <pt x="575" y="0" on="1"/>
      </contour>
      <contour>
        <pt x="1075" y="577" on="1"/>
        <pt x="1179" y="577" on="1"/>
        <pt x="1179" y="338" on="1"/>
        <pt x="1488" y="338" on="1"/>
        <pt x="1488" y="577" on="1"/>
        <pt x="1592" y="577" on="1"/>
        <pt x="1592" y="0" on="1"/>
        <pt x="1488" y="0" on="1"/>
        <pt x="1488" y="254" on="1"/>
        <pt x="1179" y="254" on="1"/>
        <pt x="1179" y="0" on="1"/>
        <pt x="1075" y="0" on="1"/>
      </contour>
    </TTGlyph>
    <TTGlyph name="F_F_I.sc" xMin="75" yMin="0" xMax="1179" yMax="577">
      <contour>
        <pt x="75" y="577" on="1"/>
        <pt x="483" y="577" on="1"/>
        <pt x="483" y="493" on="1"/>
        <pt x="179" y="493" on="1"/>
        <pt x="179" y="320" on="1"/>
        <pt x="455" y="320" on="1"/>
        <pt x="455" y="241" on="1"/>
        <pt x="179" y="241" on="1"/>
        <pt x="179" y="0" on="1"/>
        <pt x="75" y="0" on="1"/>
      </contour>
      <contour>
        <pt x="575" y="577" on="1"/>
        <pt x="983" y="577" on="1"/>
        <pt x="983" y="493" on="1"/>
        <pt x="679" y="493" on="1"/>
        <pt x="679" y="320" on="1"/>
        <pt x="955" y="320" on="1"/>
        <pt x="955" y="241" on="1"/>
        <pt x="679" y="241" on="1"/>
        <pt x="679" y="0" on="1"/>
        <pt x="575" y="0" on="1"/>
      </contour>
      <contour>
        <pt x="1075" y="577" on="1"/>
        <pt x="1179" y="577" on="1"/>
        <pt x="1179" y="0" on="1"/>
        <pt x="1075" y="0" on="1"/>
      </contour>
    </TTGlyph>
    <TTGlyph name="F_F_J.sc" xMin="75" yMin="-155" xMax="1190" yMax="577">
      <contour>
        <pt x="75" y="577" on="1"/>
        <pt x="483" y="577" on="1"/>
        <pt x="483" y="493" on="1"/>
        <pt x="179" y="493" on="1"/>
        <pt x="179" y="320" on="1"/>
        <pt x="455" y="320" on="1"/>
        <pt x="455" y="241" on="1"/>
        <pt x="179" y="241" on="1"/>
        <pt x="179" y="0" on="1"/>
        <pt x="75" y="0" on="1"/>
      </contour>
      <contour>
        <pt x="575" y="577" on="1"/>
        <pt x="983" y="577" on="1"/>
        <pt x="983" y="493" on="1"/>
        <pt x="679" y="493" on="1"/>
        <pt x="679" y="320" on="1"/>
        <pt x="955" y="320" on="1"/>
        <pt x="955" y="241" on="1"/>
        <pt x="679" y="241" on="1"/>
        <pt x="679" y="0" on="1"/>
        <pt x="575" y="0" on="1"/>
      </contour>
      <contour>
        <pt x="1018" y="-124" on="1"/>
        <pt x="1038" y="-85" on="0"/>
        <pt x="1064" y="-20" on="0"/>
        <pt x="1080" y="43" on="0"/>
        <pt x="1086" y="109" on="0"/>
        <pt x="1086" y="149" on="1"/>
        <pt x="1086" y="577" on="1"/>
        <pt x="1190" y="577" on="1"/>
        <pt x="1190" y="141" on="1"/>
        <pt x="1190" y="102" on="0"/>
        <pt x="1179" y="32" on="0"/>
        <pt x="1155" y="-38" on="0"/>
        <pt x="1115" y="-112" on="0"/>
        <pt x="1086" y="-155" on="1"/>
      </contour>
    </TTGlyph>
    <TTGlyph name="F_F_K.sc" xMin="75" yMin="0" xMax="1586" yMax="577">
      <contour>
        <pt x="75" y="577" on="1"/>
        <pt x="483" y="577" on="1"/>
        <pt x="483" y="493" on="1"/>
        <pt x="179" y="493" on="1"/>
        <pt x="179" y="320" on="1"/>
        <pt x="455" y="320" on="1"/>
        <pt x="455" y="241" on="1"/>
        <pt x="179" y="241" on="1"/>
        <pt x="179" y="0" on="1"/>
        <pt x="75" y="0" on="1"/>
      </contour>
      <contour>
        <pt x="575" y="577" on="1"/>
        <pt x="983" y="577" on="1"/>
        <pt x="983" y="493" on="1"/>
        <pt x="679" y="493" on="1"/>
        <pt x="679" y="320" on="1"/>
        <pt x="955" y="320" on="1"/>
        <pt x="955" y="241" on="1"/>
        <pt x="679" y="241" on="1"/>
        <pt x="679" y="0" on="1"/>
        <pt x="575" y="0" on="1"/>
      </contour>
      <contour>
        <pt x="1075" y="577" on="1"/>
        <pt x="1179" y="577" on="1"/>
        <pt x="1179" y="335" on="1"/>
        <pt x="1278" y="335" on="1"/>
        <pt x="1452" y="577" on="1"/>
        <pt x="1570" y="577" on="1"/>
        <pt x="1384" y="321" on="1"/>
        <pt x="1346" y="300" on="1"/>
        <pt x="1346" y="295" on="1"/>
        <pt x="1385" y="275" on="1"/>
        <pt x="1586" y="0" on="1"/>
        <pt x="1469" y="0" on="1"/>
        <pt x="1284" y="251" on="1"/>
        <pt x="1179" y="251" on="1"/>
        <pt x="1179" y="0" on="1"/>
        <pt x="1075" y="0" on="1"/>
      </contour>
    </TTGlyph>
    <TTGlyph name="F_F_L.sc" xMin="75" yMin="0" xMax="1446" yMax="577">
      <contour>
        <pt x="1075" y="577" on="1"/>
        <pt x="1179" y="577" on="1"/>
        <pt x="1179" y="84" on="1"/>
        <pt x="1446" y="84" on="1"/>
        <pt x="1446" y="0" on="1"/>
        <pt x="1075" y="0" on="1"/>
      </contour>
      <contour>
        <pt x="75" y="577" on="1"/>
        <pt x="483" y="577" on="1"/>
        <pt x="483" y="493" on="1"/>
        <pt x="179" y="493" on="1"/>
        <pt x="179" y="320" on="1"/>
        <pt x="455" y="320" on="1"/>
        <pt x="455" y="241" on="1"/>
        <pt x="179" y="241" on="1"/>
        <pt x="179" y="0" on="1"/>
        <pt x="75" y="0" on="1"/>
      </contour>
      <contour>
        <pt x="575" y="577" on="1"/>
        <pt x="983" y="577" on="1"/>
        <pt x="983" y="493" on="1"/>
        <pt x="679" y="493" on="1"/>
        <pt x="679" y="320" on="1"/>
        <pt x="955" y="320" on="1"/>
        <pt x="955" y="241" on="1"/>
        <pt x="679" y="241" on="1"/>
        <pt x="679" y="0" on="1"/>
        <pt x="575" y="0" on="1"/>
      </contour>
    </TTGlyph>
    <TTGlyph name="F_F_T.sc" xMin="75" yMin="0" xMax="1484" yMax="577">
      <contour>
        <pt x="1192" y="492" on="1"/>
        <pt x="1004" y="492" on="1"/>
        <pt x="1004" y="577" on="1"/>
        <pt x="1484" y="577" on="1"/>
        <pt x="1484" y="492" on="1"/>
        <pt x="1296" y="492" on="1"/>
        <pt x="1296" y="0" on="1"/>
        <pt x="1192" y="0" on="1"/>
      </contour>
      <contour>
        <pt x="75" y="577" on="1"/>
        <pt x="483" y="577" on="1"/>
        <pt x="483" y="493" on="1"/>
        <pt x="179" y="493" on="1"/>
        <pt x="179" y="320" on="1"/>
        <pt x="455" y="320" on="1"/>
        <pt x="455" y="241" on="1"/>
        <pt x="179" y="241" on="1"/>
        <pt x="179" y="0" on="1"/>
        <pt x="75" y="0" on="1"/>
      </contour>
      <contour>
        <pt x="575" y="577" on="1"/>
        <pt x="983" y="577" on="1"/>
        <pt x="983" y="493" on="1"/>
        <pt x="679" y="493" on="1"/>
        <pt x="679" y="320" on="1"/>
        <pt x="955" y="320" on="1"/>
        <pt x="955" y="241" on="1"/>
        <pt x="679" y="241" on="1"/>
        <pt x="679" y="0" on="1"/>
        <pt x="575" y="0" on="1"/>
      </contour>
    </TTGlyph>
    <TTGlyph name="F_H.sc" xMin="75" yMin="0" xMax="1092" yMax="577">
      <contour>
        <pt x="75" y="577" on="1"/>
        <pt x="483" y="577" on="1"/>
        <pt x="483" y="493" on="1"/>
        <pt x="179" y="493" on="1"/>
        <pt x="179" y="320" on="1"/>
        <pt x="455" y="320" on="1"/>
        <pt x="455" y="241" on="1"/>
        <pt x="179" y="241" on="1"/>
        <pt x="179" y="0" on="1"/>
        <pt x="75" y="0" on="1"/>
      </contour>
      <contour>
        <pt x="575" y="577" on="1"/>
        <pt x="679" y="577" on="1"/>
        <pt x="679" y="338" on="1"/>
        <pt x="988" y="338" on="1"/>
        <pt x="988" y="577" on="1"/>
        <pt x="1092" y="577" on="1"/>
        <pt x="1092" y="0" on="1"/>
        <pt x="988" y="0" on="1"/>
        <pt x="988" y="254" on="1"/>
        <pt x="679" y="254" on="1"/>
        <pt x="679" y="0" on="1"/>
        <pt x="575" y="0" on="1"/>
      </contour>
    </TTGlyph>
    <TTGlyph name="F_I.sc" xMin="75" yMin="0" xMax="679" yMax="577">
      <contour>
        <pt x="75" y="577" on="1"/>
        <pt x="483" y="577" on="1"/>
        <pt x="483" y="493" on="1"/>
        <pt x="179" y="493" on="1"/>
        <pt x="179" y="320" on="1"/>
        <pt x="455" y="320" on="1"/>
        <pt x="455" y="241" on="1"/>
        <pt x="179" y="241" on="1"/>
        <pt x="179" y="0" on="1"/>
        <pt x="75" y="0" on="1"/>
      </contour>
      <contour>
        <pt x="575" y="577" on="1"/>
        <pt x="679" y="577" on="1"/>
        <pt x="679" y="0" on="1"/>
        <pt x="575" y="0" on="1"/>
      </contour>
    </TTGlyph>
    <TTGlyph name="F_J.sc" xMin="75" yMin="-155" xMax="689" yMax="577">
      <contour>
        <pt x="75" y="577" on="1"/>
        <pt x="483" y="577" on="1"/>
        <pt x="483" y="493" on="1"/>
        <pt x="179" y="493" on="1"/>
        <pt x="179" y="320" on="1"/>
        <pt x="455" y="320" on="1"/>
        <pt x="455" y="241" on="1"/>
        <pt x="179" y="241" on="1"/>
        <pt x="179" y="0" on="1"/>
        <pt x="75" y="0" on="1"/>
      </contour>
      <contour>
        <pt x="517" y="-124" on="1"/>
        <pt x="537" y="-85" on="0"/>
        <pt x="563" y="-20" on="0"/>
        <pt x="579" y="43" on="0"/>
        <pt x="585" y="109" on="0"/>
        <pt x="585" y="149" on="1"/>
        <pt x="585" y="577" on="1"/>
        <pt x="689" y="577" on="1"/>
        <pt x="689" y="141" on="1"/>
        <pt x="689" y="102" on="0"/>
        <pt x="678" y="32" on="0"/>
        <pt x="654" y="-38" on="0"/>
        <pt x="614" y="-112" on="0"/>
        <pt x="585" y="-155" on="1"/>
      </contour>
    </TTGlyph>
    <TTGlyph name="F_K.sc" xMin="75" yMin="0" xMax="1086" yMax="577">
      <contour>
        <pt x="75" y="577" on="1"/>
        <pt x="483" y="577" on="1"/>
        <pt x="483" y="493" on="1"/>
        <pt x="179" y="493" on="1"/>
        <pt x="179" y="320" on="1"/>
        <pt x="455" y="320" on="1"/>
        <pt x="455" y="241" on="1"/>
        <pt x="179" y="241" on="1"/>
        <pt x="179" y="0" on="1"/>
        <pt x="75" y="0" on="1"/>
      </contour>
      <contour>
        <pt x="575" y="577" on="1"/>
        <pt x="679" y="577" on="1"/>
        <pt x="679" y="335" on="1"/>
        <pt x="778" y="335" on="1"/>
        <pt x="952" y="577" on="1"/>
        <pt x="1070" y="577" on="1"/>
        <pt x="884" y="321" on="1"/>
        <pt x="846" y="300" on="1"/>
        <pt x="846" y="295" on="1"/>
        <pt x="885" y="275" on="1"/>
        <pt x="1086" y="0" on="1"/>
        <pt x="969" y="0" on="1"/>
        <pt x="784" y="251" on="1"/>
        <pt x="679" y="251" on="1"/>
        <pt x="679" y="0" on="1"/>
        <pt x="575" y="0" on="1"/>
      </contour>
    </TTGlyph>
    <TTGlyph name="F_L.sc" xMin="75" yMin="0" xMax="946" yMax="577">
      <contour>
        <pt x="575" y="577" on="1"/>
        <pt x="679" y="577" on="1"/>
        <pt x="679" y="84" on="1"/>
        <pt x="946" y="84" on="1"/>
        <pt x="946" y="0" on="1"/>
        <pt x="575" y="0" on="1"/>
      </contour>
      <contour>
        <pt x="75" y="577" on="1"/>
        <pt x="483" y="577" on="1"/>
        <pt x="483" y="493" on="1"/>
        <pt x="179" y="493" on="1"/>
        <pt x="179" y="320" on="1"/>
        <pt x="455" y="320" on="1"/>
        <pt x="455" y="241" on="1"/>
        <pt x="179" y="241" on="1"/>
        <pt x="179" y="0" on="1"/>
        <pt x="75" y="0" on="1"/>
      </contour>
    </TTGlyph>
    <TTGlyph name="F_T.sc" xMin="75" yMin="0" xMax="984" yMax="577">
      <contour>
        <pt x="692" y="492" on="1"/>
        <pt x="504" y="492" on="1"/>
        <pt x="504" y="577" on="1"/>
        <pt x="984" y="577" on="1"/>
        <pt x="984" y="492" on="1"/>
        <pt x="796" y="492" on="1"/>
        <pt x="796" y="0" on="1"/>
        <pt x="692" y="0" on="1"/>
      </contour>
      <contour>
        <pt x="75" y="577" on="1"/>
        <pt x="483" y="577" on="1"/>
        <pt x="483" y="493" on="1"/>
        <pt x="179" y="493" on="1"/>
        <pt x="179" y="320" on="1"/>
        <pt x="455" y="320" on="1"/>
        <pt x="455" y="241" on="1"/>
        <pt x="179" y="241" on="1"/>
        <pt x="179" y="0" on="1"/>
        <pt x="75" y="0" on="1"/>
      </contour>
    </TTGlyph>
    <TTGlyph name="G" xMin="45" yMin="-10" xMax="580" yMax="750">
      <contour>
        <pt x="381" y="-10" on="1"/>
        <pt x="209" y="-9" on="0"/>
        <pt x="45" y="177" on="0"/>
        <pt x="45" y="369" on="1"/>
        <pt x="45" y="562" on="0"/>
        <pt x="217" y="750" on="0"/>
        <pt x="395" y="750" on="1"/>
        <pt x="436" y="750" on="0"/>
        <pt x="530" y="739" on="0"/>
        <pt x="574" y="728" on="1"/>
        <pt x="574" y="638" on="1"/>
        <pt x="520" y="649" on="0"/>
        <pt x="439" y="658" on="0"/>
        <pt x="404" y="658" on="1"/>
        <pt x="337" y="658" on="0"/>
        <pt x="243" y="626" on="0"/>
        <pt x="184" y="556" on="0"/>
        <pt x="157" y="447" on="0"/>
        <pt x="157" y="369" on="1"/>
        <pt x="157" y="292" on="0"/>
        <pt x="183" y="184" on="0"/>
        <pt x="238" y="114" on="0"/>
        <pt x="325" y="82" on="0"/>
        <pt x="386" y="82" on="1"/>
        <pt x="404" y="82" on="0"/>
        <pt x="453" y="86" on="0"/>
        <pt x="479" y="89" on="1"/>
        <pt x="479" y="376" on="1"/>
        <pt x="580" y="376" on="1"/>
        <pt x="580" y="17" on="1"/>
        <pt x="526" y="4" on="0"/>
        <pt x="423" y="-10" on="0"/>
      </contour>
    </TTGlyph>
    <TTGlyph name="G.sc" xMin="44" yMin="-8" xMax="523" yMax="585">
      <contour>
        <pt x="342" y="-8" on="1"/>
        <pt x="190" y="-8" on="0"/>
        <pt x="44" y="138" on="0"/>
        <pt x="44" y="288" on="1"/>
        <pt x="44" y="439" on="0"/>
        <pt x="197" y="585" on="0"/>
        <pt x="356" y="585" on="1"/>
        <pt x="392" y="585" on="0"/>
        <pt x="478" y="576" on="0"/>
        <pt x="517" y="568" on="1"/>
        <pt x="517" y="484" on="1"/>
        <pt x="467" y="492" on="0"/>
        <pt x="395" y="499" on="0"/>
        <pt x="365" y="499" on="1"/>
        <pt x="306" y="499" on="0"/>
        <pt x="225" y="476" on="0"/>
        <pt x="174" y="425" on="0"/>
        <pt x="152" y="345" on="0"/>
        <pt x="152" y="288" on="1"/>
        <pt x="152" y="231" on="0"/>
        <pt x="173" y="152" on="0"/>
        <pt x="220" y="102" on="0"/>
        <pt x="295" y="79" on="0"/>
        <pt x="348" y="79" on="1"/>
        <pt x="354" y="79" on="0"/>
        <pt x="374" y="80" on="0"/>
        <pt x="396" y="81" on="0"/>
        <pt x="418" y="84" on="0"/>
        <pt x="426" y="86" on="1"/>
        <pt x="426" y="293" on="1"/>
        <pt x="523" y="293" on="1"/>
        <pt x="523" y="15" on="1"/>
        <pt x="475" y="4" on="0"/>
        <pt x="380" y="-8" on="0"/>
      </contour>
    </TTGlyph>
    <TTGlyph name="Gacute" xMin="45" yMin="-10" xMax="580" yMax="952">
      <contour>
        <pt x="307" y="803" on="1"/>
        <pt x="379" y="952" on="1"/>
        <pt x="490" y="952" on="1"/>
        <pt x="388" y="796" on="1"/>
      </contour>
      <contour>
        <pt x="381" y="-10" on="1"/>
        <pt x="209" y="-9" on="0"/>
        <pt x="45" y="177" on="0"/>
        <pt x="45" y="369" on="1"/>
        <pt x="45" y="562" on="0"/>
        <pt x="217" y="750" on="0"/>
        <pt x="395" y="750" on="1"/>
        <pt x="436" y="750" on="0"/>
        <pt x="530" y="739" on="0"/>
        <pt x="574" y="728" on="1"/>
        <pt x="574" y="638" on="1"/>
        <pt x="520" y="649" on="0"/>
        <pt x="439" y="658" on="0"/>
        <pt x="404" y="658" on="1"/>
        <pt x="337" y="658" on="0"/>
        <pt x="243" y="626" on="0"/>
        <pt x="184" y="556" on="0"/>
        <pt x="157" y="447" on="0"/>
        <pt x="157" y="369" on="1"/>
        <pt x="157" y="292" on="0"/>
        <pt x="183" y="184" on="0"/>
        <pt x="238" y="114" on="0"/>
        <pt x="325" y="82" on="0"/>
        <pt x="386" y="82" on="1"/>
        <pt x="404" y="82" on="0"/>
        <pt x="453" y="86" on="0"/>
        <pt x="479" y="89" on="1"/>
        <pt x="479" y="376" on="1"/>
        <pt x="580" y="376" on="1"/>
        <pt x="580" y="17" on="1"/>
        <pt x="526" y="4" on="0"/>
        <pt x="423" y="-10" on="0"/>
      </contour>
    </TTGlyph>
    <TTGlyph name="Gacute.sc" xMin="44" yMin="-8" xMax="523" yMax="752">
      <contour>
        <pt x="342" y="-8" on="1"/>
        <pt x="190" y="-8" on="0"/>
        <pt x="44" y="138" on="0"/>
        <pt x="44" y="288" on="1"/>
        <pt x="44" y="439" on="0"/>
        <pt x="198" y="585" on="0"/>
        <pt x="356" y="585" on="1"/>
        <pt x="393" y="585" on="0"/>
        <pt x="478" y="576" on="0"/>
        <pt x="517" y="568" on="1"/>
        <pt x="517" y="482" on="1"/>
        <pt x="467" y="491" on="0"/>
        <pt x="395" y="499" on="0"/>
        <pt x="365" y="499" on="1"/>
        <pt x="307" y="499" on="0"/>
        <pt x="226" y="476" on="0"/>
        <pt x="175" y="426" on="0"/>
        <pt x="152" y="346" on="0"/>
        <pt x="152" y="288" on="1"/>
        <pt x="152" y="231" on="0"/>
        <pt x="174" y="151" on="0"/>
        <pt x="221" y="102" on="0"/>
        <pt x="295" y="79" on="0"/>
        <pt x="348" y="79" on="1"/>
        <pt x="354" y="79" on="0"/>
        <pt x="374" y="80" on="0"/>
        <pt x="396" y="81" on="0"/>
        <pt x="418" y="84" on="0"/>
        <pt x="426" y="86" on="1"/>
        <pt x="426" y="293" on="1"/>
        <pt x="523" y="293" on="1"/>
        <pt x="523" y="15" on="1"/>
        <pt x="475" y="4" on="0"/>
        <pt x="380" y="-8" on="0"/>
      </contour>
      <contour>
        <pt x="274" y="628" on="1"/>
        <pt x="336" y="752" on="1"/>
        <pt x="442" y="752" on="1"/>
        <pt x="350" y="622" on="1"/>
      </contour>
    </TTGlyph>
    <TTGlyph name="Gbreve" xMin="45" yMin="-10" xMax="580" yMax="965">
      <contour>
        <pt x="357" y="810" on="1"/>
        <pt x="266" y="810" on="0"/>
        <pt x="177" y="895" on="0"/>
        <pt x="177" y="965" on="1"/>
        <pt x="254" y="965" on="1"/>
        <pt x="254" y="918" on="0"/>
        <pt x="304" y="869" on="0"/>
        <pt x="357" y="869" on="1"/>
        <pt x="410" y="869" on="0"/>
        <pt x="460" y="918" on="0"/>
        <pt x="460" y="965" on="1"/>
        <pt x="537" y="965" on="1"/>
        <pt x="537" y="894" on="0"/>
        <pt x="448" y="810" on="0"/>
      </contour>
      <contour>
        <pt x="381" y="-10" on="1"/>
        <pt x="209" y="-9" on="0"/>
        <pt x="45" y="177" on="0"/>
        <pt x="45" y="369" on="1"/>
        <pt x="45" y="562" on="0"/>
        <pt x="217" y="750" on="0"/>
        <pt x="395" y="750" on="1"/>
        <pt x="436" y="750" on="0"/>
        <pt x="530" y="739" on="0"/>
        <pt x="574" y="728" on="1"/>
        <pt x="574" y="638" on="1"/>
        <pt x="520" y="649" on="0"/>
        <pt x="439" y="658" on="0"/>
        <pt x="404" y="658" on="1"/>
        <pt x="337" y="658" on="0"/>
        <pt x="243" y="626" on="0"/>
        <pt x="184" y="556" on="0"/>
        <pt x="157" y="447" on="0"/>
        <pt x="157" y="369" on="1"/>
        <pt x="157" y="292" on="0"/>
        <pt x="183" y="184" on="0"/>
        <pt x="238" y="114" on="0"/>
        <pt x="325" y="82" on="0"/>
        <pt x="386" y="82" on="1"/>
        <pt x="404" y="82" on="0"/>
        <pt x="453" y="86" on="0"/>
        <pt x="479" y="89" on="1"/>
        <pt x="479" y="376" on="1"/>
        <pt x="580" y="376" on="1"/>
        <pt x="580" y="17" on="1"/>
        <pt x="526" y="4" on="0"/>
        <pt x="423" y="-10" on="0"/>
      </contour>
    </TTGlyph>
    <TTGlyph name="Gbreve.sc" xMin="44" yMin="-8" xMax="523" yMax="759">
      <contour>
        <pt x="342" y="-8" on="1"/>
        <pt x="190" y="-8" on="0"/>
        <pt x="44" y="138" on="0"/>
        <pt x="44" y="288" on="1"/>
        <pt x="44" y="439" on="0"/>
        <pt x="198" y="585" on="0"/>
        <pt x="356" y="585" on="1"/>
        <pt x="393" y="585" on="0"/>
        <pt x="478" y="576" on="0"/>
        <pt x="517" y="568" on="1"/>
        <pt x="517" y="482" on="1"/>
        <pt x="467" y="491" on="0"/>
        <pt x="395" y="499" on="0"/>
        <pt x="365" y="499" on="1"/>
        <pt x="307" y="499" on="0"/>
        <pt x="226" y="476" on="0"/>
        <pt x="175" y="426" on="0"/>
        <pt x="152" y="346" on="0"/>
        <pt x="152" y="288" on="1"/>
        <pt x="152" y="231" on="0"/>
        <pt x="174" y="151" on="0"/>
        <pt x="221" y="102" on="0"/>
        <pt x="295" y="79" on="0"/>
        <pt x="348" y="79" on="1"/>
        <pt x="354" y="79" on="0"/>
        <pt x="374" y="80" on="0"/>
        <pt x="396" y="81" on="0"/>
        <pt x="418" y="84" on="0"/>
        <pt x="426" y="86" on="1"/>
        <pt x="426" y="293" on="1"/>
        <pt x="523" y="293" on="1"/>
        <pt x="523" y="15" on="1"/>
        <pt x="475" y="4" on="0"/>
        <pt x="380" y="-8" on="0"/>
      </contour>
      <contour>
        <pt x="321" y="630" on="1"/>
        <pt x="238" y="630" on="0"/>
        <pt x="159" y="701" on="0"/>
        <pt x="159" y="759" on="1"/>
        <pt x="231" y="759" on="1"/>
        <pt x="231" y="721" on="0"/>
        <pt x="274" y="684" on="0"/>
        <pt x="321" y="684" on="1"/>
        <pt x="369" y="684" on="0"/>
        <pt x="411" y="721" on="0"/>
        <pt x="411" y="759" on="1"/>
        <pt x="484" y="759" on="1"/>
        <pt x="484" y="701" on="0"/>
        <pt x="405" y="630" on="0"/>
      </contour>
    </TTGlyph>
    <TTGlyph name="Gcircumflex" xMin="45" yMin="-10" xMax="580" yMax="962">
      <contour>
        <pt x="381" y="-10" on="1"/>
        <pt x="209" y="-9" on="0"/>
        <pt x="45" y="177" on="0"/>
        <pt x="45" y="369" on="1"/>
        <pt x="45" y="562" on="0"/>
        <pt x="217" y="750" on="0"/>
        <pt x="395" y="750" on="1"/>
        <pt x="436" y="750" on="0"/>
        <pt x="530" y="739" on="0"/>
        <pt x="574" y="728" on="1"/>
        <pt x="574" y="638" on="1"/>
        <pt x="520" y="649" on="0"/>
        <pt x="439" y="658" on="0"/>
        <pt x="404" y="658" on="1"/>
        <pt x="337" y="658" on="0"/>
        <pt x="243" y="626" on="0"/>
        <pt x="184" y="556" on="0"/>
        <pt x="157" y="447" on="0"/>
        <pt x="157" y="369" on="1"/>
        <pt x="157" y="292" on="0"/>
        <pt x="183" y="184" on="0"/>
        <pt x="238" y="114" on="0"/>
        <pt x="325" y="82" on="0"/>
        <pt x="386" y="82" on="1"/>
        <pt x="404" y="82" on="0"/>
        <pt x="453" y="86" on="0"/>
        <pt x="479" y="89" on="1"/>
        <pt x="479" y="376" on="1"/>
        <pt x="580" y="376" on="1"/>
        <pt x="580" y="17" on="1"/>
        <pt x="526" y="4" on="0"/>
        <pt x="423" y="-10" on="0"/>
      </contour>
      <contour>
        <pt x="190" y="888" on="1"/>
        <pt x="354" y="962" on="1"/>
        <pt x="518" y="888" on="1"/>
        <pt x="518" y="807" on="1"/>
        <pt x="354" y="881" on="1"/>
        <pt x="190" y="807" on="1"/>
      </contour>
    </TTGlyph>
    <TTGlyph name="Gcircumflex.sc" xMin="44" yMin="-8" xMax="523" yMax="758">
      <contour>
        <pt x="342" y="-8" on="1"/>
        <pt x="190" y="-8" on="0"/>
        <pt x="44" y="138" on="0"/>
        <pt x="44" y="288" on="1"/>
        <pt x="44" y="439" on="0"/>
        <pt x="198" y="585" on="0"/>
        <pt x="356" y="585" on="1"/>
        <pt x="393" y="585" on="0"/>
        <pt x="478" y="576" on="0"/>
        <pt x="517" y="568" on="1"/>
        <pt x="517" y="482" on="1"/>
        <pt x="467" y="491" on="0"/>
        <pt x="395" y="499" on="0"/>
        <pt x="365" y="499" on="1"/>
        <pt x="307" y="499" on="0"/>
        <pt x="226" y="476" on="0"/>
        <pt x="175" y="426" on="0"/>
        <pt x="152" y="346" on="0"/>
        <pt x="152" y="288" on="1"/>
        <pt x="152" y="231" on="0"/>
        <pt x="174" y="151" on="0"/>
        <pt x="221" y="102" on="0"/>
        <pt x="295" y="79" on="0"/>
        <pt x="348" y="79" on="1"/>
        <pt x="354" y="79" on="0"/>
        <pt x="374" y="80" on="0"/>
        <pt x="396" y="81" on="0"/>
        <pt x="418" y="84" on="0"/>
        <pt x="426" y="86" on="1"/>
        <pt x="426" y="293" on="1"/>
        <pt x="523" y="293" on="1"/>
        <pt x="523" y="15" on="1"/>
        <pt x="475" y="4" on="0"/>
        <pt x="380" y="-8" on="0"/>
      </contour>
      <contour>
        <pt x="170" y="700" on="1"/>
        <pt x="317" y="758" on="1"/>
        <pt x="465" y="700" on="1"/>
        <pt x="465" y="627" on="1"/>
        <pt x="317" y="685" on="1"/>
        <pt x="170" y="627" on="1"/>
      </contour>
    </TTGlyph>
    <TTGlyph name="Gcommaaccent" xMin="45" yMin="-220" xMax="580" yMax="750">
      <contour>
        <pt x="310" y="-69" on="1"/>
        <pt x="420" y="-69" on="1"/>
        <pt x="348" y="-220" on="1"/>
        <pt x="263" y="-220" on="1"/>
      </contour>
      <contour>
        <pt x="381" y="-10" on="1"/>
        <pt x="209" y="-9" on="0"/>
        <pt x="45" y="177" on="0"/>
        <pt x="45" y="369" on="1"/>
        <pt x="45" y="562" on="0"/>
        <pt x="217" y="750" on="0"/>
        <pt x="395" y="750" on="1"/>
        <pt x="436" y="750" on="0"/>
        <pt x="530" y="739" on="0"/>
        <pt x="574" y="728" on="1"/>
        <pt x="574" y="638" on="1"/>
        <pt x="520" y="649" on="0"/>
        <pt x="439" y="658" on="0"/>
        <pt x="404" y="658" on="1"/>
        <pt x="337" y="658" on="0"/>
        <pt x="243" y="626" on="0"/>
        <pt x="184" y="556" on="0"/>
        <pt x="157" y="447" on="0"/>
        <pt x="157" y="369" on="1"/>
        <pt x="157" y="292" on="0"/>
        <pt x="183" y="184" on="0"/>
        <pt x="238" y="114" on="0"/>
        <pt x="325" y="82" on="0"/>
        <pt x="386" y="82" on="1"/>
        <pt x="404" y="82" on="0"/>
        <pt x="453" y="86" on="0"/>
        <pt x="479" y="89" on="1"/>
        <pt x="479" y="376" on="1"/>
        <pt x="580" y="376" on="1"/>
        <pt x="580" y="17" on="1"/>
        <pt x="526" y="4" on="0"/>
        <pt x="423" y="-10" on="0"/>
      </contour>
    </TTGlyph>
    <TTGlyph name="Gcommaaccent.sc" xMin="44" yMin="-172" xMax="523" yMax="585">
      <contour>
        <pt x="342" y="-8" on="1"/>
        <pt x="190" y="-8" on="0"/>
        <pt x="44" y="138" on="0"/>
        <pt x="44" y="288" on="1"/>
        <pt x="44" y="439" on="0"/>
        <pt x="198" y="585" on="0"/>
        <pt x="356" y="585" on="1"/>
        <pt x="393" y="585" on="0"/>
        <pt x="478" y="576" on="0"/>
        <pt x="517" y="568" on="1"/>
        <pt x="517" y="482" on="1"/>
        <pt x="467" y="491" on="0"/>
        <pt x="395" y="499" on="0"/>
        <pt x="365" y="499" on="1"/>
        <pt x="307" y="499" on="0"/>
        <pt x="226" y="476" on="0"/>
        <pt x="175" y="426" on="0"/>
        <pt x="152" y="346" on="0"/>
        <pt x="152" y="288" on="1"/>
        <pt x="152" y="231" on="0"/>
        <pt x="174" y="151" on="0"/>
        <pt x="221" y="102" on="0"/>
        <pt x="295" y="79" on="0"/>
        <pt x="348" y="79" on="1"/>
        <pt x="354" y="79" on="0"/>
        <pt x="374" y="80" on="0"/>
        <pt x="396" y="81" on="0"/>
        <pt x="418" y="84" on="0"/>
        <pt x="426" y="86" on="1"/>
        <pt x="426" y="293" on="1"/>
        <pt x="523" y="293" on="1"/>
        <pt x="523" y="15" on="1"/>
        <pt x="475" y="4" on="0"/>
        <pt x="380" y="-8" on="0"/>
      </contour>
      <contour>
        <pt x="274" y="-54" on="1"/>
        <pt x="380" y="-54" on="1"/>
        <pt x="315" y="-172" on="1"/>
        <pt x="235" y="-172" on="1"/>
      </contour>
    </TTGlyph>
    <TTGlyph name="Gdotaccent" xMin="45" yMin="-10" xMax="580" yMax="933">
      <contour>
        <pt x="358" y="806" on="1"/>
        <pt x="325" y="806" on="0"/>
        <pt x="293" y="836" on="0"/>
        <pt x="293" y="869" on="1"/>
        <pt x="293" y="903" on="0"/>
        <pt x="325" y="933" on="0"/>
        <pt x="358" y="933" on="1"/>
        <pt x="423" y="933" on="0"/>
        <pt x="423" y="869" on="1"/>
        <pt x="423" y="806" on="0"/>
      </contour>
      <contour>
        <pt x="381" y="-10" on="1"/>
        <pt x="209" y="-9" on="0"/>
        <pt x="45" y="177" on="0"/>
        <pt x="45" y="369" on="1"/>
        <pt x="45" y="562" on="0"/>
        <pt x="217" y="750" on="0"/>
        <pt x="395" y="750" on="1"/>
        <pt x="436" y="750" on="0"/>
        <pt x="530" y="739" on="0"/>
        <pt x="574" y="728" on="1"/>
        <pt x="574" y="638" on="1"/>
        <pt x="520" y="649" on="0"/>
        <pt x="439" y="658" on="0"/>
        <pt x="404" y="658" on="1"/>
        <pt x="337" y="658" on="0"/>
        <pt x="243" y="626" on="0"/>
        <pt x="184" y="556" on="0"/>
        <pt x="157" y="447" on="0"/>
        <pt x="157" y="369" on="1"/>
        <pt x="157" y="292" on="0"/>
        <pt x="183" y="184" on="0"/>
        <pt x="238" y="114" on="0"/>
        <pt x="325" y="82" on="0"/>
        <pt x="386" y="82" on="1"/>
        <pt x="404" y="82" on="0"/>
        <pt x="453" y="86" on="0"/>
        <pt x="479" y="89" on="1"/>
        <pt x="479" y="376" on="1"/>
        <pt x="580" y="376" on="1"/>
        <pt x="580" y="17" on="1"/>
        <pt x="526" y="4" on="0"/>
        <pt x="423" y="-10" on="0"/>
      </contour>
    </TTGlyph>
    <TTGlyph name="Gdotaccent.sc" xMin="44" yMin="-8" xMax="523" yMax="743">
      <contour>
        <pt x="342" y="-8" on="1"/>
        <pt x="190" y="-8" on="0"/>
        <pt x="44" y="138" on="0"/>
        <pt x="44" y="288" on="1"/>
        <pt x="44" y="439" on="0"/>
        <pt x="198" y="585" on="0"/>
        <pt x="356" y="585" on="1"/>
        <pt x="393" y="585" on="0"/>
        <pt x="478" y="576" on="0"/>
        <pt x="517" y="568" on="1"/>
        <pt x="517" y="482" on="1"/>
        <pt x="467" y="491" on="0"/>
        <pt x="395" y="499" on="0"/>
        <pt x="365" y="499" on="1"/>
        <pt x="307" y="499" on="0"/>
        <pt x="226" y="476" on="0"/>
        <pt x="175" y="426" on="0"/>
        <pt x="152" y="346" on="0"/>
        <pt x="152" y="288" on="1"/>
        <pt x="152" y="231" on="0"/>
        <pt x="174" y="151" on="0"/>
        <pt x="221" y="102" on="0"/>
        <pt x="295" y="79" on="0"/>
        <pt x="348" y="79" on="1"/>
        <pt x="354" y="79" on="0"/>
        <pt x="374" y="80" on="0"/>
        <pt x="396" y="81" on="0"/>
        <pt x="418" y="84" on="0"/>
        <pt x="426" y="86" on="1"/>
        <pt x="426" y="293" on="1"/>
        <pt x="523" y="293" on="1"/>
        <pt x="523" y="15" on="1"/>
        <pt x="475" y="4" on="0"/>
        <pt x="380" y="-8" on="0"/>
      </contour>
      <contour>
        <pt x="322" y="628" on="1"/>
        <pt x="292" y="628" on="0"/>
        <pt x="262" y="654" on="0"/>
        <pt x="262" y="686" on="1"/>
        <pt x="262" y="716" on="0"/>
        <pt x="292" y="743" on="0"/>
        <pt x="322" y="743" on="1"/>
        <pt x="383" y="743" on="0"/>
        <pt x="383" y="686" on="1"/>
        <pt x="383" y="628" on="0"/>
      </contour>
    </TTGlyph>
    <TTGlyph name="H" xMin="79" yMin="0" xMax="654" yMax="740">
      <contour>
        <pt x="79" y="740" on="1"/>
        <pt x="188" y="740" on="1"/>
        <pt x="188" y="424" on="1"/>
        <pt x="546" y="424" on="1"/>
        <pt x="546" y="740" on="1"/>
        <pt x="654" y="740" on="1"/>
        <pt x="654" y="0" on="1"/>
        <pt x="546" y="0" on="1"/>
        <pt x="546" y="334" on="1"/>
        <pt x="188" y="334" on="1"/>
        <pt x="188" y="0" on="1"/>
        <pt x="79" y="0" on="1"/>
      </contour>
    </TTGlyph>
    <TTGlyph name="H.sc" xMin="75" yMin="0" xMax="592" yMax="577">
      <contour>
        <pt x="75" y="577" on="1"/>
        <pt x="179" y="577" on="1"/>
        <pt x="179" y="338" on="1"/>
        <pt x="488" y="338" on="1"/>
        <pt x="488" y="577" on="1"/>
        <pt x="592" y="577" on="1"/>
        <pt x="592" y="0" on="1"/>
        <pt x="488" y="0" on="1"/>
        <pt x="488" y="254" on="1"/>
        <pt x="179" y="254" on="1"/>
        <pt x="179" y="0" on="1"/>
        <pt x="75" y="0" on="1"/>
      </contour>
    </TTGlyph>
    <TTGlyph name="Hbar" xMin="4" yMin="0" xMax="753" yMax="740">
      <contour>
        <pt x="4" y="601" on="1"/>
        <pt x="89" y="601" on="1"/>
        <pt x="89" y="740" on="1"/>
        <pt x="198" y="740" on="1"/>
        <pt x="198" y="601" on="1"/>
        <pt x="556" y="601" on="1"/>
        <pt x="556" y="740" on="1"/>
        <pt x="664" y="740" on="1"/>
        <pt x="664" y="601" on="1"/>
        <pt x="753" y="601" on="1"/>
        <pt x="753" y="544" on="1"/>
        <pt x="664" y="544" on="1"/>
        <pt x="664" y="0" on="1"/>
        <pt x="556" y="0" on="1"/>
        <pt x="556" y="334" on="1"/>
        <pt x="198" y="334" on="1"/>
        <pt x="198" y="0" on="1"/>
        <pt x="89" y="0" on="1"/>
        <pt x="89" y="544" on="1"/>
        <pt x="4" y="544" on="1"/>
      </contour>
      <contour>
        <pt x="556" y="424" on="1"/>
        <pt x="556" y="544" on="1"/>
        <pt x="198" y="544" on="1"/>
        <pt x="198" y="424" on="1"/>
      </contour>
    </TTGlyph>
    <TTGlyph name="Hbar.sc" xMin="11" yMin="0" xMax="675" yMax="577">
      <contour>
        <pt x="11" y="474" on="1"/>
        <pt x="83" y="474" on="1"/>
        <pt x="83" y="577" on="1"/>
        <pt x="187" y="577" on="1"/>
        <pt x="187" y="474" on="1"/>
        <pt x="496" y="474" on="1"/>
        <pt x="496" y="577" on="1"/>
        <pt x="600" y="577" on="1"/>
        <pt x="600" y="474" on="1"/>
        <pt x="675" y="474" on="1"/>
        <pt x="675" y="422" on="1"/>
        <pt x="600" y="422" on="1"/>
        <pt x="600" y="0" on="1"/>
        <pt x="496" y="0" on="1"/>
        <pt x="496" y="250" on="1"/>
        <pt x="187" y="250" on="1"/>
        <pt x="187" y="0" on="1"/>
        <pt x="83" y="0" on="1"/>
        <pt x="83" y="422" on="1"/>
        <pt x="11" y="422" on="1"/>
      </contour>
      <contour>
        <pt x="496" y="334" on="1"/>
        <pt x="496" y="422" on="1"/>
        <pt x="187" y="422" on="1"/>
        <pt x="187" y="334" on="1"/>
      </contour>
    </TTGlyph>
    <TTGlyph name="Hcircumflex" xMin="79" yMin="0" xMax="654" yMax="962">
      <contour>
        <pt x="79" y="740" on="1"/>
        <pt x="188" y="740" on="1"/>
        <pt x="188" y="424" on="1"/>
        <pt x="546" y="424" on="1"/>
        <pt x="546" y="740" on="1"/>
        <pt x="654" y="740" on="1"/>
        <pt x="654" y="0" on="1"/>
        <pt x="546" y="0" on="1"/>
        <pt x="546" y="334" on="1"/>
        <pt x="188" y="334" on="1"/>
        <pt x="188" y="0" on="1"/>
        <pt x="79" y="0" on="1"/>
      </contour>
      <contour>
        <pt x="197" y="888" on="1"/>
        <pt x="361" y="962" on="1"/>
        <pt x="525" y="888" on="1"/>
        <pt x="525" y="807" on="1"/>
        <pt x="361" y="881" on="1"/>
        <pt x="197" y="807" on="1"/>
      </contour>
    </TTGlyph>
    <TTGlyph name="Hcircumflex.sc" xMin="75" yMin="0" xMax="592" yMax="758">
      <contour>
        <pt x="75" y="577" on="1"/>
        <pt x="179" y="577" on="1"/>
        <pt x="179" y="338" on="1"/>
        <pt x="488" y="338" on="1"/>
        <pt x="488" y="577" on="1"/>
        <pt x="592" y="577" on="1"/>
        <pt x="592" y="0" on="1"/>
        <pt x="488" y="0" on="1"/>
        <pt x="488" y="254" on="1"/>
        <pt x="179" y="254" on="1"/>
        <pt x="179" y="0" on="1"/>
        <pt x="75" y="0" on="1"/>
      </contour>
      <contour>
        <pt x="181" y="700" on="1"/>
        <pt x="329" y="758" on="1"/>
        <pt x="477" y="700" on="1"/>
        <pt x="477" y="627" on="1"/>
        <pt x="329" y="685" on="1"/>
        <pt x="181" y="627" on="1"/>
      </contour>
    </TTGlyph>
    <TTGlyph name="Hdotbelow" xMin="79" yMin="-188" xMax="654" yMax="740">
      <contour>
        <pt x="79" y="740" on="1"/>
        <pt x="188" y="740" on="1"/>
        <pt x="188" y="424" on="1"/>
        <pt x="546" y="424" on="1"/>
        <pt x="546" y="740" on="1"/>
        <pt x="654" y="740" on="1"/>
        <pt x="654" y="0" on="1"/>
        <pt x="546" y="0" on="1"/>
        <pt x="546" y="334" on="1"/>
        <pt x="188" y="334" on="1"/>
        <pt x="188" y="0" on="1"/>
        <pt x="79" y="0" on="1"/>
      </contour>
      <contour>
        <pt x="372" y="-188" on="1"/>
        <pt x="343" y="-188" on="0"/>
        <pt x="316" y="-162" on="0"/>
        <pt x="316" y="-133" on="1"/>
        <pt x="316" y="-103" on="0"/>
        <pt x="343" y="-77" on="0"/>
        <pt x="372" y="-77" on="1"/>
        <pt x="428" y="-77" on="0"/>
        <pt x="428" y="-133" on="1"/>
        <pt x="428" y="-188" on="0"/>
      </contour>
    </TTGlyph>
    <TTGlyph name="Hdotbelow.sc" xMin="75" yMin="-152" xMax="592" yMax="577">
      <contour>
        <pt x="75" y="577" on="1"/>
        <pt x="179" y="577" on="1"/>
        <pt x="179" y="338" on="1"/>
        <pt x="488" y="338" on="1"/>
        <pt x="488" y="577" on="1"/>
        <pt x="592" y="577" on="1"/>
        <pt x="592" y="0" on="1"/>
        <pt x="488" y="0" on="1"/>
        <pt x="488" y="254" on="1"/>
        <pt x="179" y="254" on="1"/>
        <pt x="179" y="0" on="1"/>
        <pt x="75" y="0" on="1"/>
      </contour>
      <contour>
        <pt x="337" y="-152" on="1"/>
        <pt x="286" y="-152" on="0"/>
        <pt x="286" y="-105" on="1"/>
        <pt x="286" y="-79" on="0"/>
        <pt x="311" y="-56" on="0"/>
        <pt x="337" y="-56" on="1"/>
        <pt x="389" y="-56" on="0"/>
        <pt x="389" y="-105" on="1"/>
        <pt x="389" y="-152" on="0"/>
      </contour>
    </TTGlyph>
    <TTGlyph name="I" xMin="79" yMin="0" xMax="188" yMax="740">
      <contour>
        <pt x="79" y="740" on="1"/>
        <pt x="188" y="740" on="1"/>
        <pt x="188" y="0" on="1"/>
        <pt x="79" y="0" on="1"/>
      </contour>
    </TTGlyph>
    <TTGlyph name="I.sc" xMin="75" yMin="0" xMax="179" yMax="577">
      <contour>
        <pt x="75" y="577" on="1"/>
        <pt x="179" y="577" on="1"/>
        <pt x="179" y="0" on="1"/>
        <pt x="75" y="0" on="1"/>
      </contour>
    </TTGlyph>
    <TTGlyph name="IJ" xMin="79" yMin="-193" xMax="456" yMax="740">
      <contour>
        <pt x="79" y="740" on="1"/>
        <pt x="188" y="740" on="1"/>
        <pt x="188" y="0" on="1"/>
        <pt x="79" y="0" on="1"/>
      </contour>
      <contour>
        <pt x="268" y="-159" on="1"/>
        <pt x="291" y="-109" on="0"/>
        <pt x="321" y="-26" on="0"/>
        <pt x="339" y="53" on="0"/>
        <pt x="347" y="137" on="0"/>
        <pt x="347" y="188" on="1"/>
        <pt x="347" y="740" on="1"/>
        <pt x="456" y="740" on="1"/>
        <pt x="456" y="181" on="1"/>
        <pt x="456" y="131" on="0"/>
        <pt x="444" y="42" on="0"/>
        <pt x="416" y="-46" on="0"/>
        <pt x="371" y="-139" on="0"/>
        <pt x="339" y="-193" on="1"/>
      </contour>
    </TTGlyph>
    <TTGlyph name="Iacute" xMin="79" yMin="0" xMax="273" yMax="952">
      <contour>
        <pt x="79" y="740" on="1"/>
        <pt x="188" y="740" on="1"/>
        <pt x="188" y="0" on="1"/>
        <pt x="79" y="0" on="1"/>
      </contour>
      <contour>
        <pt x="90" y="803" on="1"/>
        <pt x="162" y="952" on="1"/>
        <pt x="273" y="952" on="1"/>
        <pt x="171" y="796" on="1"/>
      </contour>
    </TTGlyph>
    <TTGlyph name="Iacute.sc" xMin="75" yMin="0" xMax="252" yMax="752">
      <contour>
        <pt x="75" y="577" on="1"/>
        <pt x="179" y="577" on="1"/>
        <pt x="179" y="0" on="1"/>
        <pt x="75" y="0" on="1"/>
      </contour>
      <contour>
        <pt x="85" y="628" on="1"/>
        <pt x="148" y="752" on="1"/>
        <pt x="252" y="752" on="1"/>
        <pt x="161" y="622" on="1"/>
      </contour>
    </TTGlyph>
    <TTGlyph name="Ibreve" xMin="-46" yMin="0" xMax="314" yMax="965">
      <contour>
        <pt x="79" y="740" on="1"/>
        <pt x="188" y="740" on="1"/>
        <pt x="188" y="0" on="1"/>
        <pt x="79" y="0" on="1"/>
      </contour>
      <contour>
        <pt x="134" y="810" on="1"/>
        <pt x="43" y="810" on="0"/>
        <pt x="-46" y="895" on="0"/>
        <pt x="-46" y="965" on="1"/>
        <pt x="31" y="965" on="1"/>
        <pt x="31" y="918" on="0"/>
        <pt x="81" y="869" on="0"/>
        <pt x="134" y="869" on="1"/>
        <pt x="187" y="869" on="0"/>
        <pt x="237" y="918" on="0"/>
        <pt x="237" y="965" on="1"/>
        <pt x="314" y="965" on="1"/>
        <pt x="314" y="894" on="0"/>
        <pt x="225" y="810" on="0"/>
      </contour>
    </TTGlyph>
    <TTGlyph name="Ibreve.sc" xMin="-35" yMin="0" xMax="290" yMax="759">
      <contour>
        <pt x="75" y="577" on="1"/>
        <pt x="179" y="577" on="1"/>
        <pt x="179" y="0" on="1"/>
        <pt x="75" y="0" on="1"/>
      </contour>
      <contour>
        <pt x="128" y="630" on="1"/>
        <pt x="44" y="630" on="0"/>
        <pt x="-35" y="701" on="0"/>
        <pt x="-35" y="759" on="1"/>
        <pt x="38" y="759" on="1"/>
        <pt x="38" y="721" on="0"/>
        <pt x="80" y="684" on="0"/>
        <pt x="128" y="684" on="1"/>
        <pt x="175" y="684" on="0"/>
        <pt x="218" y="721" on="0"/>
        <pt x="218" y="759" on="1"/>
        <pt x="290" y="759" on="1"/>
        <pt x="290" y="701" on="0"/>
        <pt x="211" y="630" on="0"/>
      </contour>
    </TTGlyph>
    <TTGlyph name="Icircumflex" xMin="-29" yMin="0" xMax="299" yMax="962">
      <contour>
        <pt x="79" y="740" on="1"/>
        <pt x="188" y="740" on="1"/>
        <pt x="188" y="0" on="1"/>
        <pt x="79" y="0" on="1"/>
      </contour>
      <contour>
        <pt x="-29" y="888" on="1"/>
        <pt x="135" y="962" on="1"/>
        <pt x="299" y="888" on="1"/>
        <pt x="299" y="807" on="1"/>
        <pt x="135" y="881" on="1"/>
        <pt x="-29" y="807" on="1"/>
      </contour>
    </TTGlyph>
    <TTGlyph name="Icircumflex.sc" xMin="-19" yMin="0" xMax="276" yMax="758">
      <contour>
        <pt x="75" y="577" on="1"/>
        <pt x="179" y="577" on="1"/>
        <pt x="179" y="0" on="1"/>
        <pt x="75" y="0" on="1"/>
      </contour>
      <contour>
        <pt x="-19" y="700" on="1"/>
        <pt x="128" y="758" on="1"/>
        <pt x="276" y="700" on="1"/>
        <pt x="276" y="627" on="1"/>
        <pt x="129" y="685" on="1"/>
        <pt x="-19" y="627" on="1"/>
      </contour>
    </TTGlyph>
    <TTGlyph name="Idblgrave" xMin="-82" yMin="0" xMax="260" yMax="949">
      <contour>
        <pt x="79" y="740" on="1"/>
        <pt x="188" y="740" on="1"/>
        <pt x="188" y="0" on="1"/>
        <pt x="79" y="0" on="1"/>
      </contour>
      <contour>
        <pt x="21" y="793" on="1"/>
        <pt x="-82" y="949" on="1"/>
        <pt x="20" y="949" on="1"/>
        <pt x="93" y="806" on="1"/>
      </contour>
      <contour>
        <pt x="189" y="793" on="1"/>
        <pt x="85" y="949" on="1"/>
        <pt x="188" y="949" on="1"/>
        <pt x="260" y="806" on="1"/>
      </contour>
    </TTGlyph>
    <TTGlyph name="Idblgrave.sc" xMin="-67" yMin="0" xMax="245" yMax="750">
      <contour>
        <pt x="75" y="577" on="1"/>
        <pt x="179" y="577" on="1"/>
        <pt x="179" y="0" on="1"/>
        <pt x="75" y="0" on="1"/>
      </contour>
      <contour>
        <pt x="25" y="620" on="1"/>
        <pt x="-67" y="750" on="1"/>
        <pt x="31" y="750" on="1"/>
        <pt x="93" y="630" on="1"/>
      </contour>
      <contour>
        <pt x="176" y="620" on="1"/>
        <pt x="84" y="750" on="1"/>
        <pt x="182" y="750" on="1"/>
        <pt x="245" y="630" on="1"/>
      </contour>
    </TTGlyph>
    <TTGlyph name="Idieresis" xMin="-53" yMin="0" xMax="324" yMax="939">
      <contour>
        <pt x="79" y="740" on="1"/>
        <pt x="188" y="740" on="1"/>
        <pt x="188" y="0" on="1"/>
        <pt x="79" y="0" on="1"/>
      </contour>
      <contour>
        <pt x="11" y="812" on="1"/>
        <pt x="-53" y="812" on="0"/>
        <pt x="-53" y="876" on="1"/>
        <pt x="-53" y="909" on="0"/>
        <pt x="-21" y="939" on="0"/>
        <pt x="11" y="939" on="1"/>
        <pt x="43" y="939" on="0"/>
        <pt x="76" y="909" on="0"/>
        <pt x="76" y="876" on="1"/>
        <pt x="76" y="812" on="0"/>
      </contour>
      <contour>
        <pt x="259" y="812" on="1"/>
        <pt x="194" y="812" on="0"/>
        <pt x="194" y="876" on="1"/>
        <pt x="194" y="909" on="0"/>
        <pt x="226" y="939" on="0"/>
        <pt x="259" y="939" on="1"/>
        <pt x="291" y="939" on="0"/>
        <pt x="324" y="909" on="0"/>
        <pt x="324" y="876" on="1"/>
        <pt x="324" y="812" on="0"/>
      </contour>
    </TTGlyph>
    <TTGlyph name="Idieresis.sc" xMin="-43" yMin="0" xMax="301" yMax="747">
      <contour>
        <pt x="75" y="577" on="1"/>
        <pt x="179" y="577" on="1"/>
        <pt x="179" y="0" on="1"/>
        <pt x="75" y="0" on="1"/>
      </contour>
      <contour>
        <pt x="17" y="631" on="1"/>
        <pt x="-43" y="631" on="0"/>
        <pt x="-43" y="689" on="1"/>
        <pt x="-43" y="747" on="0"/>
        <pt x="17" y="747" on="1"/>
        <pt x="78" y="747" on="0"/>
        <pt x="78" y="689" on="1"/>
        <pt x="78" y="631" on="0"/>
      </contour>
      <contour>
        <pt x="240" y="631" on="1"/>
        <pt x="180" y="631" on="0"/>
        <pt x="180" y="689" on="1"/>
        <pt x="180" y="747" on="0"/>
        <pt x="240" y="747" on="1"/>
        <pt x="301" y="747" on="0"/>
        <pt x="301" y="689" on="1"/>
        <pt x="301" y="631" on="0"/>
      </contour>
    </TTGlyph>
    <TTGlyph name="Idotaccent" xMin="70" yMin="0" xMax="200" yMax="933">
      <contour>
        <pt x="79" y="740" on="1"/>
        <pt x="188" y="740" on="1"/>
        <pt x="188" y="0" on="1"/>
        <pt x="79" y="0" on="1"/>
      </contour>
      <contour>
        <pt x="135" y="806" on="1"/>
        <pt x="102" y="806" on="0"/>
        <pt x="70" y="836" on="0"/>
        <pt x="70" y="869" on="1"/>
        <pt x="70" y="903" on="0"/>
        <pt x="102" y="933" on="0"/>
        <pt x="135" y="933" on="1"/>
        <pt x="200" y="933" on="0"/>
        <pt x="200" y="869" on="1"/>
        <pt x="200" y="806" on="0"/>
      </contour>
    </TTGlyph>
    <TTGlyph name="Idotaccent.sc" xMin="68" yMin="0" xMax="189" yMax="743">
      <contour>
        <pt x="75" y="577" on="1"/>
        <pt x="179" y="577" on="1"/>
        <pt x="179" y="0" on="1"/>
        <pt x="75" y="0" on="1"/>
      </contour>
      <contour>
        <pt x="128" y="628" on="1"/>
        <pt x="97" y="628" on="0"/>
        <pt x="68" y="654" on="0"/>
        <pt x="68" y="686" on="1"/>
        <pt x="68" y="716" on="0"/>
        <pt x="97" y="743" on="0"/>
        <pt x="128" y="743" on="1"/>
        <pt x="189" y="743" on="0"/>
        <pt x="189" y="686" on="1"/>
        <pt x="189" y="628" on="0"/>
      </contour>
    </TTGlyph>
    <TTGlyph name="Idotbelow" xMin="78" yMin="-188" xMax="190" yMax="740">
      <contour>
        <pt x="79" y="740" on="1"/>
        <pt x="188" y="740" on="1"/>
        <pt x="188" y="0" on="1"/>
        <pt x="79" y="0" on="1"/>
      </contour>
      <contour>
        <pt x="134" y="-188" on="1"/>
        <pt x="105" y="-188" on="0"/>
        <pt x="78" y="-162" on="0"/>
        <pt x="78" y="-133" on="1"/>
        <pt x="78" y="-103" on="0"/>
        <pt x="105" y="-77" on="0"/>
        <pt x="134" y="-77" on="1"/>
        <pt x="190" y="-77" on="0"/>
        <pt x="190" y="-133" on="1"/>
        <pt x="190" y="-188" on="0"/>
      </contour>
    </TTGlyph>
    <TTGlyph name="Idotbelow.sc" xMin="75" yMin="-152" xMax="180" yMax="577">
      <contour>
        <pt x="75" y="577" on="1"/>
        <pt x="179" y="577" on="1"/>
        <pt x="179" y="0" on="1"/>
        <pt x="75" y="0" on="1"/>
      </contour>
      <contour>
        <pt x="128" y="-152" on="1"/>
        <pt x="77" y="-152" on="0"/>
        <pt x="77" y="-105" on="1"/>
        <pt x="77" y="-79" on="0"/>
        <pt x="102" y="-56" on="0"/>
        <pt x="128" y="-56" on="1"/>
        <pt x="180" y="-56" on="0"/>
        <pt x="180" y="-105" on="1"/>
        <pt x="180" y="-152" on="0"/>
      </contour>
    </TTGlyph>
    <TTGlyph name="Igrave" xMin="-4" yMin="0" xMax="188" yMax="952">
      <contour>
        <pt x="79" y="740" on="1"/>
        <pt x="188" y="740" on="1"/>
        <pt x="188" y="0" on="1"/>
        <pt x="79" y="0" on="1"/>
      </contour>
      <contour>
        <pt x="98" y="796" on="1"/>
        <pt x="-4" y="952" on="1"/>
        <pt x="107" y="952" on="1"/>
        <pt x="179" y="809" on="1"/>
      </contour>
    </TTGlyph>
    <TTGlyph name="Igrave.sc" xMin="2" yMin="0" xMax="179" yMax="752">
      <contour>
        <pt x="75" y="577" on="1"/>
        <pt x="179" y="577" on="1"/>
        <pt x="179" y="0" on="1"/>
        <pt x="75" y="0" on="1"/>
      </contour>
      <contour>
        <pt x="94" y="622" on="1"/>
        <pt x="2" y="752" on="1"/>
        <pt x="108" y="752" on="1"/>
        <pt x="171" y="632" on="1"/>
      </contour>
    </TTGlyph>
    <TTGlyph name="Iinvertedbreve" xMin="-45" yMin="0" xMax="316" yMax="973">
      <contour>
        <pt x="79" y="740" on="1"/>
        <pt x="188" y="740" on="1"/>
        <pt x="188" y="0" on="1"/>
        <pt x="79" y="0" on="1"/>
      </contour>
      <contour>
        <pt x="238" y="817" on="1"/>
        <pt x="238" y="913" on="0"/>
        <pt x="135" y="913" on="1"/>
        <pt x="32" y="913" on="0"/>
        <pt x="32" y="817" on="1"/>
        <pt x="-45" y="817" on="1"/>
        <pt x="-45" y="888" on="0"/>
        <pt x="44" y="973" on="0"/>
        <pt x="135" y="973" on="1"/>
        <pt x="226" y="973" on="0"/>
        <pt x="316" y="888" on="0"/>
        <pt x="316" y="817" on="1"/>
      </contour>
    </TTGlyph>
    <TTGlyph name="Iinvertedbreve.sc" xMin="-34" yMin="0" xMax="291" yMax="764">
      <contour>
        <pt x="75" y="577" on="1"/>
        <pt x="179" y="577" on="1"/>
        <pt x="179" y="0" on="1"/>
        <pt x="75" y="0" on="1"/>
      </contour>
      <contour>
        <pt x="219" y="636" on="1"/>
        <pt x="219" y="673" on="0"/>
        <pt x="176" y="711" on="0"/>
        <pt x="129" y="711" on="1"/>
        <pt x="81" y="711" on="0"/>
        <pt x="39" y="673" on="0"/>
        <pt x="39" y="636" on="1"/>
        <pt x="-34" y="636" on="1"/>
        <pt x="-34" y="693" on="0"/>
        <pt x="44" y="764" on="0"/>
        <pt x="129" y="764" on="1"/>
        <pt x="212" y="764" on="0"/>
        <pt x="291" y="694" on="0"/>
        <pt x="291" y="636" on="1"/>
      </contour>
    </TTGlyph>
    <TTGlyph name="Imacron" xMin="-25" yMin="0" xMax="291" yMax="917">
      <contour>
        <pt x="79" y="740" on="1"/>
        <pt x="188" y="740" on="1"/>
        <pt x="188" y="0" on="1"/>
        <pt x="79" y="0" on="1"/>
      </contour>
      <contour>
        <pt x="-25" y="917" on="1"/>
        <pt x="291" y="917" on="1"/>
        <pt x="291" y="841" on="1"/>
        <pt x="-25" y="841" on="1"/>
      </contour>
    </TTGlyph>
    <TTGlyph name="Imacron.sc" xMin="-16" yMin="0" xMax="271" yMax="726">
      <contour>
        <pt x="75" y="577" on="1"/>
        <pt x="179" y="577" on="1"/>
        <pt x="179" y="0" on="1"/>
        <pt x="75" y="0" on="1"/>
      </contour>
      <contour>
        <pt x="-16" y="726" on="1"/>
        <pt x="271" y="726" on="1"/>
        <pt x="271" y="656" on="1"/>
        <pt x="-16" y="656" on="1"/>
      </contour>
    </TTGlyph>
    <TTGlyph name="Iogonek" xMin="3" yMin="-220" xMax="188" yMax="740">
      <contour>
        <pt x="79" y="740" on="1"/>
        <pt x="188" y="740" on="1"/>
        <pt x="188" y="-15" on="1"/>
        <pt x="130" y="-40" on="0"/>
        <pt x="77" y="-96" on="0"/>
        <pt x="77" y="-122" on="1"/>
        <pt x="77" y="-155" on="0"/>
        <pt x="120" y="-155" on="1"/>
        <pt x="134" y="-155" on="0"/>
        <pt x="171" y="-148" on="0"/>
        <pt x="188" y="-143" on="1"/>
        <pt x="188" y="-208" on="1"/>
        <pt x="155" y="-220" on="0"/>
        <pt x="115" y="-220" on="1"/>
        <pt x="3" y="-220" on="0"/>
        <pt x="3" y="-132" on="1"/>
        <pt x="3" y="-95" on="0"/>
        <pt x="49" y="-32" on="0"/>
        <pt x="100" y="0" on="1"/>
        <pt x="79" y="0" on="1"/>
      </contour>
    </TTGlyph>
    <TTGlyph name="Iogonek.sc" xMin="11" yMin="-172" xMax="179" yMax="577">
      <contour>
        <pt x="75" y="577" on="1"/>
        <pt x="179" y="577" on="1"/>
        <pt x="179" y="-10" on="1"/>
        <pt x="125" y="-30" on="0"/>
        <pt x="81" y="-69" on="0"/>
        <pt x="81" y="-89" on="1"/>
        <pt x="81" y="-113" on="0"/>
        <pt x="117" y="-113" on="1"/>
        <pt x="131" y="-113" on="0"/>
        <pt x="166" y="-107" on="0"/>
        <pt x="179" y="-104" on="1"/>
        <pt x="179" y="-162" on="1"/>
        <pt x="149" y="-172" on="0"/>
        <pt x="112" y="-172" on="1"/>
        <pt x="11" y="-172" on="0"/>
        <pt x="11" y="-101" on="1"/>
        <pt x="11" y="-72" on="0"/>
        <pt x="49" y="-25" on="0"/>
        <pt x="92" y="0" on="1"/>
        <pt x="75" y="0" on="1"/>
      </contour>
    </TTGlyph>
    <TTGlyph name="Itilde" xMin="-56" yMin="0" xMax="339" yMax="940">
      <contour>
        <pt x="79" y="740" on="1"/>
        <pt x="188" y="740" on="1"/>
        <pt x="188" y="0" on="1"/>
        <pt x="79" y="0" on="1"/>
      </contour>
      <contour>
        <pt x="-56" y="854" on="1"/>
        <pt x="-30" y="896" on="0"/>
        <pt x="38" y="940" on="0"/>
        <pt x="71" y="940" on="1"/>
        <pt x="93" y="940" on="0"/>
        <pt x="134" y="927" on="0"/>
        <pt x="173" y="912" on="0"/>
        <pt x="212" y="899" on="0"/>
        <pt x="233" y="899" on="1"/>
        <pt x="275" y="899" on="0"/>
        <pt x="315" y="938" on="1"/>
        <pt x="339" y="912" on="1"/>
        <pt x="314" y="870" on="0"/>
        <pt x="245" y="825" on="0"/>
        <pt x="211" y="825" on="1"/>
        <pt x="190" y="825" on="0"/>
        <pt x="149" y="837" on="0"/>
        <pt x="110" y="852" on="0"/>
        <pt x="71" y="865" on="0"/>
        <pt x="50" y="865" on="1"/>
        <pt x="29" y="865" on="0"/>
        <pt x="-12" y="848" on="0"/>
        <pt x="-33" y="828" on="1"/>
      </contour>
    </TTGlyph>
    <TTGlyph name="Itilde.sc" xMin="-44" yMin="0" xMax="312" yMax="743">
      <contour>
        <pt x="75" y="577" on="1"/>
        <pt x="179" y="577" on="1"/>
        <pt x="179" y="0" on="1"/>
        <pt x="75" y="0" on="1"/>
      </contour>
      <contour>
        <pt x="-44" y="666" on="1"/>
        <pt x="-19" y="704" on="0"/>
        <pt x="41" y="743" on="0"/>
        <pt x="71" y="743" on="1"/>
        <pt x="91" y="743" on="0"/>
        <pt x="128" y="733" on="0"/>
        <pt x="163" y="722" on="0"/>
        <pt x="199" y="712" on="0"/>
        <pt x="218" y="712" on="1"/>
        <pt x="255" y="712" on="0"/>
        <pt x="291" y="742" on="1"/>
        <pt x="312" y="721" on="1"/>
        <pt x="289" y="683" on="0"/>
        <pt x="227" y="643" on="0"/>
        <pt x="196" y="643" on="1"/>
        <pt x="176" y="643" on="0"/>
        <pt x="140" y="653" on="0"/>
        <pt x="104" y="664" on="0"/>
        <pt x="68" y="674" on="0"/>
        <pt x="50" y="674" on="1"/>
        <pt x="32" y="674" on="0"/>
        <pt x="-4" y="661" on="0"/>
        <pt x="-24" y="644" on="1"/>
      </contour>
    </TTGlyph>
    <TTGlyph name="J" xMin="2" yMin="-193" xMax="190" yMax="740">
      <contour>
        <pt x="2" y="-159" on="1"/>
        <pt x="25" y="-109" on="0"/>
        <pt x="55" y="-26" on="0"/>
        <pt x="73" y="53" on="0"/>
        <pt x="81" y="137" on="0"/>
        <pt x="81" y="188" on="1"/>
        <pt x="81" y="740" on="1"/>
        <pt x="190" y="740" on="1"/>
        <pt x="190" y="181" on="1"/>
        <pt x="190" y="131" on="0"/>
        <pt x="178" y="42" on="0"/>
        <pt x="150" y="-46" on="0"/>
        <pt x="105" y="-139" on="0"/>
        <pt x="73" y="-193" on="1"/>
      </contour>
    </TTGlyph>
    <TTGlyph name="J.sc" xMin="9" yMin="-155" xMax="181" yMax="577">
      <contour>
        <pt x="9" y="-124" on="1"/>
        <pt x="29" y="-85" on="0"/>
        <pt x="55" y="-20" on="0"/>
        <pt x="71" y="43" on="0"/>
        <pt x="77" y="109" on="0"/>
        <pt x="77" y="149" on="1"/>
        <pt x="77" y="577" on="1"/>
        <pt x="181" y="577" on="1"/>
        <pt x="181" y="141" on="1"/>
        <pt x="181" y="102" on="0"/>
        <pt x="170" y="32" on="0"/>
        <pt x="146" y="-38" on="0"/>
        <pt x="106" y="-112" on="0"/>
        <pt x="77" y="-155" on="1"/>
      </contour>
    </TTGlyph>
    <TTGlyph name="Jcircumflex" xMin="-28" yMin="-193" xMax="300" yMax="962">
      <contour>
        <pt x="2" y="-159" on="1"/>
        <pt x="25" y="-109" on="0"/>
        <pt x="55" y="-26" on="0"/>
        <pt x="73" y="53" on="0"/>
        <pt x="81" y="137" on="0"/>
        <pt x="81" y="188" on="1"/>
        <pt x="81" y="740" on="1"/>
        <pt x="190" y="740" on="1"/>
        <pt x="190" y="181" on="1"/>
        <pt x="190" y="131" on="0"/>
        <pt x="178" y="42" on="0"/>
        <pt x="150" y="-46" on="0"/>
        <pt x="105" y="-139" on="0"/>
        <pt x="73" y="-193" on="1"/>
      </contour>
      <contour>
        <pt x="-28" y="888" on="1"/>
        <pt x="136" y="962" on="1"/>
        <pt x="300" y="888" on="1"/>
        <pt x="300" y="807" on="1"/>
        <pt x="136" y="881" on="1"/>
        <pt x="-28" y="807" on="1"/>
      </contour>
    </TTGlyph>
    <TTGlyph name="Jcircumflex.sc" xMin="-18" yMin="-155" xMax="277" yMax="758">
      <contour>
        <pt x="9" y="-124" on="1"/>
        <pt x="28" y="-85" on="0"/>
        <pt x="54" y="-20" on="0"/>
        <pt x="70" y="43" on="0"/>
        <pt x="76" y="109" on="0"/>
        <pt x="76" y="149" on="1"/>
        <pt x="76" y="577" on="1"/>
        <pt x="181" y="577" on="1"/>
        <pt x="181" y="141" on="1"/>
        <pt x="181" y="102" on="0"/>
        <pt x="170" y="32" on="0"/>
        <pt x="145" y="-38" on="0"/>
        <pt x="105" y="-112" on="0"/>
        <pt x="76" y="-155" on="1"/>
      </contour>
      <contour>
        <pt x="-18" y="700" on="1"/>
        <pt x="129" y="758" on="1"/>
        <pt x="277" y="700" on="1"/>
        <pt x="277" y="627" on="1"/>
        <pt x="130" y="685" on="1"/>
        <pt x="-18" y="627" on="1"/>
      </contour>
    </TTGlyph>
    <TTGlyph name="K" xMin="79" yMin="0" xMax="649" yMax="740">
      <contour>
        <pt x="79" y="740" on="1"/>
        <pt x="188" y="740" on="1"/>
        <pt x="188" y="421" on="1"/>
        <pt x="302" y="421" on="1"/>
        <pt x="507" y="740" on="1"/>
        <pt x="631" y="740" on="1"/>
        <pt x="413" y="409" on="1"/>
        <pt x="376" y="384" on="1"/>
        <pt x="376" y="377" on="1"/>
        <pt x="416" y="352" on="1"/>
        <pt x="649" y="0" on="1"/>
        <pt x="526" y="0" on="1"/>
        <pt x="308" y="331" on="1"/>
        <pt x="188" y="331" on="1"/>
        <pt x="188" y="0" on="1"/>
        <pt x="79" y="0" on="1"/>
      </contour>
    </TTGlyph>
    <TTGlyph name="K.sc" xMin="75" yMin="0" xMax="586" yMax="577">
      <contour>
        <pt x="75" y="577" on="1"/>
        <pt x="179" y="577" on="1"/>
        <pt x="179" y="335" on="1"/>
        <pt x="278" y="335" on="1"/>
        <pt x="452" y="577" on="1"/>
        <pt x="570" y="577" on="1"/>
        <pt x="384" y="321" on="1"/>
        <pt x="346" y="300" on="1"/>
        <pt x="346" y="295" on="1"/>
        <pt x="385" y="275" on="1"/>
        <pt x="586" y="0" on="1"/>
        <pt x="469" y="0" on="1"/>
        <pt x="284" y="251" on="1"/>
        <pt x="179" y="251" on="1"/>
        <pt x="179" y="0" on="1"/>
        <pt x="75" y="0" on="1"/>
      </contour>
    </TTGlyph>
    <TTGlyph name="Kcommaaccent" xMin="79" yMin="-220" xMax="649" yMax="740">
      <contour>
        <pt x="278" y="-69" on="1"/>
        <pt x="388" y="-69" on="1"/>
        <pt x="316" y="-220" on="1"/>
        <pt x="231" y="-220" on="1"/>
      </contour>
      <contour>
        <pt x="79" y="740" on="1"/>
        <pt x="188" y="740" on="1"/>
        <pt x="188" y="421" on="1"/>
        <pt x="302" y="421" on="1"/>
        <pt x="507" y="740" on="1"/>
        <pt x="631" y="740" on="1"/>
        <pt x="413" y="409" on="1"/>
        <pt x="376" y="384" on="1"/>
        <pt x="376" y="377" on="1"/>
        <pt x="416" y="352" on="1"/>
        <pt x="649" y="0" on="1"/>
        <pt x="526" y="0" on="1"/>
        <pt x="308" y="331" on="1"/>
        <pt x="188" y="331" on="1"/>
        <pt x="188" y="0" on="1"/>
        <pt x="79" y="0" on="1"/>
      </contour>
    </TTGlyph>
    <TTGlyph name="Kcommaaccent.sc" xMin="75" yMin="-172" xMax="586" yMax="577">
      <contour>
        <pt x="75" y="577" on="1"/>
        <pt x="179" y="577" on="1"/>
        <pt x="179" y="335" on="1"/>
        <pt x="278" y="335" on="1"/>
        <pt x="452" y="577" on="1"/>
        <pt x="570" y="577" on="1"/>
        <pt x="384" y="321" on="1"/>
        <pt x="346" y="300" on="1"/>
        <pt x="346" y="295" on="1"/>
        <pt x="385" y="275" on="1"/>
        <pt x="586" y="0" on="1"/>
        <pt x="469" y="0" on="1"/>
        <pt x="284" y="251" on="1"/>
        <pt x="179" y="251" on="1"/>
        <pt x="179" y="0" on="1"/>
        <pt x="75" y="0" on="1"/>
      </contour>
      <contour>
        <pt x="258" y="-54" on="1"/>
        <pt x="364" y="-54" on="1"/>
        <pt x="299" y="-172" on="1"/>
        <pt x="219" y="-172" on="1"/>
      </contour>
    </TTGlyph>
    <TTGlyph name="L" xMin="79" yMin="0" xMax="490" yMax="740">
      <contour>
        <pt x="79" y="740" on="1"/>
        <pt x="188" y="740" on="1"/>
        <pt x="188" y="89" on="1"/>
        <pt x="490" y="89" on="1"/>
        <pt x="490" y="0" on="1"/>
        <pt x="79" y="0" on="1"/>
      </contour>
    </TTGlyph>
    <TTGlyph name="L.sc" xMin="75" yMin="0" xMax="446" yMax="577">
      <contour>
        <pt x="75" y="577" on="1"/>
        <pt x="179" y="577" on="1"/>
        <pt x="179" y="84" on="1"/>
        <pt x="446" y="84" on="1"/>
        <pt x="446" y="0" on="1"/>
        <pt x="75" y="0" on="1"/>
      </contour>
    </TTGlyph>
    <TTGlyph name="Lacute" xMin="79" yMin="0" xMax="490" yMax="952">
      <contour>
        <pt x="96" y="803" on="1"/>
        <pt x="168" y="952" on="1"/>
        <pt x="279" y="952" on="1"/>
        <pt x="177" y="796" on="1"/>
      </contour>
      <contour>
        <pt x="79" y="740" on="1"/>
        <pt x="188" y="740" on="1"/>
        <pt x="188" y="89" on="1"/>
        <pt x="490" y="89" on="1"/>
        <pt x="490" y="0" on="1"/>
        <pt x="79" y="0" on="1"/>
      </contour>
    </TTGlyph>
    <TTGlyph name="Lacute.sc" xMin="75" yMin="0" xMax="446" yMax="752">
      <contour>
        <pt x="75" y="577" on="1"/>
        <pt x="179" y="577" on="1"/>
        <pt x="179" y="84" on="1"/>
        <pt x="446" y="84" on="1"/>
        <pt x="446" y="0" on="1"/>
        <pt x="75" y="0" on="1"/>
      </contour>
      <contour>
        <pt x="91" y="628" on="1"/>
        <pt x="153" y="752" on="1"/>
        <pt x="259" y="752" on="1"/>
        <pt x="167" y="622" on="1"/>
      </contour>
    </TTGlyph>
    <TTGlyph name="Lcaron" xMin="79" yMin="0" xMax="490" yMax="768">
      <contour>
        <pt x="379" y="768" on="1"/>
        <pt x="467" y="768" on="1"/>
        <pt x="435" y="540" on="1"/>
        <pt x="379" y="540" on="1"/>
      </contour>
      <contour>
        <pt x="79" y="740" on="1"/>
        <pt x="188" y="740" on="1"/>
        <pt x="188" y="89" on="1"/>
        <pt x="490" y="89" on="1"/>
        <pt x="490" y="0" on="1"/>
        <pt x="79" y="0" on="1"/>
      </contour>
    </TTGlyph>
    <TTGlyph name="Lcaron.sc" xMin="75" yMin="0" xMax="446" yMax="606">
      <contour>
        <pt x="75" y="577" on="1"/>
        <pt x="179" y="577" on="1"/>
        <pt x="179" y="84" on="1"/>
        <pt x="446" y="84" on="1"/>
        <pt x="446" y="0" on="1"/>
        <pt x="75" y="0" on="1"/>
      </contour>
      <contour>
        <pt x="343" y="606" on="1"/>
        <pt x="426" y="606" on="1"/>
        <pt x="396" y="429" on="1"/>
        <pt x="343" y="429" on="1"/>
      </contour>
    </TTGlyph>
    <TTGlyph name="Lcommaaccent" xMin="79" yMin="-220" xMax="490" yMax="740">
      <contour>
        <pt x="232" y="-69" on="1"/>
        <pt x="342" y="-69" on="1"/>
        <pt x="270" y="-220" on="1"/>
        <pt x="185" y="-220" on="1"/>
      </contour>
      <contour>
        <pt x="79" y="740" on="1"/>
        <pt x="188" y="740" on="1"/>
        <pt x="188" y="89" on="1"/>
        <pt x="490" y="89" on="1"/>
        <pt x="490" y="0" on="1"/>
        <pt x="79" y="0" on="1"/>
      </contour>
    </TTGlyph>
    <TTGlyph name="Lcommaaccent.sc" xMin="75" yMin="-172" xMax="446" yMax="577">
      <contour>
        <pt x="75" y="577" on="1"/>
        <pt x="179" y="577" on="1"/>
        <pt x="179" y="84" on="1"/>
        <pt x="446" y="84" on="1"/>
        <pt x="446" y="0" on="1"/>
        <pt x="75" y="0" on="1"/>
      </contour>
      <contour>
        <pt x="207" y="-54" on="1"/>
        <pt x="312" y="-54" on="1"/>
        <pt x="248" y="-172" on="1"/>
        <pt x="167" y="-172" on="1"/>
      </contour>
    </TTGlyph>
    <TTGlyph name="Ldot" xMin="79" yMin="0" xMax="490" yMax="740">
      <contour>
        <pt x="79" y="740" on="1"/>
        <pt x="188" y="740" on="1"/>
        <pt x="188" y="89" on="1"/>
        <pt x="490" y="89" on="1"/>
        <pt x="490" y="0" on="1"/>
        <pt x="79" y="0" on="1"/>
      </contour>
      <contour>
        <pt x="407" y="314" on="1"/>
        <pt x="374" y="314" on="0"/>
        <pt x="342" y="343" on="0"/>
        <pt x="342" y="377" on="1"/>
        <pt x="342" y="411" on="0"/>
        <pt x="374" y="441" on="0"/>
        <pt x="407" y="441" on="1"/>
        <pt x="472" y="441" on="0"/>
        <pt x="472" y="377" on="1"/>
        <pt x="472" y="344" on="0"/>
        <pt x="439" y="314" on="0"/>
      </contour>
    </TTGlyph>
    <TTGlyph name="Ldot.sc" xMin="75" yMin="0" xMax="446" yMax="577">
      <contour>
        <pt x="75" y="577" on="1"/>
        <pt x="179" y="577" on="1"/>
        <pt x="179" y="84" on="1"/>
        <pt x="446" y="84" on="1"/>
        <pt x="446" y="0" on="1"/>
        <pt x="75" y="0" on="1"/>
      </contour>
      <contour>
        <pt x="373" y="239" on="1"/>
        <pt x="342" y="239" on="0"/>
        <pt x="313" y="266" on="0"/>
        <pt x="313" y="297" on="1"/>
        <pt x="313" y="327" on="0"/>
        <pt x="342" y="354" on="0"/>
        <pt x="373" y="354" on="1"/>
        <pt x="404" y="354" on="0"/>
        <pt x="434" y="327" on="0"/>
        <pt x="434" y="297" on="1"/>
        <pt x="434" y="239" on="0"/>
      </contour>
    </TTGlyph>
    <TTGlyph name="Lslash" xMin="13" yMin="0" xMax="511" yMax="740">
      <contour>
        <pt x="13" y="312" on="1"/>
        <pt x="100" y="367" on="1"/>
        <pt x="100" y="740" on="1"/>
        <pt x="209" y="740" on="1"/>
        <pt x="209" y="435" on="1"/>
        <pt x="343" y="520" on="1"/>
        <pt x="343" y="432" on="1"/>
        <pt x="209" y="347" on="1"/>
        <pt x="209" y="89" on="1"/>
        <pt x="511" y="89" on="1"/>
        <pt x="511" y="0" on="1"/>
        <pt x="100" y="0" on="1"/>
        <pt x="100" y="279" on="1"/>
        <pt x="13" y="224" on="1"/>
      </contour>
    </TTGlyph>
    <TTGlyph name="Lslash.sc" xMin="18" yMin="0" xMax="464" yMax="577">
      <contour>
        <pt x="18" y="255" on="1"/>
        <pt x="93" y="299" on="1"/>
        <pt x="93" y="577" on="1"/>
        <pt x="197" y="577" on="1"/>
        <pt x="197" y="346" on="1"/>
        <pt x="316" y="413" on="1"/>
        <pt x="316" y="334" on="1"/>
        <pt x="197" y="267" on="1"/>
        <pt x="197" y="84" on="1"/>
        <pt x="464" y="84" on="1"/>
        <pt x="464" y="0" on="1"/>
        <pt x="93" y="0" on="1"/>
        <pt x="93" y="220" on="1"/>
        <pt x="18" y="175" on="1"/>
      </contour>
    </TTGlyph>
    <TTGlyph name="M" xMin="79" yMin="0" xMax="827" yMax="740">
      <contour>
        <pt x="79" y="740" on="1"/>
        <pt x="229" y="740" on="1"/>
        <pt x="401" y="298" on="1"/>
        <pt x="449" y="157" on="1"/>
        <pt x="456" y="157" on="1"/>
        <pt x="504" y="298" on="1"/>
        <pt x="676" y="740" on="1"/>
        <pt x="827" y="740" on="1"/>
        <pt x="827" y="0" on="1"/>
        <pt x="726" y="0" on="1"/>
        <pt x="726" y="600" on="1"/>
        <pt x="720" y="600" on="1"/>
        <pt x="656" y="426" on="1"/>
        <pt x="500" y="32" on="1"/>
        <pt x="404" y="32" on="1"/>
        <pt x="248" y="426" on="1"/>
        <pt x="184" y="600" on="1"/>
        <pt x="178" y="600" on="1"/>
        <pt x="178" y="0" on="1"/>
        <pt x="79" y="0" on="1"/>
      </contour>
    </TTGlyph>
    <TTGlyph name="M.sc" xMin="75" yMin="0" xMax="743" yMax="577">
      <contour>
        <pt x="75" y="577" on="1"/>
        <pt x="214" y="577" on="1"/>
        <pt x="363" y="250" on="1"/>
        <pt x="405" y="144" on="1"/>
        <pt x="412" y="144" on="1"/>
        <pt x="455" y="250" on="1"/>
        <pt x="603" y="577" on="1"/>
        <pt x="743" y="577" on="1"/>
        <pt x="743" y="0" on="1"/>
        <pt x="648" y="0" on="1"/>
        <pt x="648" y="454" on="1"/>
        <pt x="642" y="454" on="1"/>
        <pt x="580" y="310" on="1"/>
        <pt x="454" y="25" on="1"/>
        <pt x="364" y="25" on="1"/>
        <pt x="237" y="310" on="1"/>
        <pt x="176" y="454" on="1"/>
        <pt x="170" y="454" on="1"/>
        <pt x="170" y="0" on="1"/>
        <pt x="75" y="0" on="1"/>
      </contour>
    </TTGlyph>
    <TTGlyph name="N" xMin="79" yMin="0" xMax="668" yMax="740">
      <contour>
        <pt x="79" y="740" on="1"/>
        <pt x="172" y="740" on="1"/>
        <pt x="510" y="258" on="1"/>
        <pt x="563" y="172" on="1"/>
        <pt x="570" y="172" on="1"/>
        <pt x="570" y="740" on="1"/>
        <pt x="668" y="740" on="1"/>
        <pt x="668" y="0" on="1"/>
        <pt x="575" y="0" on="1"/>
        <pt x="237" y="480" on="1"/>
        <pt x="183" y="567" on="1"/>
        <pt x="176" y="567" on="1"/>
        <pt x="176" y="0" on="1"/>
        <pt x="79" y="0" on="1"/>
      </contour>
    </TTGlyph>
    <TTGlyph name="N.sc" xMin="75" yMin="0" xMax="595" yMax="577">
      <contour>
        <pt x="75" y="577" on="1"/>
        <pt x="160" y="577" on="1"/>
        <pt x="445" y="222" on="1"/>
        <pt x="495" y="155" on="1"/>
        <pt x="501" y="155" on="1"/>
        <pt x="501" y="577" on="1"/>
        <pt x="595" y="577" on="1"/>
        <pt x="595" y="0" on="1"/>
        <pt x="509" y="0" on="1"/>
        <pt x="226" y="354" on="1"/>
        <pt x="175" y="422" on="1"/>
        <pt x="168" y="422" on="1"/>
        <pt x="168" y="0" on="1"/>
        <pt x="75" y="0" on="1"/>
      </contour>
    </TTGlyph>
    <TTGlyph name="Nacute" xMin="79" yMin="0" xMax="668" yMax="952">
      <contour>
        <pt x="320" y="803" on="1"/>
        <pt x="392" y="952" on="1"/>
        <pt x="503" y="952" on="1"/>
        <pt x="401" y="796" on="1"/>
      </contour>
      <contour>
        <pt x="79" y="740" on="1"/>
        <pt x="172" y="740" on="1"/>
        <pt x="510" y="258" on="1"/>
        <pt x="563" y="172" on="1"/>
        <pt x="570" y="172" on="1"/>
        <pt x="570" y="740" on="1"/>
        <pt x="668" y="740" on="1"/>
        <pt x="668" y="0" on="1"/>
        <pt x="575" y="0" on="1"/>
        <pt x="237" y="480" on="1"/>
        <pt x="183" y="567" on="1"/>
        <pt x="176" y="567" on="1"/>
        <pt x="176" y="0" on="1"/>
        <pt x="79" y="0" on="1"/>
      </contour>
    </TTGlyph>
    <TTGlyph name="Nacute.sc" xMin="75" yMin="0" xMax="595" yMax="752">
      <contour>
        <pt x="75" y="577" on="1"/>
        <pt x="160" y="577" on="1"/>
        <pt x="445" y="222" on="1"/>
        <pt x="495" y="155" on="1"/>
        <pt x="501" y="155" on="1"/>
        <pt x="501" y="577" on="1"/>
        <pt x="595" y="577" on="1"/>
        <pt x="595" y="0" on="1"/>
        <pt x="509" y="0" on="1"/>
        <pt x="226" y="354" on="1"/>
        <pt x="175" y="422" on="1"/>
        <pt x="168" y="422" on="1"/>
        <pt x="168" y="0" on="1"/>
        <pt x="75" y="0" on="1"/>
      </contour>
      <contour>
        <pt x="285" y="628" on="1"/>
        <pt x="347" y="752" on="1"/>
        <pt x="452" y="752" on="1"/>
        <pt x="361" y="622" on="1"/>
      </contour>
    </TTGlyph>
    <TTGlyph name="Ncaron" xMin="79" yMin="0" xMax="668" yMax="956">
      <contour>
        <pt x="212" y="956" on="1"/>
        <pt x="376" y="882" on="1"/>
        <pt x="540" y="956" on="1"/>
        <pt x="540" y="875" on="1"/>
        <pt x="375" y="802" on="1"/>
        <pt x="212" y="875" on="1"/>
      </contour>
      <contour>
        <pt x="79" y="740" on="1"/>
        <pt x="172" y="740" on="1"/>
        <pt x="510" y="258" on="1"/>
        <pt x="563" y="172" on="1"/>
        <pt x="570" y="172" on="1"/>
        <pt x="570" y="740" on="1"/>
        <pt x="668" y="740" on="1"/>
        <pt x="668" y="0" on="1"/>
        <pt x="575" y="0" on="1"/>
        <pt x="237" y="480" on="1"/>
        <pt x="183" y="567" on="1"/>
        <pt x="176" y="567" on="1"/>
        <pt x="176" y="0" on="1"/>
        <pt x="79" y="0" on="1"/>
      </contour>
    </TTGlyph>
    <TTGlyph name="Ncaron.sc" xMin="75" yMin="0" xMax="595" yMax="755">
      <contour>
        <pt x="75" y="577" on="1"/>
        <pt x="160" y="577" on="1"/>
        <pt x="445" y="222" on="1"/>
        <pt x="495" y="155" on="1"/>
        <pt x="501" y="155" on="1"/>
        <pt x="501" y="577" on="1"/>
        <pt x="595" y="577" on="1"/>
        <pt x="595" y="0" on="1"/>
        <pt x="509" y="0" on="1"/>
        <pt x="226" y="354" on="1"/>
        <pt x="175" y="422" on="1"/>
        <pt x="168" y="422" on="1"/>
        <pt x="168" y="0" on="1"/>
        <pt x="75" y="0" on="1"/>
      </contour>
      <contour>
        <pt x="189" y="683" on="1"/>
        <pt x="189" y="755" on="1"/>
        <pt x="337" y="697" on="1"/>
        <pt x="485" y="755" on="1"/>
        <pt x="485" y="683" on="1"/>
        <pt x="337" y="624" on="1"/>
      </contour>
    </TTGlyph>
    <TTGlyph name="Ncommaaccent" xMin="79" yMin="-220" xMax="668" yMax="740">
      <contour>
        <pt x="336" y="-69" on="1"/>
        <pt x="446" y="-69" on="1"/>
        <pt x="374" y="-220" on="1"/>
        <pt x="289" y="-220" on="1"/>
      </contour>
      <contour>
        <pt x="79" y="740" on="1"/>
        <pt x="172" y="740" on="1"/>
        <pt x="510" y="258" on="1"/>
        <pt x="563" y="172" on="1"/>
        <pt x="570" y="172" on="1"/>
        <pt x="570" y="740" on="1"/>
        <pt x="668" y="740" on="1"/>
        <pt x="668" y="0" on="1"/>
        <pt x="575" y="0" on="1"/>
        <pt x="237" y="480" on="1"/>
        <pt x="183" y="567" on="1"/>
        <pt x="176" y="567" on="1"/>
        <pt x="176" y="0" on="1"/>
        <pt x="79" y="0" on="1"/>
      </contour>
    </TTGlyph>
    <TTGlyph name="Ncommaaccent.sc" xMin="75" yMin="-172" xMax="595" yMax="577">
      <contour>
        <pt x="75" y="577" on="1"/>
        <pt x="160" y="577" on="1"/>
        <pt x="445" y="222" on="1"/>
        <pt x="495" y="155" on="1"/>
        <pt x="501" y="155" on="1"/>
        <pt x="501" y="577" on="1"/>
        <pt x="595" y="577" on="1"/>
        <pt x="595" y="0" on="1"/>
        <pt x="509" y="0" on="1"/>
        <pt x="226" y="354" on="1"/>
        <pt x="175" y="422" on="1"/>
        <pt x="168" y="422" on="1"/>
        <pt x="168" y="0" on="1"/>
        <pt x="75" y="0" on="1"/>
      </contour>
      <contour>
        <pt x="296" y="-54" on="1"/>
        <pt x="402" y="-54" on="1"/>
        <pt x="337" y="-172" on="1"/>
        <pt x="256" y="-172" on="1"/>
      </contour>
    </TTGlyph>
    <TTGlyph name="Ndotaccent" xMin="79" yMin="0" xMax="668" yMax="933">
      <contour>
        <pt x="373" y="806" on="1"/>
        <pt x="340" y="806" on="0"/>
        <pt x="308" y="836" on="0"/>
        <pt x="308" y="869" on="1"/>
        <pt x="308" y="903" on="0"/>
        <pt x="340" y="933" on="0"/>
        <pt x="373" y="933" on="1"/>
        <pt x="438" y="933" on="0"/>
        <pt x="438" y="869" on="1"/>
        <pt x="438" y="806" on="0"/>
      </contour>
      <contour>
        <pt x="79" y="740" on="1"/>
        <pt x="172" y="740" on="1"/>
        <pt x="510" y="258" on="1"/>
        <pt x="563" y="172" on="1"/>
        <pt x="570" y="172" on="1"/>
        <pt x="570" y="740" on="1"/>
        <pt x="668" y="740" on="1"/>
        <pt x="668" y="0" on="1"/>
        <pt x="575" y="0" on="1"/>
        <pt x="237" y="480" on="1"/>
        <pt x="183" y="567" on="1"/>
        <pt x="176" y="567" on="1"/>
        <pt x="176" y="0" on="1"/>
        <pt x="79" y="0" on="1"/>
      </contour>
    </TTGlyph>
    <TTGlyph name="Ndotaccent.sc" xMin="75" yMin="0" xMax="595" yMax="743">
      <contour>
        <pt x="75" y="577" on="1"/>
        <pt x="160" y="577" on="1"/>
        <pt x="445" y="222" on="1"/>
        <pt x="495" y="155" on="1"/>
        <pt x="501" y="155" on="1"/>
        <pt x="501" y="577" on="1"/>
        <pt x="595" y="577" on="1"/>
        <pt x="595" y="0" on="1"/>
        <pt x="509" y="0" on="1"/>
        <pt x="226" y="354" on="1"/>
        <pt x="175" y="422" on="1"/>
        <pt x="168" y="422" on="1"/>
        <pt x="168" y="0" on="1"/>
        <pt x="75" y="0" on="1"/>
      </contour>
      <contour>
        <pt x="335" y="628" on="1"/>
        <pt x="304" y="628" on="0"/>
        <pt x="274" y="654" on="0"/>
        <pt x="274" y="686" on="1"/>
        <pt x="274" y="716" on="0"/>
        <pt x="304" y="743" on="0"/>
        <pt x="335" y="743" on="1"/>
        <pt x="396" y="743" on="0"/>
        <pt x="396" y="686" on="1"/>
        <pt x="396" y="628" on="0"/>
      </contour>
    </TTGlyph>
    <TTGlyph name="Ntilde" xMin="79" yMin="0" xMax="668" yMax="940">
      <contour>
        <pt x="183" y="854" on="1"/>
        <pt x="209" y="896" on="0"/>
        <pt x="277" y="940" on="0"/>
        <pt x="310" y="940" on="1"/>
        <pt x="332" y="940" on="0"/>
        <pt x="373" y="927" on="0"/>
        <pt x="412" y="912" on="0"/>
        <pt x="451" y="899" on="0"/>
        <pt x="472" y="899" on="1"/>
        <pt x="514" y="899" on="0"/>
        <pt x="554" y="938" on="1"/>
        <pt x="578" y="912" on="1"/>
        <pt x="553" y="870" on="0"/>
        <pt x="484" y="825" on="0"/>
        <pt x="450" y="825" on="1"/>
        <pt x="429" y="825" on="0"/>
        <pt x="388" y="837" on="0"/>
        <pt x="349" y="852" on="0"/>
        <pt x="310" y="865" on="0"/>
        <pt x="289" y="865" on="1"/>
        <pt x="268" y="865" on="0"/>
        <pt x="227" y="848" on="0"/>
        <pt x="206" y="828" on="1"/>
      </contour>
      <contour>
        <pt x="79" y="740" on="1"/>
        <pt x="172" y="740" on="1"/>
        <pt x="510" y="258" on="1"/>
        <pt x="563" y="172" on="1"/>
        <pt x="570" y="172" on="1"/>
        <pt x="570" y="740" on="1"/>
        <pt x="668" y="740" on="1"/>
        <pt x="668" y="0" on="1"/>
        <pt x="575" y="0" on="1"/>
        <pt x="237" y="480" on="1"/>
        <pt x="183" y="567" on="1"/>
        <pt x="176" y="567" on="1"/>
        <pt x="176" y="0" on="1"/>
        <pt x="79" y="0" on="1"/>
      </contour>
    </TTGlyph>
    <TTGlyph name="Ntilde.sc" xMin="75" yMin="0" xMax="595" yMax="743">
      <contour>
        <pt x="163" y="666" on="1"/>
        <pt x="187" y="704" on="0"/>
        <pt x="248" y="743" on="0"/>
        <pt x="278" y="743" on="1"/>
        <pt x="298" y="743" on="0"/>
        <pt x="335" y="733" on="0"/>
        <pt x="370" y="722" on="0"/>
        <pt x="406" y="712" on="0"/>
        <pt x="425" y="712" on="1"/>
        <pt x="461" y="712" on="0"/>
        <pt x="498" y="742" on="1"/>
        <pt x="519" y="721" on="1"/>
        <pt x="496" y="683" on="0"/>
        <pt x="434" y="643" on="0"/>
        <pt x="403" y="643" on="1"/>
        <pt x="383" y="643" on="0"/>
        <pt x="347" y="653" on="0"/>
        <pt x="311" y="664" on="0"/>
        <pt x="275" y="674" on="0"/>
        <pt x="257" y="674" on="1"/>
        <pt x="238" y="674" on="0"/>
        <pt x="203" y="661" on="0"/>
        <pt x="183" y="644" on="1"/>
      </contour>
      <contour>
        <pt x="75" y="577" on="1"/>
        <pt x="160" y="577" on="1"/>
        <pt x="445" y="222" on="1"/>
        <pt x="495" y="155" on="1"/>
        <pt x="501" y="155" on="1"/>
        <pt x="501" y="577" on="1"/>
        <pt x="595" y="577" on="1"/>
        <pt x="595" y="0" on="1"/>
        <pt x="509" y="0" on="1"/>
        <pt x="226" y="354" on="1"/>
        <pt x="175" y="422" on="1"/>
        <pt x="168" y="422" on="1"/>
        <pt x="168" y="0" on="1"/>
        <pt x="75" y="0" on="1"/>
      </contour>
    </TTGlyph>
    <TTGlyph name="O" xMin="45" yMin="-10" xMax="671" yMax="750">
      <contour>
        <pt x="358" y="-10" on="1"/>
        <pt x="204" y="-10" on="0"/>
        <pt x="45" y="180" on="0"/>
        <pt x="45" y="369" on="1"/>
        <pt x="45" y="559" on="0"/>
        <pt x="204" y="750" on="0"/>
        <pt x="358" y="750" on="1"/>
        <pt x="512" y="750" on="0"/>
        <pt x="671" y="559" on="0"/>
        <pt x="671" y="369" on="1"/>
        <pt x="671" y="180" on="0"/>
        <pt x="512" y="-10" on="0"/>
      </contour>
      <contour>
        <pt x="358" y="81" on="1"/>
        <pt x="463" y="81" on="0"/>
        <pt x="560" y="218" on="0"/>
        <pt x="560" y="369" on="1"/>
        <pt x="560" y="520" on="0"/>
        <pt x="461" y="659" on="0"/>
        <pt x="358" y="659" on="1"/>
        <pt x="254" y="659" on="0"/>
        <pt x="156" y="521" on="0"/>
        <pt x="156" y="369" on="1"/>
        <pt x="156" y="218" on="0"/>
        <pt x="253" y="81" on="0"/>
      </contour>
    </TTGlyph>
    <TTGlyph name="O.sc" xMin="44" yMin="-8" xMax="604" yMax="585">
      <contour>
        <pt x="324" y="-8" on="1"/>
        <pt x="187" y="-8" on="0"/>
        <pt x="44" y="141" on="0"/>
        <pt x="44" y="288" on="1"/>
        <pt x="44" y="436" on="0"/>
        <pt x="186" y="585" on="0"/>
        <pt x="324" y="585" on="1"/>
        <pt x="461" y="585" on="0"/>
        <pt x="604" y="436" on="0"/>
        <pt x="604" y="288" on="1"/>
        <pt x="604" y="141" on="0"/>
        <pt x="461" y="-8" on="0"/>
      </contour>
      <contour>
        <pt x="324" y="78" on="1"/>
        <pt x="416" y="78" on="0"/>
        <pt x="499" y="177" on="0"/>
        <pt x="499" y="288" on="1"/>
        <pt x="499" y="399" on="0"/>
        <pt x="415" y="500" on="0"/>
        <pt x="324" y="500" on="1"/>
        <pt x="232" y="500" on="0"/>
        <pt x="150" y="400" on="0"/>
        <pt x="150" y="288" on="1"/>
        <pt x="150" y="176" on="0"/>
        <pt x="232" y="78" on="0"/>
      </contour>
    </TTGlyph>
    <TTGlyph name="OE" xMin="44" yMin="-7" xMax="910" yMax="747">
      <contour>
        <pt x="363" y="-7" on="1"/>
        <pt x="208" y="-7" on="0"/>
        <pt x="44" y="182" on="0"/>
        <pt x="44" y="369" on="1"/>
        <pt x="44" y="557" on="0"/>
        <pt x="208" y="747" on="0"/>
        <pt x="363" y="747" on="1"/>
        <pt x="392" y="747" on="0"/>
        <pt x="444" y="744" on="0"/>
        <pt x="467" y="740" on="1"/>
        <pt x="901" y="740" on="1"/>
        <pt x="901" y="650" on="1"/>
        <pt x="574" y="650" on="1"/>
        <pt x="574" y="420" on="1"/>
        <pt x="876" y="420" on="1"/>
        <pt x="876" y="332" on="1"/>
        <pt x="574" y="332" on="1"/>
        <pt x="574" y="90" on="1"/>
        <pt x="910" y="90" on="1"/>
        <pt x="910" y="0" on="1"/>
        <pt x="467" y="0" on="1"/>
        <pt x="444" y="-4" on="0"/>
        <pt x="390" y="-7" on="0"/>
      </contour>
      <contour>
        <pt x="369" y="84" on="1"/>
        <pt x="395" y="84" on="0"/>
        <pt x="445" y="86" on="0"/>
        <pt x="466" y="91" on="1"/>
        <pt x="466" y="648" on="1"/>
        <pt x="444" y="653" on="0"/>
        <pt x="394" y="656" on="0"/>
        <pt x="368" y="656" on="1"/>
        <pt x="257" y="656" on="0"/>
        <pt x="155" y="519" on="0"/>
        <pt x="155" y="369" on="1"/>
        <pt x="155" y="294" on="0"/>
        <pt x="180" y="186" on="0"/>
        <pt x="232" y="117" on="0"/>
        <pt x="313" y="84" on="0"/>
      </contour>
    </TTGlyph>
</ttFont>
